SplineFontDB: 3.2
FontName: FiraSans-Regular
FullName: Fira Sans Regular
FamilyName: Fira Sans
Weight: Book
Copyright: Digitized data copyright 2012-2016, The Mozilla Foundation and Telefonica S.A.
Version: 4.203
ItalicAngle: 0
UnderlinePosition: -100
UnderlineWidth: 50
Ascent: 800
Descent: 200
InvalidEm: 0
sfntRevision: 0x000433f7
LayerCount: 2
Layer: 0 1 "Back" 1
Layer: 1 1 "Fore" 0
XUID: [1021 455 391643807 12435381]
StyleMap: 0x0040
FSType: 0
OS2Version: 4
OS2_WeightWidthSlopeOnly: 0
OS2_UseTypoMetrics: 1
CreationTime: 1476947922
ModificationTime: 1480667555
PfmFamily: 17
TTFWeight: 400
TTFWidth: 5
LineGap: 0
VLineGap: 0
Panose: 2 11 5 3 5 0 0 2 0 4
OS2TypoAscent: 935
OS2TypoAOffset: 0
OS2TypoDescent: -265
OS2TypoDOffset: 0
OS2TypoLinegap: 0
OS2WinAscent: 935
OS2WinAOffset: 0
OS2WinDescent: 265
OS2WinDOffset: 0
HheadAscent: 935
HheadAOffset: 0
HheadDescent: -265
HheadDOffset: 0
OS2SubXSize: 650
OS2SubYSize: 600
OS2SubXOff: 0
OS2SubYOff: 75
OS2SupXSize: 650
OS2SupYSize: 600
OS2SupXOff: 0
OS2SupYOff: 350
OS2StrikeYSize: 50
OS2StrikeYPos: 316
OS2CapHeight: 689
OS2XHeight: 527
OS2Vendor: 'CTDB'
OS2CodePages: 2000019f.00000000
OS2UnicodeRanges: 600002ff.00000001.00000000.00000000
Lookup: 1 0 0 "'aalt' Access All Alternates lookup 0" { "'aalt' Access All Alternates lookup 0 subtable"  } ['aalt' ('DFLT' <'dflt' > 'cyrl' <'dflt' > 'grek' <'dflt' > 'latn' <'AFK ' 'AZE ' 'CAT ' 'CRT ' 'KAZ ' 'MOL ' 'PLK ' 'ROM ' 'TAT ' 'TRK ' 'dflt' > ) ]
Lookup: 3 0 0 "'aalt' Access All Alternates lookup 1" { "'aalt' Access All Alternates lookup 1 subtable"  } ['aalt' ('DFLT' <'dflt' > 'cyrl' <'dflt' > 'grek' <'dflt' > 'latn' <'AFK ' 'AZE ' 'CAT ' 'CRT ' 'KAZ ' 'MOL ' 'PLK ' 'ROM ' 'TAT ' 'TRK ' 'dflt' > ) ]
Lookup: 1 0 0 "'locl' Localized Forms in Latin lookup 2" { "'locl' Localized Forms in Latin lookup 2 subtable"  } ['locl' ('latn' <'TAT ' > ) ]

StartChar: .notdef
Encoding: 65536 -1 0
Width: 666
GlyphClass: 1
Flags: W
LayerCount: 2
Fore
SplineSet
543 1050 m 1,0,-1
 543 -350 l 1,1,-1
 123 -350 l 1,2,-1
 123 1050 l 1,3,-1
 543 1050 l 1,0,-1
489 998 m 1,4,-1
 178 998 l 1,5,-1
 178 -298 l 1,6,-1
 489 -298 l 1,7,-1
 489 998 l 1,4,-1
409.5 419 m 128,-1,9
 435 387 435 387 435 336 c 0,10,11
 435 283 435 283 412.5 254 c 128,-1,12
 390 225 390 225 340 218 c 1,13,-1
 340 173 l 2,14,15
 340 162 340 162 332.5 155.5 c 128,-1,16
 325 149 325 149 315 149 c 256,17,18
 305 149 305 149 297.5 155.5 c 128,-1,19
 290 162 290 162 290 173 c 2,20,-1
 290 257 l 1,21,22
 343 260 343 260 362 276.5 c 128,-1,23
 381 293 381 293 381 334 c 0,24,25
 381 367 381 367 368 385 c 128,-1,26
 355 403 355 403 320 403 c 0,27,28
 291 403 291 403 268 392 c 0,29,30
 260 389 260 389 255 389 c 0,31,32
 244 389 244 389 237.5 395.5 c 128,-1,33
 231 402 231 402 231 412 c 0,34,35
 231 431 231 431 260.5 441 c 128,-1,36
 290 451 290 451 324 451 c 0,37,8
 384 451 384 451 409.5 419 c 128,-1,9
340 110 m 128,-1,39
 350 100 350 100 350 85 c 0,40,41
 350 69 350 69 340 58.5 c 128,-1,42
 330 48 330 48 315 48 c 256,43,44
 300 48 300 48 290 58.5 c 128,-1,45
 280 69 280 69 280 85 c 0,46,47
 280 100 280 100 290 110 c 128,-1,48
 300 120 300 120 315 120 c 256,49,38
 330 120 330 120 340 110 c 128,-1,39
EndSplineSet
EndChar

StartChar: A
Encoding: 65 65 3
Width: 573
GlyphClass: 2
Flags: W
AnchorPoint: "Anchor-18" 0 0 basechar 0
AnchorPoint: "Anchor-17" 0 0 basechar 0
AnchorPoint: "Anchor-16" 287 689 basechar 0
AnchorPoint: "Anchor-15" 537 0 basechar 0
AnchorPoint: "Anchor-14" 287 0 basechar 0
LayerCount: 2
Fore
SplineSet
467 0 m 1,0,-1
 415 173 l 1,1,-1
 154 173 l 1,2,-1
 102 0 l 1,3,-1
 6 0 l 1,4,-1
 227 689 l 1,5,-1
 347 689 l 1,6,-1
 567 0 l 1,7,-1
 467 0 l 1,0,-1
177 250 m 1,8,-1
 392 250 l 1,9,-1
 285 610 l 1,10,-1
 177 250 l 1,8,-1
EndSplineSet
Substitution2: "Single Substitution lookup 45 subtable" ordfeminine
Substitution2: "'c2sc' Capitals to Small Capitals lookup 26 subtable" a.sc
AlternateSubs2: "'aalt' Access All Alternates lookup 1 subtable" ordfeminine a.sc
Position2: "'cpsp' Capital Spacing lookup 0 subtable" dx=5 dy=0 dh=10 dv=0
EndChar

StartChar: uni2C6D
Encoding: 11373 11373 27
Width: 690
GlyphClass: 2
Flags: W
AnchorPoint: "Anchor-18" 0 0 basechar 0
AnchorPoint: "Anchor-17" 0 0 basechar 0
AnchorPoint: "Anchor-16" 345 689 basechar 0
AnchorPoint: "Anchor-15" 0 0 basechar 0
AnchorPoint: "Anchor-14" 345 0 basechar 0
LayerCount: 2
Fore
SplineSet
594 88.5 m 128,-1,1
 604 72 604 72 630 60 c 1,2,-1
 598 -12 l 1,3,4
 552 -1 552 -1 528.5 17.5 c 128,-1,5
 505 36 505 36 495 69 c 1,6,7
 464 31 464 31 421 9.5 c 128,-1,8
 378 -12 378 -12 324 -12 c 0,9,10
 248 -12 248 -12 187.5 26 c 128,-1,11
 127 64 127 64 91 140.5 c 128,-1,12
 55 217 55 217 55 328 c 0,13,14
 55 445 55 445 90.5 529 c 128,-1,15
 126 613 126 613 188 657 c 128,-1,16
 250 701 250 701 329 701 c 0,17,18
 378 701 378 701 419 682 c 128,-1,19
 460 663 460 663 491 630 c 1,20,-1
 500 689 l 1,21,-1
 584 689 l 1,22,-1
 584 142 l 2,23,0
 584 105 584 105 594 88.5 c 128,-1,1
418 85 m 128,-1,25
 454 104 454 104 489 142 c 1,26,-1
 489 552 l 1,27,28
 428 623 428 623 340 623 c 0,29,30
 254 623 254 623 205 551 c 128,-1,31
 156 479 156 479 156 328 c 0,32,33
 156 191 156 191 204.5 128.5 c 128,-1,34
 253 66 253 66 333 66 c 0,35,24
 382 66 382 66 418 85 c 128,-1,25
EndSplineSet
Substitution2: "'c2sc' Capitals to Small Capitals lookup 26 subtable" uni0251.sc
Substitution2: "'aalt' Access All Alternates lookup 0 subtable" uni0251.sc
Position2: "'cpsp' Capital Spacing lookup 0 subtable" dx=5 dy=0 dh=10 dv=0
EndChar

StartChar: Aogonek
Encoding: 260 260 29
Width: 573
GlyphClass: 2
Flags: W
AnchorPoint: "Anchor-18" 0 0 basechar 0
AnchorPoint: "Anchor-17" 0 0 basechar 0
AnchorPoint: "Anchor-16" 287 689 basechar 0
AnchorPoint: "Anchor-15" 537 0 basechar 0
AnchorPoint: "Anchor-14" 287 0 basechar 0
LayerCount: 2
Fore
SplineSet
430 -57.5 m 128,-1,1
 404 -84 404 -84 404 -114 c 0,2,3
 404 -162 404 -162 460 -162 c 0,4,5
 487 -162 487 -162 521 -155 c 1,6,-1
 512 -225 l 1,7,8
 477 -232 477 -232 449 -232 c 0,9,10
 392 -232 392 -232 358 -203.5 c 128,-1,11
 324 -175 324 -175 324 -131 c 0,12,13
 324 -83 324 -83 358 -47 c 128,-1,14
 392 -11 392 -11 462 16 c 1,15,-1
 415 173 l 1,16,-1
 154 173 l 1,17,-1
 102 0 l 1,18,-1
 6 0 l 1,19,-1
 227 689 l 1,20,-1
 347 689 l 1,21,-1
 567 0 l 1,22,-1
 527 0 l 1,23,0
 456 -31 456 -31 430 -57.5 c 128,-1,1
177 250 m 1,24,-1
 392 250 l 1,25,-1
 285 610 l 1,26,-1
 177 250 l 1,24,-1
EndSplineSet
Substitution2: "'c2sc' Capitals to Small Capitals lookup 26 subtable" aogonek.sc
Substitution2: "'aalt' Access All Alternates lookup 0 subtable" aogonek.sc
Position2: "'cpsp' Capital Spacing lookup 0 subtable" dx=5 dy=0 dh=10 dv=0
EndChar

StartChar: uni023A
Encoding: 570 570 32
Width: 573
GlyphClass: 2
Flags: W
AnchorPoint: "Anchor-18" 0 0 basechar 0
AnchorPoint: "Anchor-17" 0 0 basechar 0
AnchorPoint: "Anchor-16" 287 689 basechar 0
AnchorPoint: "Anchor-15" 0 0 basechar 0
AnchorPoint: "Anchor-14" 287 0 basechar 0
LayerCount: 2
Fore
SplineSet
470 0 m 1,0,-1
 418 173 l 1,1,-1
 279 173 l 1,2,-1
 214 -70 l 1,3,-1
 169 -59 l 1,4,-1
 231 173 l 1,5,-1
 151 173 l 1,6,-1
 99 0 l 1,7,-1
 6 0 l 1,8,-1
 227 689 l 1,9,-1
 347 689 l 1,10,-1
 358 653 l 1,11,-1
 384 750 l 1,12,-1
 429 739 l 1,13,-1
 385 572 l 1,14,-1
 567 0 l 1,15,-1
 470 0 l 1,0,-1
173 247 m 1,16,-1
 250 247 l 1,17,-1
 319 506 l 1,18,-1
 285 620 l 1,19,-1
 173 247 l 1,16,-1
298 247 m 1,20,-1
 396 247 l 1,21,-1
 344 421 l 1,22,-1
 298 247 l 1,20,-1
EndSplineSet
Substitution2: "'c2sc' Capitals to Small Capitals lookup 26 subtable" uni2C65.sc
Substitution2: "'aalt' Access All Alternates lookup 0 subtable" uni2C65.sc
Position2: "'cpsp' Capital Spacing lookup 0 subtable" dx=5 dy=0 dh=10 dv=0
EndChar

StartChar: AE
Encoding: 198 198 34
Width: 816
GlyphClass: 2
Flags: W
AnchorPoint: "Anchor-18" 0 0 basechar 0
AnchorPoint: "Anchor-17" 0 0 basechar 0
AnchorPoint: "Anchor-16" 474 689 basechar 0
AnchorPoint: "Anchor-15" 0 0 basechar 0
AnchorPoint: "Anchor-14" 408 0 basechar 0
LayerCount: 2
Fore
SplineSet
535 76 m 1,0,-1
 762 76 l 1,1,-1
 762 0 l 1,2,-1
 458 0 l 1,3,-1
 418 173 l 1,4,-1
 150 173 l 1,5,-1
 85 0 l 1,6,-1
 -12 0 l 1,7,-1
 262 689 l 1,8,-1
 721 689 l 1,9,-1
 710 613 l 1,10,-1
 401 613 l 1,11,-1
 457 387 l 1,12,-1
 712 387 l 1,13,-1
 712 311 l 1,14,-1
 476 311 l 1,15,-1
 535 76 l 1,0,-1
179 250 m 1,16,-1
 400 250 l 1,17,-1
 316 613 l 1,18,-1
 179 250 l 1,16,-1
EndSplineSet
Substitution2: "'c2sc' Capitals to Small Capitals lookup 26 subtable" ae.sc
Substitution2: "'aalt' Access All Alternates lookup 0 subtable" ae.sc
Position2: "'cpsp' Capital Spacing lookup 0 subtable" dx=5 dy=0 dh=10 dv=0
EndChar

StartChar: B
Encoding: 66 66 37
Width: 608
GlyphClass: 2
Flags: W
AnchorPoint: "Anchor-18" 0 0 basechar 0
AnchorPoint: "Anchor-17" 0 0 basechar 0
AnchorPoint: "Anchor-16" 301 689 basechar 0
AnchorPoint: "Anchor-15" 0 0 basechar 0
AnchorPoint: "Anchor-14" 310 0 basechar 0
LayerCount: 2
Fore
SplineSet
519 314 m 128,-1,1
 563 276 563 276 563 196 c 0,2,3
 563 0 563 0 290 0 c 2,4,-1
 100 0 l 1,5,-1
 100 689 l 1,6,-1
 263 689 l 2,7,8
 394 689 394 689 463.5 646 c 128,-1,9
 533 603 533 603 533 515 c 0,10,11
 533 455 533 455 495.5 415 c 128,-1,12
 458 375 458 375 404 364 c 1,13,0
 475 352 475 352 519 314 c 128,-1,1
195 614 m 1,14,-1
 195 397 l 1,15,-1
 299 397 l 2,16,17
 359 397 359 397 397.5 426 c 128,-1,18
 436 455 436 455 436 508 c 0,19,20
 436 568 436 568 395.5 591 c 128,-1,21
 355 614 355 614 273 614 c 2,22,-1
 195 614 l 1,14,-1
418.5 101 m 128,-1,24
 463 126 463 126 463 196 c 0,25,26
 463 264 463 264 420 294 c 128,-1,27
 377 324 377 324 308 324 c 2,28,-1
 195 324 l 1,29,-1
 195 76 l 1,30,-1
 290 76 l 2,31,23
 374 76 374 76 418.5 101 c 128,-1,24
EndSplineSet
Substitution2: "'c2sc' Capitals to Small Capitals lookup 26 subtable" b.sc
Substitution2: "'aalt' Access All Alternates lookup 0 subtable" b.sc
Position2: "'cpsp' Capital Spacing lookup 0 subtable" dx=5 dy=0 dh=10 dv=0
EndChar

StartChar: uniA7B4
Encoding: 42932 42932 40
Width: 608
GlyphClass: 2
Flags: W
AnchorPoint: "Anchor-18" 0 0 basechar 0
AnchorPoint: "Anchor-17" 0 0 basechar 0
AnchorPoint: "Anchor-16" 304 689 basechar 0
AnchorPoint: "Anchor-15" 0 0 basechar 0
AnchorPoint: "Anchor-14" 304 -202 basechar 0
LayerCount: 2
Fore
SplineSet
519 315 m 128,-1,1
 563 278 563 278 563 202 c 0,2,3
 563 101 563 101 495.5 50.5 c 128,-1,4
 428 0 428 0 320 0 c 0,5,6
 255 0 255 0 195 17 c 1,7,-1
 195 -202 l 1,8,-1
 100 -202 l 1,9,-1
 100 689 l 1,10,-1
 263 689 l 2,11,12
 394 689 394 689 463.5 646 c 128,-1,13
 533 603 533 603 533 515 c 0,14,15
 533 455 533 455 495.5 415 c 128,-1,16
 458 375 458 375 404 364 c 1,17,0
 475 352 475 352 519 315 c 128,-1,1
423 105.5 m 128,-1,19
 463 135 463 135 463 202 c 0,20,21
 463 266 463 266 420 295 c 128,-1,22
 377 324 377 324 308 324 c 2,23,-1
 259 324 l 1,24,-1
 269 397 l 1,25,-1
 299 397 l 2,26,27
 359 397 359 397 397.5 426 c 128,-1,28
 436 455 436 455 436 508 c 0,29,30
 436 568 436 568 395.5 591 c 128,-1,31
 355 614 355 614 273 614 c 2,32,-1
 195 614 l 1,33,-1
 195 90 l 1,34,35
 263 76 263 76 320 76 c 0,36,18
 383 76 383 76 423 105.5 c 128,-1,19
EndSplineSet
Substitution2: "'c2sc' Capitals to Small Capitals lookup 26 subtable" uniA7B5.sc
Substitution2: "'aalt' Access All Alternates lookup 0 subtable" uniA7B5.sc
Position2: "'cpsp' Capital Spacing lookup 0 subtable" dx=5 dy=0 dh=10 dv=0
EndChar

StartChar: uni0181
Encoding: 385 385 41
Width: 691
GlyphClass: 2
Flags: W
AnchorPoint: "Anchor-18" 0 0 basechar 0
AnchorPoint: "Anchor-17" 0 0 basechar 0
AnchorPoint: "Anchor-16" 384 689 basechar 0
AnchorPoint: "Anchor-15" 0 0 basechar 0
AnchorPoint: "Anchor-14" 393 0 basechar 0
LayerCount: 2
Fore
SplineSet
602 314 m 128,-1,1
 646 276 646 276 646 196 c 0,2,3
 646 0 646 0 373 0 c 2,4,-1
 183 0 l 1,5,-1
 183 614 l 1,6,-1
 151 614 l 2,7,8
 97 614 97 614 97 564 c 0,9,10
 97 547 97 547 101.5 530.5 c 128,-1,11
 106 514 106 514 115 491 c 1,12,-1
 51 459 l 1,13,14
 32 487 32 487 21 512 c 128,-1,15
 10 537 10 537 10 567 c 0,16,17
 10 622 10 622 48 655.5 c 128,-1,18
 86 689 86 689 156 689 c 2,19,-1
 346 689 l 2,20,21
 477 689 477 689 546.5 646 c 128,-1,22
 616 603 616 603 616 515 c 0,23,24
 616 455 616 455 578.5 415 c 128,-1,25
 541 375 541 375 487 364 c 1,26,0
 558 352 558 352 602 314 c 128,-1,1
278 614 m 1,27,-1
 278 397 l 1,28,-1
 382 397 l 2,29,30
 442 397 442 397 480.5 426 c 128,-1,31
 519 455 519 455 519 508 c 0,32,33
 519 568 519 568 478.5 591 c 128,-1,34
 438 614 438 614 356 614 c 2,35,-1
 278 614 l 1,27,-1
501.5 101 m 128,-1,37
 546 126 546 126 546 196 c 0,38,39
 546 264 546 264 503 294 c 128,-1,40
 460 324 460 324 391 324 c 2,41,-1
 278 324 l 1,42,-1
 278 76 l 1,43,-1
 373 76 l 2,44,36
 457 76 457 76 501.5 101 c 128,-1,37
EndSplineSet
Substitution2: "'ss02' Style Set 2 lookup 34 subtable" uni0181.ss02
Substitution2: "'salt' Stylistic Alternatives lookup 32 subtable" uni0181.ss02
Substitution2: "'c2sc' Capitals to Small Capitals lookup 26 subtable" uni0253.sc
AlternateSubs2: "'aalt' Access All Alternates lookup 1 subtable" uni0253.sc uni0181.ss02
Position2: "'cpsp' Capital Spacing lookup 0 subtable" dx=5 dy=0 dh=10 dv=0
EndChar

StartChar: uni0243
Encoding: 579 579 43
Width: 620
GlyphClass: 2
Flags: W
AnchorPoint: "Anchor-18" 0 0 basechar 0
AnchorPoint: "Anchor-17" 0 0 basechar 0
AnchorPoint: "Anchor-16" 313 689 basechar 0
AnchorPoint: "Anchor-15" 0 0 basechar 0
AnchorPoint: "Anchor-14" 322 0 basechar 0
LayerCount: 2
Fore
SplineSet
531 314 m 128,-1,1
 575 276 575 276 575 196 c 0,2,3
 575 0 575 0 302 0 c 2,4,-1
 112 0 l 1,5,-1
 112 168 l 1,6,-1
 20 168 l 1,7,-1
 20 238 l 1,8,-1
 112 238 l 1,9,-1
 112 689 l 1,10,-1
 275 689 l 2,11,12
 406 689 406 689 475.5 646 c 128,-1,13
 545 603 545 603 545 515 c 0,14,15
 545 455 545 455 507.5 415 c 128,-1,16
 470 375 470 375 416 364 c 1,17,0
 487 352 487 352 531 314 c 128,-1,1
207 614 m 1,18,-1
 207 397 l 1,19,-1
 311 397 l 2,20,21
 371 397 371 397 409.5 426 c 128,-1,22
 448 455 448 455 448 508 c 0,23,24
 448 568 448 568 407.5 591 c 128,-1,25
 367 614 367 614 285 614 c 2,26,-1
 207 614 l 1,18,-1
430.5 101 m 128,-1,28
 475 126 475 126 475 196 c 0,29,30
 475 264 475 264 432 294 c 128,-1,31
 389 324 389 324 320 324 c 2,32,-1
 207 324 l 1,33,-1
 207 238 l 1,34,-1
 364 238 l 1,35,-1
 364 168 l 1,36,-1
 207 168 l 1,37,-1
 207 76 l 1,38,-1
 302 76 l 2,39,27
 386 76 386 76 430.5 101 c 128,-1,28
EndSplineSet
Substitution2: "'c2sc' Capitals to Small Capitals lookup 26 subtable" uni0180.sc
Substitution2: "'aalt' Access All Alternates lookup 0 subtable" uni0180.sc
Position2: "'cpsp' Capital Spacing lookup 0 subtable" dx=5 dy=0 dh=10 dv=0
EndChar

StartChar: C
Encoding: 67 67 45
Width: 560
GlyphClass: 2
Flags: W
AnchorPoint: "Anchor-18" 341 346 basechar 0
AnchorPoint: "Anchor-17" 0 0 basechar 0
AnchorPoint: "Anchor-16" 347 689 basechar 0
AnchorPoint: "Anchor-15" 0 0 basechar 0
AnchorPoint: "Anchor-14" 346 0 basechar 0
LayerCount: 2
Fore
SplineSet
445.5 685 m 128,-1,1
 488 669 488 669 532 633 c 1,2,-1
 480 572 l 1,3,4
 417 623 417 623 347 623 c 0,5,6
 261 623 261 623 208.5 557 c 128,-1,7
 156 491 156 491 156 345 c 0,8,9
 156 203 156 203 208 135.5 c 128,-1,10
 260 68 260 68 346 68 c 0,11,12
 390 68 390 68 423 83 c 128,-1,13
 456 98 456 98 493 125 c 1,14,-1
 540 65 l 1,15,16
 508 32 508 32 458 10 c 128,-1,17
 408 -12 408 -12 343 -12 c 0,18,19
 259 -12 259 -12 193.5 29.5 c 128,-1,20
 128 71 128 71 91.5 151.5 c 128,-1,21
 55 232 55 232 55 345 c 256,22,23
 55 458 55 458 93 538.5 c 128,-1,24
 131 619 131 619 196 660 c 128,-1,25
 261 701 261 701 341 701 c 0,26,0
 403 701 403 701 445.5 685 c 128,-1,1
EndSplineSet
Substitution2: "'c2sc' Capitals to Small Capitals lookup 26 subtable" c.sc
Substitution2: "'aalt' Access All Alternates lookup 0 subtable" c.sc
Position2: "'cpsp' Capital Spacing lookup 0 subtable" dx=5 dy=0 dh=10 dv=0
EndChar

StartChar: Ccedilla
Encoding: 199 199 49
Width: 560
GlyphClass: 2
Flags: W
AnchorPoint: "Anchor-18" 341 346 basechar 0
AnchorPoint: "Anchor-17" 0 0 basechar 0
AnchorPoint: "Anchor-16" 347 689 basechar 0
AnchorPoint: "Anchor-15" 0 0 basechar 0
AnchorPoint: "Anchor-14" 364 -241 basechar 0
LayerCount: 2
Fore
SplineSet
470.5 15.5 m 128,-1,1
 429 -5 429 -5 376 -10 c 1,2,-1
 376 -56 l 1,3,4
 424 -60 424 -60 446.5 -83.5 c 128,-1,5
 469 -107 469 -107 469 -141 c 0,6,7
 469 -189 469 -189 434 -215 c 128,-1,8
 399 -241 399 -241 345 -241 c 0,9,10
 317 -241 317 -241 293 -234.5 c 128,-1,11
 269 -228 269 -228 254 -217 c 1,12,-1
 279 -165 l 1,13,14
 309 -181 309 -181 342 -181 c 0,15,16
 365 -181 365 -181 378.5 -171.5 c 128,-1,17
 392 -162 392 -162 392 -141 c 256,18,19
 392 -120 392 -120 371 -109.5 c 128,-1,20
 350 -99 350 -99 303 -99 c 1,21,-1
 314 -11 l 1,22,23
 237 -4 237 -4 178.5 39.5 c 128,-1,24
 120 83 120 83 87.5 160.5 c 128,-1,25
 55 238 55 238 55 345 c 0,26,27
 55 458 55 458 93 538.5 c 128,-1,28
 131 619 131 619 196 660 c 128,-1,29
 261 701 261 701 341 701 c 0,30,31
 403 701 403 701 445.5 685 c 128,-1,32
 488 669 488 669 532 633 c 1,33,-1
 480 572 l 1,34,35
 417 623 417 623 347 623 c 0,36,37
 261 623 261 623 208.5 557 c 128,-1,38
 156 491 156 491 156 345 c 0,39,40
 156 203 156 203 208 135.5 c 128,-1,41
 260 68 260 68 346 68 c 0,42,43
 390 68 390 68 423 83 c 128,-1,44
 456 98 456 98 493 125 c 1,45,-1
 540 65 l 1,46,0
 512 36 512 36 470.5 15.5 c 128,-1,1
EndSplineSet
Substitution2: "'c2sc' Capitals to Small Capitals lookup 26 subtable" ccedilla.sc
Substitution2: "'aalt' Access All Alternates lookup 0 subtable" ccedilla.sc
Position2: "'cpsp' Capital Spacing lookup 0 subtable" dx=5 dy=0 dh=10 dv=0
EndChar

StartChar: uniA7B3
Encoding: 42931 42931 52
Width: 532
GlyphClass: 2
Flags: W
AnchorPoint: "Anchor-18" 0 0 basechar 0
AnchorPoint: "Anchor-17" 0 0 basechar 0
AnchorPoint: "Anchor-16" 266 689 basechar 0
AnchorPoint: "Anchor-15" 0 0 basechar 0
AnchorPoint: "Anchor-14" 266 -202 basechar 0
LayerCount: 2
Fore
SplineSet
321 312 m 1,0,-1
 527 -130 l 1,1,-1
 419 -130 l 1,2,-1
 264 245 l 1,3,-1
 107 -130 l 1,4,-1
 5 -130 l 1,5,-1
 208 307 l 1,6,-1
 23 689 l 1,7,-1
 131 689 l 1,8,-1
 266 370 l 1,9,-1
 402 689 l 1,10,-1
 504 689 l 1,11,-1
 321 312 l 1,0,-1
EndSplineSet
Substitution2: "'c2sc' Capitals to Small Capitals lookup 26 subtable" uniAB53.sc
Substitution2: "'aalt' Access All Alternates lookup 0 subtable" uniAB53.sc
Position2: "'cpsp' Capital Spacing lookup 0 subtable" dx=5 dy=0 dh=10 dv=0
EndChar

StartChar: uni0187
Encoding: 391 391 53
Width: 560
GlyphClass: 2
Flags: W
AnchorPoint: "Anchor-18" 0 0 basechar 0
AnchorPoint: "Anchor-17" 0 0 basechar 0
AnchorPoint: "Anchor-16" 280 689 basechar 0
AnchorPoint: "Anchor-15" 0 0 basechar 0
AnchorPoint: "Anchor-14" 280 0 basechar 0
LayerCount: 2
Fore
SplineSet
706 794 m 1,1,-1
 670 735 l 1,2,3
 650 747 650 747 634.5 752.5 c 128,-1,4
 619 758 619 758 596 758 c 0,5,6
 532 758 532 758 532 684 c 2,7,-1
 532 633 l 1,8,-1
 488 581 l 1,9,10
 416 623 416 623 347 623 c 0,11,12
 261 623 261 623 208.5 557 c 128,-1,13
 156 491 156 491 156 345 c 0,14,15
 156 203 156 203 208 135.5 c 128,-1,16
 260 68 260 68 346 68 c 0,17,18
 390 68 390 68 422 83 c 128,-1,19
 454 98 454 98 492 126 c 1,20,-1
 540 65 l 1,21,22
 509 32 509 32 458.5 10 c 128,-1,23
 408 -12 408 -12 343 -12 c 0,24,25
 259 -12 259 -12 193.5 29.5 c 128,-1,26
 128 71 128 71 91.5 151.5 c 128,-1,27
 55 232 55 232 55 345 c 256,28,29
 55 458 55 458 93 538.5 c 128,-1,30
 131 619 131 619 196 660 c 128,-1,31
 261 701 261 701 341 701 c 0,32,33
 396 701 396 701 440 683 c 1,34,35
 441 754 441 754 480.5 793 c 128,-1,36
 520 832 520 832 591 832 c 0,37,0
 656 832 656 832 706 794 c 1,1,-1
EndSplineSet
Substitution2: "'c2sc' Capitals to Small Capitals lookup 26 subtable" uni0188.sc
Substitution2: "'aalt' Access All Alternates lookup 0 subtable" uni0188.sc
Position2: "'cpsp' Capital Spacing lookup 0 subtable" dx=5 dy=0 dh=10 dv=0
EndChar

StartChar: uni023B
Encoding: 571 571 54
Width: 560
GlyphClass: 2
Flags: W
AnchorPoint: "Anchor-18" 341 346 basechar 0
AnchorPoint: "Anchor-17" 0 0 basechar 0
AnchorPoint: "Anchor-16" 280 689 basechar 0
AnchorPoint: "Anchor-15" 0 0 basechar 0
AnchorPoint: "Anchor-14" 280 0 basechar 0
LayerCount: 2
Fore
SplineSet
540 65 m 1,0,1
 508 32 508 32 458 10 c 128,-1,2
 408 -12 408 -12 343 -12 c 0,3,4
 303 -12 303 -12 267 -3 c 1,5,-1
 249 -70 l 1,6,-1
 204 -59 l 1,7,-1
 223 13 l 1,8,9
 144 49 144 49 99.5 134 c 128,-1,10
 55 219 55 219 55 345 c 0,11,12
 55 458 55 458 93 538.5 c 128,-1,13
 131 619 131 619 196 660 c 128,-1,14
 261 701 261 701 341 701 c 0,15,16
 373 701 373 701 405 696 c 1,17,-1
 419 750 l 1,18,-1
 464 739 l 1,19,-1
 449 683 l 1,20,21
 488 669 488 669 532 633 c 1,22,-1
 480 572 l 1,23,24
 454 593 454 593 428 605 c 1,25,-1
 288 77 l 1,26,27
 315 68 315 68 346 68 c 0,28,29
 390 68 390 68 423 83 c 128,-1,30
 456 98 456 98 493 125 c 1,31,-1
 540 65 l 1,0,1
246 98 m 1,33,-1
 384 620 l 1,34,35
 366 623 366 623 347 623 c 0,36,37
 261 623 261 623 208.5 557 c 128,-1,38
 156 491 156 491 156 345 c 0,39,32
 156 162 156 162 246 98 c 1,33,-1
EndSplineSet
Substitution2: "'c2sc' Capitals to Small Capitals lookup 26 subtable" uni023C.sc
Substitution2: "'aalt' Access All Alternates lookup 0 subtable" uni023C.sc
Position2: "'cpsp' Capital Spacing lookup 0 subtable" dx=5 dy=0 dh=10 dv=0
EndChar

StartChar: D
Encoding: 68 68 55
Width: 644
GlyphClass: 2
Flags: W
AnchorPoint: "Anchor-18" 323 345 basechar 0
AnchorPoint: "Anchor-17" 0 0 basechar 0
AnchorPoint: "Anchor-16" 303 689 basechar 0
AnchorPoint: "Anchor-15" 0 0 basechar 0
AnchorPoint: "Anchor-14" 300 0 basechar 0
LayerCount: 2
Fore
SplineSet
494.5 616.5 m 128,-1,1
 589 544 589 544 589 348 c 0,2,3
 589 157 589 157 494.5 78.5 c 128,-1,4
 400 0 400 0 265 0 c 2,5,-1
 100 0 l 1,6,-1
 100 689 l 1,7,-1
 244 689 l 2,8,0
 400 689 400 689 494.5 616.5 c 128,-1,1
195 613 m 1,9,-1
 195 75 l 1,10,-1
 272 75 l 2,11,12
 368 75 368 75 428 134 c 128,-1,13
 488 193 488 193 488 348 c 0,14,15
 488 457 488 457 457 515.5 c 128,-1,16
 426 574 426 574 378 593.5 c 128,-1,17
 330 613 330 613 265 613 c 2,18,-1
 195 613 l 1,9,-1
EndSplineSet
Substitution2: "'c2sc' Capitals to Small Capitals lookup 26 subtable" d.sc
Substitution2: "'aalt' Access All Alternates lookup 0 subtable" d.sc
Position2: "'cpsp' Capital Spacing lookup 0 subtable" dx=5 dy=0 dh=10 dv=0
EndChar

StartChar: Eth
Encoding: 208 208 59
Width: 656
GlyphClass: 2
Flags: W
AnchorPoint: "Anchor-18" 335 345 basechar 0
AnchorPoint: "Anchor-17" 0 0 basechar 0
AnchorPoint: "Anchor-16" 315 689 basechar 0
AnchorPoint: "Anchor-15" 0 0 basechar 0
AnchorPoint: "Anchor-14" 312 0 basechar 0
LayerCount: 2
Fore
SplineSet
506.5 616.5 m 128,-1,1
 601 544 601 544 601 348 c 0,2,3
 601 157 601 157 506.5 78.5 c 128,-1,4
 412 0 412 0 277 0 c 2,5,-1
 112 0 l 1,6,-1
 112 318 l 1,7,-1
 20 318 l 1,8,-1
 20 388 l 1,9,-1
 112 388 l 1,10,-1
 112 689 l 1,11,-1
 256 689 l 2,12,0
 412 689 412 689 506.5 616.5 c 128,-1,1
440 134 m 128,-1,14
 500 193 500 193 500 348 c 0,15,16
 500 457 500 457 469 515.5 c 128,-1,17
 438 574 438 574 390 593.5 c 128,-1,18
 342 613 342 613 277 613 c 2,19,-1
 207 613 l 1,20,-1
 207 388 l 1,21,-1
 364 388 l 1,22,-1
 364 318 l 1,23,-1
 207 318 l 1,24,-1
 207 75 l 1,25,-1
 284 75 l 2,26,13
 380 75 380 75 440 134 c 128,-1,14
EndSplineSet
Substitution2: "'c2sc' Capitals to Small Capitals lookup 26 subtable" eth.sc
Substitution2: "'aalt' Access All Alternates lookup 0 subtable" eth.sc
Position2: "'cpsp' Capital Spacing lookup 0 subtable" dx=5 dy=0 dh=10 dv=0
EndChar

StartChar: uni018A
Encoding: 394 394 65
Width: 727
GlyphClass: 2
Flags: W
AnchorPoint: "Anchor-18" 406 345 basechar 0
AnchorPoint: "Anchor-17" 0 0 basechar 0
AnchorPoint: "Anchor-16" 386 689 basechar 0
AnchorPoint: "Anchor-15" 0 0 basechar 0
AnchorPoint: "Anchor-14" 383 0 basechar 0
LayerCount: 2
Fore
SplineSet
577.5 616.5 m 128,-1,1
 672 544 672 544 672 348 c 0,2,3
 672 157 672 157 577.5 78.5 c 128,-1,4
 483 0 483 0 348 0 c 2,5,-1
 183 0 l 1,6,-1
 183 614 l 1,7,-1
 151 614 l 2,8,9
 97 614 97 614 97 564 c 0,10,11
 97 547 97 547 101.5 530.5 c 128,-1,12
 106 514 106 514 115 491 c 1,13,-1
 51 459 l 1,14,15
 32 487 32 487 21 512 c 128,-1,16
 10 537 10 537 10 567 c 0,17,18
 10 622 10 622 48 655.5 c 128,-1,19
 86 689 86 689 156 689 c 2,20,-1
 327 689 l 2,21,0
 483 689 483 689 577.5 616.5 c 128,-1,1
511 134 m 128,-1,23
 571 193 571 193 571 348 c 0,24,25
 571 457 571 457 540 515.5 c 128,-1,26
 509 574 509 574 461 593.5 c 128,-1,27
 413 613 413 613 348 613 c 2,28,-1
 278 613 l 1,29,-1
 278 75 l 1,30,-1
 355 75 l 2,31,22
 451 75 451 75 511 134 c 128,-1,23
EndSplineSet
Substitution2: "'c2sc' Capitals to Small Capitals lookup 26 subtable" uni0257.sc
Substitution2: "'aalt' Access All Alternates lookup 0 subtable" uni0257.sc
Position2: "'cpsp' Capital Spacing lookup 0 subtable" dx=5 dy=0 dh=10 dv=0
EndChar

StartChar: uni018B
Encoding: 395 395 67
Width: 579
GlyphClass: 2
Flags: W
AnchorPoint: "Anchor-18" 0 0 basechar 0
AnchorPoint: "Anchor-17" 0 0 basechar 0
AnchorPoint: "Anchor-16" 290 689 basechar 0
AnchorPoint: "Anchor-15" 0 0 basechar 0
AnchorPoint: "Anchor-14" 290 0 basechar 0
LayerCount: 2
Fore
SplineSet
479 0 m 1,0,-1
 287 0 l 2,1,2
 169 0 169 0 99.5 51 c 128,-1,3
 30 102 30 102 30 212 c 0,4,5
 30 318 30 318 100 374 c 128,-1,6
 170 430 170 430 293 430 c 2,7,-1
 384 430 l 1,8,-1
 384 611 l 1,9,-1
 109 611 l 1,10,-1
 109 689 l 1,11,-1
 479 689 l 1,12,-1
 479 0 l 1,0,-1
384 76 m 1,13,-1
 384 356 l 1,14,-1
 292 356 l 2,15,16
 213 356 213 356 172 322 c 128,-1,17
 131 288 131 288 131 212 c 0,18,19
 131 134 131 134 171.5 105 c 128,-1,20
 212 76 212 76 289 76 c 2,21,-1
 384 76 l 1,13,-1
EndSplineSet
Substitution2: "'c2sc' Capitals to Small Capitals lookup 26 subtable" uni018C.sc
Substitution2: "'aalt' Access All Alternates lookup 0 subtable" uni018C.sc
Position2: "'cpsp' Capital Spacing lookup 0 subtable" dx=5 dy=0 dh=10 dv=0
EndChar

StartChar: E
Encoding: 69 69 70
Width: 535
GlyphClass: 2
Flags: W
AnchorPoint: "Anchor-18" 0 0 basechar 0
AnchorPoint: "Anchor-17" 0 0 basechar 0
AnchorPoint: "Anchor-16" 290 689 basechar 0
AnchorPoint: "Anchor-15" 451 0 basechar 0
AnchorPoint: "Anchor-14" 291 0 basechar 0
LayerCount: 2
Fore
SplineSet
473 689 m 1,0,-1
 462 613 l 1,1,-1
 195 613 l 1,2,-1
 195 388 l 1,3,-1
 427 388 l 1,4,-1
 427 312 l 1,5,-1
 195 312 l 1,6,-1
 195 76 l 1,7,-1
 481 76 l 1,8,-1
 481 0 l 1,9,-1
 100 0 l 1,10,-1
 100 689 l 1,11,-1
 473 689 l 1,0,-1
EndSplineSet
Substitution2: "'c2sc' Capitals to Small Capitals lookup 26 subtable" e.sc
Substitution2: "'aalt' Access All Alternates lookup 0 subtable" e.sc
Position2: "'cpsp' Capital Spacing lookup 0 subtable" dx=5 dy=0 dh=10 dv=0
EndChar

StartChar: uni0228
Encoding: 552 552 74
Width: 535
GlyphClass: 2
Flags: W
AnchorPoint: "Anchor-18" 0 0 basechar 0
AnchorPoint: "Anchor-17" 0 0 basechar 0
AnchorPoint: "Anchor-16" 290 689 basechar 0
AnchorPoint: "Anchor-15" 451 0 basechar 0
AnchorPoint: "Anchor-14" 291 0 basechar 0
LayerCount: 2
Fore
SplineSet
321 0 m 1,0,-1
 321 -56 l 1,1,2
 369 -60 369 -60 391.5 -83.5 c 128,-1,3
 414 -107 414 -107 414 -141 c 0,4,5
 414 -189 414 -189 379 -215 c 128,-1,6
 344 -241 344 -241 290 -241 c 0,7,8
 262 -241 262 -241 238 -234.5 c 128,-1,9
 214 -228 214 -228 199 -217 c 1,10,-1
 224 -165 l 1,11,12
 254 -181 254 -181 287 -181 c 0,13,14
 310 -181 310 -181 323.5 -171.5 c 128,-1,15
 337 -162 337 -162 337 -141 c 256,16,17
 337 -120 337 -120 316 -109.5 c 128,-1,18
 295 -99 295 -99 248 -99 c 1,19,-1
 260 0 l 1,20,-1
 100 0 l 1,21,-1
 100 689 l 1,22,-1
 473 689 l 1,23,-1
 462 613 l 1,24,-1
 195 613 l 1,25,-1
 195 388 l 1,26,-1
 427 388 l 1,27,-1
 427 312 l 1,28,-1
 195 312 l 1,29,-1
 195 76 l 1,30,-1
 481 76 l 1,31,-1
 481 0 l 1,32,-1
 321 0 l 1,0,-1
EndSplineSet
Substitution2: "'c2sc' Capitals to Small Capitals lookup 26 subtable" uni0229.sc
Substitution2: "'aalt' Access All Alternates lookup 0 subtable" uni0229.sc
Position2: "'cpsp' Capital Spacing lookup 0 subtable" dx=5 dy=0 dh=10 dv=0
EndChar

StartChar: Eogonek
Encoding: 280 280 89
Width: 535
GlyphClass: 2
Flags: W
AnchorPoint: "Anchor-18" 0 0 basechar 0
AnchorPoint: "Anchor-17" 0 0 basechar 0
AnchorPoint: "Anchor-16" 290 689 basechar 0
AnchorPoint: "Anchor-15" 451 0 basechar 0
AnchorPoint: "Anchor-14" 291 0 basechar 0
LayerCount: 2
Fore
SplineSet
481 76 m 1,0,-1
 481 0 l 1,1,-1
 441 0 l 1,2,3
 370 -31 370 -31 344 -57.5 c 128,-1,4
 318 -84 318 -84 318 -114 c 0,5,6
 318 -162 318 -162 374 -162 c 0,7,8
 401 -162 401 -162 435 -155 c 1,9,-1
 426 -225 l 1,10,11
 391 -232 391 -232 363 -232 c 0,12,13
 306 -232 306 -232 272 -203.5 c 128,-1,14
 238 -175 238 -175 238 -131 c 0,15,16
 238 -90 238 -90 263 -58 c 128,-1,17
 288 -26 288 -26 339 0 c 1,18,-1
 100 0 l 1,19,-1
 100 689 l 1,20,-1
 473 689 l 1,21,-1
 462 613 l 1,22,-1
 195 613 l 1,23,-1
 195 388 l 1,24,-1
 427 388 l 1,25,-1
 427 312 l 1,26,-1
 195 312 l 1,27,-1
 195 76 l 1,28,-1
 481 76 l 1,0,-1
EndSplineSet
Substitution2: "'c2sc' Capitals to Small Capitals lookup 26 subtable" eogonek.sc
Substitution2: "'aalt' Access All Alternates lookup 0 subtable" eogonek.sc
Position2: "'cpsp' Capital Spacing lookup 0 subtable" dx=5 dy=0 dh=10 dv=0
EndChar

StartChar: uni0190
Encoding: 400 400 90
Width: 521
GlyphClass: 2
Flags: W
AnchorPoint: "Anchor-18" 0 0 basechar 0
AnchorPoint: "Anchor-17" 0 0 basechar 0
AnchorPoint: "Anchor-16" 261 689 basechar 0
AnchorPoint: "Anchor-15" 0 0 basechar 0
AnchorPoint: "Anchor-14" 261 0 basechar 0
LayerCount: 2
Fore
SplineSet
494 616 m 1,1,-1
 442 559 l 1,2,3
 370 623 370 623 286 623 c 0,4,5
 226 623 226 623 196.5 593.5 c 128,-1,6
 167 564 167 564 167 517 c 0,7,8
 167 464 167 464 202.5 433.5 c 128,-1,9
 238 403 238 403 298 403 c 2,10,-1
 364 403 l 1,11,-1
 351 325 l 1,12,-1
 299 325 l 2,13,14
 224 325 224 325 185.5 292.5 c 128,-1,15
 147 260 147 260 147 199 c 256,16,17
 147 138 147 138 186 103 c 128,-1,18
 225 68 225 68 296 68 c 0,19,20
 391 68 391 68 455 135 c 1,21,-1
 511 81 l 1,22,23
 469 35 469 35 412.5 11.5 c 128,-1,24
 356 -12 356 -12 291 -12 c 0,25,26
 220 -12 220 -12 164 14.5 c 128,-1,27
 108 41 108 41 76.5 88.5 c 128,-1,28
 45 136 45 136 45 198 c 0,29,30
 45 274 45 274 90 318 c 128,-1,31
 135 362 135 362 203 369 c 1,32,33
 140 383 140 383 104 422.5 c 128,-1,34
 68 462 68 462 68 525 c 0,35,36
 68 575 68 575 92.5 615 c 128,-1,37
 117 655 117 655 164.5 678 c 128,-1,38
 212 701 212 701 279 701 c 0,39,0
 403 701 403 701 494 616 c 1,1,-1
EndSplineSet
Substitution2: "'c2sc' Capitals to Small Capitals lookup 26 subtable" uni025B.sc
Substitution2: "'aalt' Access All Alternates lookup 0 subtable" uni025B.sc
Position2: "'cpsp' Capital Spacing lookup 0 subtable" dx=5 dy=0 dh=10 dv=0
EndChar

StartChar: uni018E
Encoding: 398 398 91
Width: 535
GlyphClass: 2
Flags: W
AnchorPoint: "Anchor-18" 0 0 basechar 0
AnchorPoint: "Anchor-17" 0 0 basechar 0
AnchorPoint: "Anchor-16" 235 689 basechar 0
AnchorPoint: "Anchor-15" 0 0 basechar 0
AnchorPoint: "Anchor-14" 233 0 basechar 0
LayerCount: 2
Fore
SplineSet
60 689 m 1,0,-1
 435 689 l 1,1,-1
 435 0 l 1,2,-1
 54 0 l 1,3,-1
 54 76 l 1,4,-1
 340 76 l 1,5,-1
 340 312 l 1,6,-1
 108 312 l 1,7,-1
 108 388 l 1,8,-1
 340 388 l 1,9,-1
 340 613 l 1,10,-1
 60 613 l 1,11,-1
 60 689 l 1,0,-1
EndSplineSet
Substitution2: "'c2sc' Capitals to Small Capitals lookup 26 subtable" uni0258.sc
Substitution2: "'aalt' Access All Alternates lookup 0 subtable" uni0258.sc
Position2: "'cpsp' Capital Spacing lookup 0 subtable" dx=5 dy=0 dh=10 dv=0
EndChar

StartChar: uni0246
Encoding: 582 582 93
Width: 535
GlyphClass: 2
Flags: W
AnchorPoint: "Anchor-18" 0 0 basechar 0
AnchorPoint: "Anchor-17" 0 0 basechar 0
AnchorPoint: "Anchor-16" 268 689 basechar 0
AnchorPoint: "Anchor-15" 451 0 basechar 0
AnchorPoint: "Anchor-14" 268 0 basechar 0
LayerCount: 2
Fore
SplineSet
481 76 m 1,0,-1
 481 0 l 1,1,-1
 233 0 l 1,2,-1
 214 -70 l 1,3,-1
 169 -59 l 1,4,-1
 185 0 l 1,5,-1
 100 0 l 1,6,-1
 100 689 l 1,7,-1
 368 689 l 1,8,-1
 384 750 l 1,9,-1
 429 739 l 1,10,-1
 416 689 l 1,11,-1
 473 689 l 1,12,-1
 462 613 l 1,13,-1
 396 613 l 1,14,-1
 336 388 l 1,15,-1
 427 388 l 1,16,-1
 427 312 l 1,17,-1
 316 312 l 1,18,-1
 253 76 l 1,19,-1
 481 76 l 1,0,-1
195 613 m 1,20,-1
 195 388 l 1,21,-1
 288 388 l 1,22,-1
 348 613 l 1,23,-1
 195 613 l 1,20,-1
195 76 m 1,24,-1
 205 76 l 1,25,-1
 268 312 l 1,26,-1
 195 312 l 1,27,-1
 195 76 l 1,24,-1
EndSplineSet
Substitution2: "'c2sc' Capitals to Small Capitals lookup 26 subtable" uni0247.sc
Substitution2: "'aalt' Access All Alternates lookup 0 subtable" uni0247.sc
Position2: "'cpsp' Capital Spacing lookup 0 subtable" dx=5 dy=0 dh=10 dv=0
EndChar

StartChar: uni01B7
Encoding: 439 439 95
Width: 516
GlyphClass: 2
Flags: W
AnchorPoint: "Anchor-18" 0 0 basechar 0
AnchorPoint: "Anchor-17" 0 0 basechar 0
AnchorPoint: "Anchor-16" 244 689 basechar 0
AnchorPoint: "Anchor-15" 0 0 basechar 0
AnchorPoint: "Anchor-14" 258 0 basechar 0
LayerCount: 2
Fore
SplineSet
411.5 345 m 128,-1,1
 471 293 471 293 471 198 c 0,2,3
 471 137 471 137 441.5 89 c 128,-1,4
 412 41 412 41 356.5 14.5 c 128,-1,5
 301 -12 301 -12 226 -12 c 0,6,7
 154 -12 154 -12 101.5 10 c 128,-1,8
 49 32 49 32 10 78 c 1,9,-1
 65 132 l 1,10,11
 97 97 97 97 134.5 81.5 c 128,-1,12
 172 66 172 66 223 66 c 0,13,14
 295 66 295 66 333.5 101.5 c 128,-1,15
 372 137 372 137 372 200 c 0,16,17
 372 268 372 268 334 298 c 128,-1,18
 296 328 296 328 215 328 c 2,19,-1
 127 328 l 1,20,-1
 127 395 l 1,21,-1
 335 611 l 1,22,-1
 41 611 l 1,23,-1
 41 689 l 1,24,-1
 447 689 l 1,25,-1
 447 612 l 1,26,-1
 234 397 l 1,27,-1
 235 397 l 2,28,0
 352 397 352 397 411.5 345 c 128,-1,1
EndSplineSet
Substitution2: "'c2sc' Capitals to Small Capitals lookup 26 subtable" uni0292.sc
Substitution2: "'aalt' Access All Alternates lookup 0 subtable" uni0292.sc
Position2: "'cpsp' Capital Spacing lookup 0 subtable" dx=5 dy=0 dh=10 dv=0
EndChar

StartChar: uni01B8
Encoding: 440 440 97
Width: 516
GlyphClass: 2
Flags: W
AnchorPoint: "Anchor-18" 0 0 basechar 0
AnchorPoint: "Anchor-17" 0 0 basechar 0
AnchorPoint: "Anchor-16" 258 689 basechar 0
AnchorPoint: "Anchor-15" 0 0 basechar 0
AnchorPoint: "Anchor-14" 258 0 basechar 0
LayerCount: 2
Fore
SplineSet
506 78 m 1,0,1
 467 32 467 32 413.5 10 c 128,-1,2
 360 -12 360 -12 283 -12 c 0,3,4
 213 -12 213 -12 158.5 14 c 128,-1,5
 104 40 104 40 74.5 86 c 128,-1,6
 45 132 45 132 45 191 c 0,7,8
 45 284 45 284 106.5 340.5 c 128,-1,9
 168 397 168 397 281 397 c 2,10,-1
 282 397 l 1,11,-1
 69 612 l 1,12,-1
 69 689 l 1,13,-1
 475 689 l 1,14,-1
 475 611 l 1,15,-1
 181 611 l 1,16,-1
 389 395 l 1,17,-1
 389 328 l 1,18,-1
 301 328 l 2,19,20
 144 328 144 328 144 193 c 0,21,22
 144 135 144 135 181.5 100.5 c 128,-1,23
 219 66 219 66 286 66 c 0,24,25
 342 66 342 66 380 81.5 c 128,-1,26
 418 97 418 97 451 132 c 1,27,-1
 506 78 l 1,0,1
EndSplineSet
Substitution2: "'c2sc' Capitals to Small Capitals lookup 26 subtable" uni01B9.sc
Substitution2: "'aalt' Access All Alternates lookup 0 subtable" uni01B9.sc
Position2: "'cpsp' Capital Spacing lookup 0 subtable" dx=5 dy=0 dh=10 dv=0
EndChar

StartChar: F
Encoding: 70 70 98
Width: 491
GlyphClass: 2
Flags: W
AnchorPoint: "Anchor-18" 0 0 basechar 0
AnchorPoint: "Anchor-17" 0 0 basechar 0
AnchorPoint: "Anchor-16" 293 689 basechar 0
AnchorPoint: "Anchor-15" 0 0 basechar 0
AnchorPoint: "Anchor-14" 148 0 basechar 0
LayerCount: 2
Fore
SplineSet
100 0 m 1,0,-1
 100 689 l 1,1,-1
 466 689 l 1,2,-1
 455 613 l 1,3,-1
 195 613 l 1,4,-1
 195 378 l 1,5,-1
 420 378 l 1,6,-1
 420 303 l 1,7,-1
 195 303 l 1,8,-1
 195 0 l 1,9,-1
 100 0 l 1,0,-1
EndSplineSet
Substitution2: "'c2sc' Capitals to Small Capitals lookup 26 subtable" f.sc
Substitution2: "'aalt' Access All Alternates lookup 0 subtable" f.sc
Position2: "'cpsp' Capital Spacing lookup 0 subtable" dx=5 dy=0 dh=10 dv=0
EndChar

StartChar: uni0191
Encoding: 401 401 100
Width: 491
GlyphClass: 2
Flags: W
AnchorPoint: "Anchor-18" 0 0 basechar 0
AnchorPoint: "Anchor-17" 0 0 basechar 0
AnchorPoint: "Anchor-16" 293 689 basechar 0
AnchorPoint: "Anchor-15" 0 0 basechar 0
AnchorPoint: "Anchor-14" 148 0 basechar 0
LayerCount: 2
Fore
SplineSet
195 613 m 1,0,-1
 195 378 l 1,1,-1
 420 378 l 1,2,-1
 420 303 l 1,3,-1
 195 303 l 1,4,-1
 195 -57 l 2,5,6
 195 -133 195 -133 155 -173 c 128,-1,7
 115 -213 115 -213 44 -213 c 0,8,9
 -21 -213 -21 -213 -71 -175 c 1,10,-1
 -34 -115 l 1,11,12
 -15 -126 -15 -126 0.5 -131.5 c 128,-1,13
 16 -137 16 -137 39 -137 c 0,14,15
 100 -137 100 -137 100 -63 c 2,16,-1
 100 689 l 1,17,-1
 466 689 l 1,18,-1
 455 613 l 1,19,-1
 195 613 l 1,0,-1
EndSplineSet
Substitution2: "'c2sc' Capitals to Small Capitals lookup 26 subtable" uni0191.sc
Substitution2: "'aalt' Access All Alternates lookup 0 subtable" uni0191.sc
Position2: "'cpsp' Capital Spacing lookup 0 subtable" dx=5 dy=0 dh=10 dv=0
EndChar

StartChar: G
Encoding: 71 71 101
Width: 631
GlyphClass: 2
Flags: W
AnchorPoint: "Anchor-18" 0 0 basechar 0
AnchorPoint: "Anchor-17" 0 0 basechar 0
AnchorPoint: "Anchor-16" 355 689 basechar 0
AnchorPoint: "Anchor-15" 0 0 basechar 0
AnchorPoint: "Anchor-14" 343 0 basechar 0
LayerCount: 2
Fore
SplineSet
466.5 682.5 m 128,-1,1
 514 664 514 664 561 625 c 1,2,-1
 505 567 l 1,3,4
 468 597 468 597 434 610 c 128,-1,5
 400 623 400 623 354 623 c 0,6,7
 301 623 301 623 256.5 594.5 c 128,-1,8
 212 566 212 566 184 503.5 c 128,-1,9
 156 441 156 441 156 345 c 0,10,11
 156 200 156 200 203.5 133 c 128,-1,12
 251 66 251 66 344 66 c 0,13,14
 420 66 420 66 475 97 c 1,15,-1
 475 305 l 1,16,-1
 353 305 l 1,17,-1
 342 382 l 1,18,-1
 569 382 l 1,19,-1
 569 49 l 1,20,21
 462 -12 462 -12 344 -12 c 0,22,23
 208 -12 208 -12 131.5 79 c 128,-1,24
 55 170 55 170 55 345 c 0,25,26
 55 457 55 457 95.5 537.5 c 128,-1,27
 136 618 136 618 204.5 659.5 c 128,-1,28
 273 701 273 701 354 701 c 0,29,0
 419 701 419 701 466.5 682.5 c 128,-1,1
EndSplineSet
Substitution2: "'c2sc' Capitals to Small Capitals lookup 26 subtable" g.sc
Substitution2: "'aalt' Access All Alternates lookup 0 subtable" g.sc
Position2: "'cpsp' Capital Spacing lookup 0 subtable" dx=5 dy=0 dh=10 dv=0
EndChar

StartChar: uni0194
Encoding: 404 404 103
Width: 554
GlyphClass: 2
Flags: W
AnchorPoint: "Anchor-18" 0 0 basechar 0
AnchorPoint: "Anchor-17" 0 0 basechar 0
AnchorPoint: "Anchor-16" 277 689 basechar 0
AnchorPoint: "Anchor-15" 0 0 basechar 0
AnchorPoint: "Anchor-14" 277 -202 basechar 0
LayerCount: 2
Fore
SplineSet
335 69 m 1,0,1
 370 4 370 4 384 -33.5 c 128,-1,2
 398 -71 398 -71 398 -111 c 0,3,4
 398 -160 398 -160 367.5 -186.5 c 128,-1,5
 337 -213 337 -213 278 -213 c 256,6,7
 219 -213 219 -213 188.5 -186.5 c 128,-1,8
 158 -160 158 -160 158 -112 c 0,9,10
 158 -78 158 -78 172.5 -39 c 128,-1,11
 187 0 187 0 221 69 c 1,12,-1
 6 689 l 1,13,-1
 108 689 l 1,14,-1
 279 135 l 1,15,-1
 452 689 l 1,16,-1
 548 689 l 1,17,-1
 335 69 l 1,0,1
278 7 m 1,19,20
 246 -69 246 -69 246 -104 c 0,21,22
 246 -140 246 -140 278 -140 c 256,23,24
 310 -140 310 -140 310 -104 c 0,25,18
 310 -69 310 -69 278 7 c 1,19,20
EndSplineSet
Substitution2: "'c2sc' Capitals to Small Capitals lookup 26 subtable" uni0194.sc
Substitution2: "'aalt' Access All Alternates lookup 0 subtable" uni0194.sc
Position2: "'cpsp' Capital Spacing lookup 0 subtable" dx=5 dy=0 dh=10 dv=0
EndChar

StartChar: uni0193
Encoding: 403 403 109
Width: 589
GlyphClass: 2
Flags: W
AnchorPoint: "Anchor-18" 0 0 basechar 0
AnchorPoint: "Anchor-17" 0 0 basechar 0
AnchorPoint: "Anchor-16" 295 689 basechar 0
AnchorPoint: "Anchor-15" 0 0 basechar 0
AnchorPoint: "Anchor-14" 295 0 basechar 0
LayerCount: 2
Fore
SplineSet
735 794 m 1,1,-1
 699 735 l 1,2,3
 679 747 679 747 663.5 752.5 c 128,-1,4
 648 758 648 758 625 758 c 0,5,6
 561 758 561 758 561 684 c 2,7,-1
 561 625 l 1,8,-1
 512 573 l 1,9,10
 473 598 473 598 435 610.5 c 128,-1,11
 397 623 397 623 354 623 c 0,12,13
 301 623 301 623 256.5 594.5 c 128,-1,14
 212 566 212 566 184 503.5 c 128,-1,15
 156 441 156 441 156 345 c 0,16,17
 156 200 156 200 203.5 133 c 128,-1,18
 251 66 251 66 344 66 c 0,19,20
 421 66 421 66 475 98 c 1,21,-1
 475 305 l 1,22,-1
 353 305 l 1,23,-1
 342 382 l 1,24,-1
 569 382 l 1,25,-1
 569 49 l 1,26,27
 519 19 519 19 462.5 3.5 c 128,-1,28
 406 -12 406 -12 337 -12 c 0,29,30
 206 -12 206 -12 130.5 79 c 128,-1,31
 55 170 55 170 55 345 c 0,32,33
 55 456 55 456 95.5 537 c 128,-1,34
 136 618 136 618 202 659.5 c 128,-1,35
 268 701 268 701 342 701 c 0,36,37
 419 701 419 701 469 674 c 1,38,-1
 469 676 l 2,39,40
 469 751 469 751 508.5 791.5 c 128,-1,41
 548 832 548 832 620 832 c 0,42,0
 685 832 685 832 735 794 c 1,1,-1
EndSplineSet
Substitution2: "'c2sc' Capitals to Small Capitals lookup 26 subtable" uni0260.sc
Substitution2: "'aalt' Access All Alternates lookup 0 subtable" uni0260.sc
Position2: "'cpsp' Capital Spacing lookup 0 subtable" dx=5 dy=0 dh=10 dv=0
EndChar

StartChar: uni0241
Encoding: 577 577 110
Width: 466
GlyphClass: 2
Flags: W
AnchorPoint: "Anchor-18" 0 0 basechar 0
AnchorPoint: "Anchor-17" 0 0 basechar 0
AnchorPoint: "Anchor-16" 233 689 basechar 0
AnchorPoint: "Anchor-15" 0 0 basechar 0
AnchorPoint: "Anchor-14" 198 0 basechar 0
LayerCount: 2
Fore
SplineSet
150 319 m 1,0,-1
 222 338 l 2,1,2
 284 355 284 355 315 388.5 c 128,-1,3
 346 422 346 422 346 487 c 0,4,5
 346 550 346 550 313 586.5 c 128,-1,6
 280 623 280 623 220 623 c 0,7,8
 176 623 176 623 138 607 c 128,-1,9
 100 591 100 591 62 559 c 1,10,-1
 10 616 l 1,11,12
 59 659 59 659 110.5 680 c 128,-1,13
 162 701 162 701 224 701 c 0,14,15
 291 701 291 701 341.5 674.5 c 128,-1,16
 392 648 392 648 419 600.5 c 128,-1,17
 446 553 446 553 446 492 c 0,18,19
 446 397 446 397 397.5 350.5 c 128,-1,20
 349 304 349 304 267 279 c 2,21,-1
 245 273 l 1,22,-1
 245 0 l 1,23,-1
 150 0 l 1,24,-1
 150 319 l 1,0,-1
EndSplineSet
Substitution2: "'c2sc' Capitals to Small Capitals lookup 26 subtable" uni0294.sc
Substitution2: "'aalt' Access All Alternates lookup 0 subtable" uni0294.sc
Position2: "'cpsp' Capital Spacing lookup 0 subtable" dx=5 dy=0 dh=10 dv=0
EndChar

StartChar: uni01E4
Encoding: 484 484 111
Width: 641
GlyphClass: 2
Flags: W
AnchorPoint: "Anchor-18" 0 0 basechar 0
AnchorPoint: "Anchor-17" 0 0 basechar 0
AnchorPoint: "Anchor-16" 331 689 basechar 0
AnchorPoint: "Anchor-15" 0 0 basechar 0
AnchorPoint: "Anchor-14" 331 0 basechar 0
LayerCount: 2
Fore
SplineSet
636 169 m 1,0,-1
 569 169 l 1,1,-1
 569 49 l 1,2,3
 465 -12 465 -12 342 -12 c 0,4,5
 207 -12 207 -12 131 79 c 128,-1,6
 55 170 55 170 55 345 c 0,7,8
 55 457 55 457 96 537.5 c 128,-1,9
 137 618 137 618 205 659.5 c 128,-1,10
 273 701 273 701 352 701 c 0,11,12
 419 701 419 701 466.5 682.5 c 128,-1,13
 514 664 514 664 561 625 c 1,14,-1
 505 567 l 1,15,16
 468 597 468 597 434 610 c 128,-1,17
 400 623 400 623 354 623 c 0,18,19
 301 623 301 623 256.5 594.5 c 128,-1,20
 212 566 212 566 184 503.5 c 128,-1,21
 156 441 156 441 156 345 c 0,22,23
 156 200 156 200 203.5 133 c 128,-1,24
 251 66 251 66 344 66 c 0,25,26
 418 66 418 66 475 95 c 1,27,-1
 475 169 l 1,28,-1
 353 169 l 1,29,-1
 353 247 l 1,30,-1
 475 247 l 1,31,-1
 475 305 l 1,32,-1
 353 305 l 1,33,-1
 342 382 l 1,34,-1
 569 382 l 1,35,-1
 569 247 l 1,36,-1
 636 247 l 1,37,-1
 636 169 l 1,0,-1
EndSplineSet
Substitution2: "'c2sc' Capitals to Small Capitals lookup 26 subtable" uni01E5.sc
Substitution2: "'aalt' Access All Alternates lookup 0 subtable" uni01E5.sc
Position2: "'cpsp' Capital Spacing lookup 0 subtable" dx=5 dy=0 dh=10 dv=0
EndChar

StartChar: uni021C
Encoding: 540 540 112
Width: 504
GlyphClass: 2
Flags: W
AnchorPoint: "Anchor-18" 0 0 basechar 0
AnchorPoint: "Anchor-17" 0 0 basechar 0
AnchorPoint: "Anchor-16" 252 689 basechar 0
AnchorPoint: "Anchor-15" 0 0 basechar 0
AnchorPoint: "Anchor-14" 252 -202 basechar 0
LayerCount: 2
Fore
SplineSet
382 650 m 128,-1,1
 436 599 436 599 436 519 c 0,2,3
 436 453 436 453 400 413 c 128,-1,4
 364 373 364 373 301 359 c 1,5,6
 370 352 370 352 414.5 311.5 c 128,-1,7
 459 271 459 271 459 196 c 0,8,9
 459 90 459 90 363 12 c 128,-1,10
 267 -66 267 -66 67 -102 c 1,11,-1
 58 -22 l 1,12,13
 225 13 225 13 291 67 c 128,-1,14
 357 121 357 121 357 197 c 0,15,16
 357 315 357 315 205 315 c 2,17,-1
 139 315 l 1,18,-1
 152 393 l 1,19,-1
 206 393 l 2,20,21
 266 393 266 393 301.5 424.5 c 128,-1,22
 337 456 337 456 337 512 c 0,23,24
 337 562 337 562 308 592.5 c 128,-1,25
 279 623 279 623 220 623 c 0,26,27
 138 623 138 623 60 559 c 1,28,-1
 10 616 l 1,29,30
 106 701 106 701 228 701 c 0,31,0
 328 701 328 701 382 650 c 128,-1,1
EndSplineSet
Substitution2: "'c2sc' Capitals to Small Capitals lookup 26 subtable" uni021D.sc
Substitution2: "'aalt' Access All Alternates lookup 0 subtable" uni021D.sc
Position2: "'cpsp' Capital Spacing lookup 0 subtable" dx=5 dy=0 dh=10 dv=0
EndChar

StartChar: H
Encoding: 72 72 113
Width: 680
GlyphClass: 2
Flags: W
AnchorPoint: "Anchor-18" 340 345 basechar 0
AnchorPoint: "Anchor-17" 0 0 basechar 0
AnchorPoint: "Anchor-16" 340 689 basechar 0
AnchorPoint: "Anchor-15" 0 0 basechar 0
AnchorPoint: "Anchor-14" 340 0 basechar 0
LayerCount: 2
Fore
SplineSet
485 0 m 1,0,-1
 485 323 l 1,1,-1
 195 323 l 1,2,-1
 195 0 l 1,3,-1
 100 0 l 1,4,-1
 100 689 l 1,5,-1
 195 689 l 1,6,-1
 195 401 l 1,7,-1
 485 401 l 1,8,-1
 485 689 l 1,9,-1
 580 689 l 1,10,-1
 580 0 l 1,11,-1
 485 0 l 1,0,-1
EndSplineSet
Substitution2: "'c2sc' Capitals to Small Capitals lookup 26 subtable" h.sc
Substitution2: "'aalt' Access All Alternates lookup 0 subtable" h.sc
Position2: "'cpsp' Capital Spacing lookup 0 subtable" dx=5 dy=0 dh=10 dv=0
EndChar

StartChar: Hbar
Encoding: 294 294 114
Width: 688
GlyphClass: 2
Flags: W
AnchorPoint: "Anchor-18" 344 345 basechar 0
AnchorPoint: "Anchor-17" 0 0 basechar 0
AnchorPoint: "Anchor-16" 344 689 basechar 0
AnchorPoint: "Anchor-15" 0 0 basechar 0
AnchorPoint: "Anchor-14" 344 0 basechar 0
LayerCount: 2
Fore
SplineSet
653 577 m 1,0,-1
 653 508 l 1,1,-1
 584 508 l 1,2,-1
 584 0 l 1,3,-1
 489 0 l 1,4,-1
 489 323 l 1,5,-1
 199 323 l 1,6,-1
 199 0 l 1,7,-1
 104 0 l 1,8,-1
 104 508 l 1,9,-1
 35 508 l 1,10,-1
 35 577 l 1,11,-1
 104 577 l 1,12,-1
 104 689 l 1,13,-1
 199 689 l 1,14,-1
 199 577 l 1,15,-1
 489 577 l 1,16,-1
 489 689 l 1,17,-1
 584 689 l 1,18,-1
 584 577 l 1,19,-1
 653 577 l 1,0,-1
489 401 m 1,20,-1
 489 508 l 1,21,-1
 199 508 l 1,22,-1
 199 401 l 1,23,-1
 489 401 l 1,20,-1
EndSplineSet
Substitution2: "'c2sc' Capitals to Small Capitals lookup 26 subtable" hbar.sc
Substitution2: "'aalt' Access All Alternates lookup 0 subtable" hbar.sc
Position2: "'cpsp' Capital Spacing lookup 0 subtable" dx=5 dy=0 dh=10 dv=0
EndChar

StartChar: uniA7AA
Encoding: 42922 42922 118
Width: 763
GlyphClass: 2
Flags: W
AnchorPoint: "Anchor-18" 423 345 basechar 0
AnchorPoint: "Anchor-17" 0 0 basechar 0
AnchorPoint: "Anchor-16" 423 689 basechar 0
AnchorPoint: "Anchor-15" 0 0 basechar 0
AnchorPoint: "Anchor-14" 423 0 basechar 0
LayerCount: 2
Fore
SplineSet
663 689 m 1,0,-1
 663 0 l 1,1,-1
 568 0 l 1,2,-1
 568 323 l 1,3,-1
 278 323 l 1,4,-1
 278 0 l 1,5,-1
 183 0 l 1,6,-1
 183 614 l 1,7,-1
 151 614 l 2,8,9
 97 614 97 614 97 564 c 0,10,11
 97 547 97 547 101.5 530.5 c 128,-1,12
 106 514 106 514 115 491 c 1,13,-1
 51 459 l 1,14,15
 32 487 32 487 21 512 c 128,-1,16
 10 537 10 537 10 567 c 0,17,18
 10 622 10 622 48 655.5 c 128,-1,19
 86 689 86 689 156 689 c 2,20,-1
 278 689 l 1,21,-1
 278 401 l 1,22,-1
 568 401 l 1,23,-1
 568 689 l 1,24,-1
 663 689 l 1,0,-1
EndSplineSet
Substitution2: "'c2sc' Capitals to Small Capitals lookup 26 subtable" uniA7AA.sc
Substitution2: "'aalt' Access All Alternates lookup 0 subtable" uniA7AA.sc
Position2: "'cpsp' Capital Spacing lookup 0 subtable" dx=5 dy=0 dh=10 dv=0
EndChar

StartChar: uniA78D.ss02
Encoding: 65539 -1 120
Width: 601
GlyphClass: 2
Flags: W
AnchorPoint: "Anchor-18" 0 0 basechar 0
AnchorPoint: "Anchor-17" 0 0 basechar 0
AnchorPoint: "Anchor-16" 301 689 basechar 0
AnchorPoint: "Anchor-15" 0 0 basechar 0
AnchorPoint: "Anchor-14" 301 0 basechar 0
LayerCount: 2
Fore
SplineSet
406 0 m 1,0,-1
 406 268 l 1,1,-1
 48 268 l 1,2,-1
 48 689 l 1,3,-1
 143 689 l 1,4,-1
 143 346 l 1,5,-1
 406 346 l 1,6,-1
 406 689 l 1,7,-1
 501 689 l 1,8,-1
 501 0 l 1,9,-1
 406 0 l 1,0,-1
EndSplineSet
Position2: "'cpsp' Capital Spacing lookup 0 subtable" dx=5 dy=0 dh=10 dv=0
EndChar

StartChar: uni01F6
Encoding: 502 502 121
Width: 969
GlyphClass: 2
Flags: W
AnchorPoint: "Anchor-18" 0 0 basechar 0
AnchorPoint: "Anchor-17" 0 0 basechar 0
AnchorPoint: "Anchor-16" 485 689 basechar 0
AnchorPoint: "Anchor-15" 0 0 basechar 0
AnchorPoint: "Anchor-14" 485 0 basechar 0
LayerCount: 2
Fore
SplineSet
899 255 m 0,1,2
 899 165 899 165 865.5 105 c 128,-1,3
 832 45 832 45 779.5 16.5 c 128,-1,4
 727 -12 727 -12 667 -12 c 0,5,6
 617 -12 617 -12 575.5 8.5 c 128,-1,7
 534 29 534 29 509.5 68.5 c 128,-1,8
 485 108 485 108 485 163 c 2,9,-1
 485 323 l 1,10,-1
 195 323 l 1,11,-1
 195 0 l 1,12,-1
 100 0 l 1,13,-1
 100 689 l 1,14,-1
 195 689 l 1,15,-1
 195 401 l 1,16,-1
 485 401 l 1,17,-1
 485 689 l 1,18,-1
 580 689 l 1,19,-1
 580 171 l 2,20,21
 580 116 580 116 603.5 89 c 128,-1,22
 627 62 627 62 671 62 c 0,23,24
 725 62 725 62 765.5 109 c 128,-1,25
 806 156 806 156 806 263 c 0,26,27
 806 392 806 392 780 527 c 1,28,-1
 873 527 l 1,29,0
 899 386 899 386 899 255 c 0,1,2
EndSplineSet
Substitution2: "'c2sc' Capitals to Small Capitals lookup 26 subtable" uni01F6.sc
Substitution2: "'aalt' Access All Alternates lookup 0 subtable" uni01F6.sc
Position2: "'cpsp' Capital Spacing lookup 0 subtable" dx=5 dy=0 dh=10 dv=0
EndChar

StartChar: I
Encoding: 73 73 122
Width: 295
GlyphClass: 2
Flags: W
AnchorPoint: "Anchor-18" 0 0 basechar 0
AnchorPoint: "Anchor-17" 0 0 basechar 0
AnchorPoint: "Anchor-16" 147 689 basechar 0
AnchorPoint: "Anchor-15" 205 0 basechar 0
AnchorPoint: "Anchor-14" 147 0 basechar 0
LayerCount: 2
Fore
SplineSet
195 689 m 1,0,-1
 195 0 l 1,1,-1
 100 0 l 1,2,-1
 100 689 l 1,3,-1
 195 689 l 1,0,-1
EndSplineSet
Substitution2: "'c2sc' Capitals to Small Capitals lookup 26 subtable" i.sc
Substitution2: "'aalt' Access All Alternates lookup 0 subtable" i.sc
Position2: "'cpsp' Capital Spacing lookup 0 subtable" dx=5 dy=0 dh=10 dv=0
EndChar

StartChar: Iogonek
Encoding: 302 302 137
Width: 295
GlyphClass: 2
Flags: W
AnchorPoint: "Anchor-18" 0 0 basechar 0
AnchorPoint: "Anchor-17" 0 0 basechar 0
AnchorPoint: "Anchor-16" 147 689 basechar 0
AnchorPoint: "Anchor-15" 205 0 basechar 0
AnchorPoint: "Anchor-14" 147 0 basechar 0
LayerCount: 2
Fore
SplineSet
98 -57.5 m 128,-1,1
 72 -84 72 -84 72 -114 c 0,2,3
 72 -162 72 -162 128 -162 c 0,4,5
 155 -162 155 -162 189 -155 c 1,6,-1
 180 -225 l 1,7,8
 145 -232 145 -232 117 -232 c 0,9,10
 60 -232 60 -232 26 -203.5 c 128,-1,11
 -8 -175 -8 -175 -8 -131 c 0,12,13
 -8 -47 -8 -47 100 3 c 1,14,-1
 100 689 l 1,15,-1
 195 689 l 1,16,-1
 195 0 l 1,17,0
 124 -31 124 -31 98 -57.5 c 128,-1,1
EndSplineSet
Substitution2: "'c2sc' Capitals to Small Capitals lookup 26 subtable" iogonek.sc
Substitution2: "'aalt' Access All Alternates lookup 0 subtable" iogonek.sc
Position2: "'cpsp' Capital Spacing lookup 0 subtable" dx=5 dy=0 dh=10 dv=0
EndChar

StartChar: uni0196
Encoding: 406 406 138
Width: 366
GlyphClass: 2
Flags: W
AnchorPoint: "Anchor-18" 0 0 basechar 0
AnchorPoint: "Anchor-17" 0 0 basechar 0
AnchorPoint: "Anchor-16" 138 689 basechar 0
AnchorPoint: "Anchor-15" 0 0 basechar 0
AnchorPoint: "Anchor-14" 203 0 basechar 0
LayerCount: 2
Fore
SplineSet
356 26 m 1,0,1
 306 -12 306 -12 241 -12 c 0,2,3
 170 -12 170 -12 130 28 c 128,-1,4
 90 68 90 68 90 144 c 2,5,-1
 90 689 l 1,6,-1
 185 689 l 1,7,-1
 185 138 l 2,8,9
 185 64 185 64 246 64 c 0,10,11
 269 64 269 64 284.5 69.5 c 128,-1,12
 300 75 300 75 319 86 c 1,13,-1
 356 26 l 1,0,1
EndSplineSet
Substitution2: "'c2sc' Capitals to Small Capitals lookup 26 subtable" uni0196.sc
Substitution2: "'aalt' Access All Alternates lookup 0 subtable" uni0196.sc
Position2: "'cpsp' Capital Spacing lookup 0 subtable" dx=5 dy=0 dh=10 dv=0
EndChar

StartChar: uni0197
Encoding: 407 407 139
Width: 313
GlyphClass: 2
Flags: W
AnchorPoint: "Anchor-18" 0 0 basechar 0
AnchorPoint: "Anchor-17" 0 0 basechar 0
AnchorPoint: "Anchor-16" 156 689 basechar 0
AnchorPoint: "Anchor-15" 214 0 basechar 0
AnchorPoint: "Anchor-14" 156 0 basechar 0
LayerCount: 2
Fore
SplineSet
298 396 m 1,0,-1
 298 322 l 1,1,-1
 204 322 l 1,2,-1
 204 0 l 1,3,-1
 109 0 l 1,4,-1
 109 322 l 1,5,-1
 15 322 l 1,6,-1
 15 396 l 1,7,-1
 109 396 l 1,8,-1
 109 689 l 1,9,-1
 204 689 l 1,10,-1
 204 396 l 1,11,-1
 298 396 l 1,0,-1
EndSplineSet
Substitution2: "'c2sc' Capitals to Small Capitals lookup 26 subtable" uni0268.sc
Substitution2: "'aalt' Access All Alternates lookup 0 subtable" uni0268.sc
Position2: "'cpsp' Capital Spacing lookup 0 subtable" dx=5 dy=0 dh=10 dv=0
EndChar

StartChar: J
Encoding: 74 74 141
Width: 305
GlyphClass: 2
Flags: W
AnchorPoint: "Anchor-18" 0 0 basechar 0
AnchorPoint: "Anchor-17" 0 0 basechar 0
AnchorPoint: "Anchor-16" 163 689 basechar 0
AnchorPoint: "Anchor-15" 0 0 basechar 0
AnchorPoint: "Anchor-14" 153 -202 basechar 0
LayerCount: 2
Fore
SplineSet
210 96 m 2,0,1
 210 -6 210 -6 165.5 -57 c 128,-1,2
 121 -108 121 -108 30 -137 c 1,3,-1
 5 -68 l 1,4,5
 51 -50 51 -50 74 -29 c 128,-1,6
 97 -8 97 -8 106 22 c 128,-1,7
 115 52 115 52 115 100 c 2,8,-1
 115 689 l 1,9,-1
 210 689 l 1,10,-1
 210 96 l 2,0,1
EndSplineSet
Substitution2: "'c2sc' Capitals to Small Capitals lookup 26 subtable" j.sc
Substitution2: "'aalt' Access All Alternates lookup 0 subtable" j.sc
Position2: "'cpsp' Capital Spacing lookup 0 subtable" dx=5 dy=0 dh=10 dv=0
EndChar

StartChar: uniA7B2
Encoding: 42930 42930 143
Width: 329
GlyphClass: 2
Flags: W
AnchorPoint: "Anchor-18" 0 0 basechar 0
AnchorPoint: "Anchor-17" 0 0 basechar 0
AnchorPoint: "Anchor-16" 182 689 basechar 0
AnchorPoint: "Anchor-15" 0 0 basechar 0
AnchorPoint: "Anchor-14" 165 -202 basechar 0
LayerCount: 2
Fore
SplineSet
319 -98 m 1,0,1
 312 -95 312 -95 284 -84.5 c 128,-1,2
 256 -74 256 -74 225 -66 c 1,3,4
 213 -140 213 -140 169.5 -176.5 c 128,-1,5
 126 -213 126 -213 53 -213 c 0,6,7
 -13 -213 -13 -213 -49 -183.5 c 128,-1,8
 -85 -154 -85 -154 -85 -104 c 0,9,10
 -85 -48 -85 -48 -43 -17.5 c 128,-1,11
 -1 13 -1 13 77 13 c 0,12,13
 112 13 112 13 134 10 c 1,14,-1
 134 689 l 1,15,-1
 229 689 l 1,16,-1
 229 -9 l 1,17,18
 285 -23 285 -23 341 -48 c 1,19,-1
 319 -98 l 1,0,1
114.5 -125.5 m 128,-1,21
 132 -103 132 -103 134 -50 c 1,22,23
 109 -45 109 -45 78 -45 c 0,24,25
 33 -45 33 -45 12 -59 c 128,-1,26
 -9 -73 -9 -73 -9 -102 c 0,27,28
 -9 -148 -9 -148 53 -148 c 0,29,20
 97 -148 97 -148 114.5 -125.5 c 128,-1,21
EndSplineSet
Substitution2: "'c2sc' Capitals to Small Capitals lookup 26 subtable" uniA7B2.sc
Substitution2: "'aalt' Access All Alternates lookup 0 subtable" uniA7B2.sc
Position2: "'cpsp' Capital Spacing lookup 0 subtable" dx=5 dy=0 dh=10 dv=0
EndChar

StartChar: uni0248
Encoding: 584 584 144
Width: 313
GlyphClass: 2
Flags: W
AnchorPoint: "Anchor-18" 0 0 basechar 0
AnchorPoint: "Anchor-17" 0 0 basechar 0
AnchorPoint: "Anchor-16" 163 689 basechar 0
AnchorPoint: "Anchor-15" 0 0 basechar 0
AnchorPoint: "Anchor-14" 153 -202 basechar 0
LayerCount: 2
Fore
SplineSet
303 304 m 1,0,-1
 210 304 l 1,1,-1
 210 96 l 2,2,3
 210 -6 210 -6 165.5 -57 c 128,-1,4
 121 -108 121 -108 30 -137 c 1,5,-1
 5 -68 l 1,6,7
 51 -50 51 -50 74 -29 c 128,-1,8
 97 -8 97 -8 106 22 c 128,-1,9
 115 52 115 52 115 100 c 2,10,-1
 115 304 l 1,11,-1
 20 304 l 1,12,-1
 20 382 l 1,13,-1
 115 382 l 1,14,-1
 115 689 l 1,15,-1
 210 689 l 1,16,-1
 210 382 l 1,17,-1
 303 382 l 1,18,-1
 303 304 l 1,0,-1
EndSplineSet
Substitution2: "'c2sc' Capitals to Small Capitals lookup 26 subtable" uni0249.sc
Substitution2: "'aalt' Access All Alternates lookup 0 subtable" uni0249.sc
Position2: "'cpsp' Capital Spacing lookup 0 subtable" dx=5 dy=0 dh=10 dv=0
EndChar

StartChar: K
Encoding: 75 75 145
Width: 589
GlyphClass: 2
Flags: W
AnchorPoint: "Anchor-18" 0 0 basechar 0
AnchorPoint: "Anchor-17" 0 0 basechar 0
AnchorPoint: "Anchor-16" 328 689 basechar 0
AnchorPoint: "Anchor-15" 0 0 basechar 0
AnchorPoint: "Anchor-14" 315 0 basechar 0
LayerCount: 2
Fore
SplineSet
195 689 m 1,0,-1
 195 0 l 1,1,-1
 100 0 l 1,2,-1
 100 689 l 1,3,-1
 195 689 l 1,0,-1
570 689 m 1,4,-1
 309 374 l 1,5,-1
 589 0 l 1,6,-1
 472 0 l 1,7,-1
 200 368 l 1,8,-1
 462 689 l 1,9,-1
 570 689 l 1,4,-1
EndSplineSet
Substitution2: "'c2sc' Capitals to Small Capitals lookup 26 subtable" k.sc
Substitution2: "'aalt' Access All Alternates lookup 0 subtable" k.sc
Position2: "'cpsp' Capital Spacing lookup 0 subtable" dx=5 dy=0 dh=10 dv=0
EndChar

StartChar: uni0198
Encoding: 408 408 148
Width: 617
GlyphClass: 2
Flags: W
AnchorPoint: "Anchor-18" 0 0 basechar 0
AnchorPoint: "Anchor-17" 0 0 basechar 0
AnchorPoint: "Anchor-16" 309 689 basechar 0
AnchorPoint: "Anchor-15" 0 0 basechar 0
AnchorPoint: "Anchor-14" 309 0 basechar 0
LayerCount: 2
Fore
SplineSet
200 368 m 1,0,-1
 369 610 l 2,1,2
 403 659 403 659 435.5 680 c 128,-1,3
 468 701 468 701 517 701 c 0,4,5
 549 701 549 701 572.5 692 c 128,-1,6
 596 683 596 683 617 666 c 1,7,-1
 583 605 l 1,8,9
 569 614 569 614 556 619 c 128,-1,10
 543 624 543 624 523 624 c 0,11,12
 498 624 498 624 480 613 c 128,-1,13
 462 602 462 602 438 566 c 2,14,-1
 308 374 l 1,15,-1
 589 0 l 1,16,-1
 472 0 l 1,17,-1
 200 368 l 1,0,-1
195 689 m 1,18,-1
 195 0 l 1,19,-1
 100 0 l 1,20,-1
 100 689 l 1,21,-1
 195 689 l 1,18,-1
EndSplineSet
Substitution2: "'c2sc' Capitals to Small Capitals lookup 26 subtable" uni0199.sc
Substitution2: "'aalt' Access All Alternates lookup 0 subtable" uni0199.sc
Position2: "'cpsp' Capital Spacing lookup 0 subtable" dx=5 dy=0 dh=10 dv=0
EndChar

StartChar: L
Encoding: 76 76 149
Width: 498
GlyphClass: 2
Flags: W
AnchorPoint: "Anchor-18" 390 390 basechar 0
AnchorPoint: "Anchor-17" 215 689 basechar 0
AnchorPoint: "Anchor-16" 148 689 basechar 0
AnchorPoint: "Anchor-15" 0 0 basechar 0
AnchorPoint: "Anchor-14" 284 0 basechar 0
LayerCount: 2
Fore
SplineSet
195 689 m 1,0,-1
 195 83 l 1,1,-1
 478 83 l 1,2,-1
 467 0 l 1,3,-1
 100 0 l 1,4,-1
 100 689 l 1,5,-1
 195 689 l 1,0,-1
EndSplineSet
Substitution2: "'c2sc' Capitals to Small Capitals lookup 26 subtable" l.sc
Substitution2: "'aalt' Access All Alternates lookup 0 subtable" l.sc
Position2: "'cpsp' Capital Spacing lookup 0 subtable" dx=5 dy=0 dh=10 dv=0
EndChar

StartChar: uni023D
Encoding: 573 573 152
Width: 504
GlyphClass: 2
Flags: W
AnchorPoint: "Anchor-18" 396 390 basechar 0
AnchorPoint: "Anchor-17" 221 689 basechar 0
AnchorPoint: "Anchor-16" 154 689 basechar 0
AnchorPoint: "Anchor-15" 0 0 basechar 0
AnchorPoint: "Anchor-14" 290 0 basechar 0
LayerCount: 2
Fore
SplineSet
201 83 m 1,0,-1
 484 83 l 1,1,-1
 473 0 l 1,2,-1
 106 0 l 1,3,-1
 106 324 l 1,4,-1
 15 324 l 1,5,-1
 15 402 l 1,6,-1
 106 402 l 1,7,-1
 106 689 l 1,8,-1
 201 689 l 1,9,-1
 201 402 l 1,10,-1
 298 402 l 1,11,-1
 298 324 l 1,12,-1
 201 324 l 1,13,-1
 201 83 l 1,0,-1
EndSplineSet
Substitution2: "'c2sc' Capitals to Small Capitals lookup 26 subtable" uni019A.sc
Substitution2: "'aalt' Access All Alternates lookup 0 subtable" uni019A.sc
Position2: "'cpsp' Capital Spacing lookup 0 subtable" dx=5 dy=0 dh=10 dv=0
EndChar

StartChar: uniA7AD
Encoding: 42925 42925 153
Width: 551
GlyphClass: 2
Flags: W
AnchorPoint: "Anchor-18" 443 390 basechar 0
AnchorPoint: "Anchor-17" 268 689 basechar 0
AnchorPoint: "Anchor-16" 201 689 basechar 0
AnchorPoint: "Anchor-15" 0 0 basechar 0
AnchorPoint: "Anchor-14" 337 0 basechar 0
LayerCount: 2
Fore
SplineSet
531 83 m 1,0,-1
 520 0 l 1,1,-1
 153 0 l 1,2,-1
 153 259 l 1,3,-1
 152 259 l 2,4,5
 82 261 82 261 46 291 c 128,-1,6
 10 321 10 321 10 375 c 0,7,8
 10 424 10 424 42 452 c 128,-1,9
 74 480 74 480 121 480 c 0,10,11
 141 480 141 480 153 477 c 1,12,-1
 153 689 l 1,13,-1
 248 689 l 1,14,-1
 248 326 l 1,15,16
 315 329 315 329 370 342 c 1,17,-1
 381 281 l 1,18,19
 329 267 329 267 248 262 c 1,20,-1
 248 83 l 1,21,-1
 531 83 l 1,0,-1
153 326 m 1,22,-1
 153 415 l 1,23,24
 137 417 137 417 127 417 c 0,25,26
 107 417 107 417 96 406.5 c 128,-1,27
 85 396 85 396 85 375 c 0,28,29
 85 326 85 326 152 326 c 2,30,-1
 153 326 l 1,22,-1
EndSplineSet
Substitution2: "'c2sc' Capitals to Small Capitals lookup 26 subtable" uniA7AD.sc
Substitution2: "'aalt' Access All Alternates lookup 0 subtable" uniA7AD.sc
Position2: "'cpsp' Capital Spacing lookup 0 subtable" dx=5 dy=0 dh=10 dv=0
EndChar

StartChar: Lslash
Encoding: 321 321 160
Width: 514
GlyphClass: 2
Flags: W
AnchorPoint: "Anchor-18" 406 390 basechar 0
AnchorPoint: "Anchor-17" 231 689 basechar 0
AnchorPoint: "Anchor-16" 164 689 basechar 0
AnchorPoint: "Anchor-15" 0 0 basechar 0
AnchorPoint: "Anchor-14" 300 0 basechar 0
LayerCount: 2
Fore
SplineSet
211 83 m 1,0,-1
 494 83 l 1,1,-1
 483 0 l 1,2,-1
 116 0 l 1,3,-1
 116 257 l 1,4,-1
 60 222 l 1,5,-1
 22 282 l 1,6,-1
 116 340 l 1,7,-1
 116 689 l 1,8,-1
 211 689 l 1,9,-1
 211 399 l 1,10,-1
 371 498 l 1,11,-1
 409 438 l 1,12,-1
 211 315 l 1,13,-1
 211 83 l 1,0,-1
EndSplineSet
Substitution2: "'c2sc' Capitals to Small Capitals lookup 26 subtable" lslash.sc
Substitution2: "'aalt' Access All Alternates lookup 0 subtable" lslash.sc
Position2: "'cpsp' Capital Spacing lookup 0 subtable" dx=5 dy=0 dh=10 dv=0
EndChar

StartChar: M
Encoding: 77 77 161
Width: 778
GlyphClass: 2
Flags: W
AnchorPoint: "Anchor-18" 0 0 basechar 0
AnchorPoint: "Anchor-17" 0 0 basechar 0
AnchorPoint: "Anchor-16" 389 689 basechar 0
AnchorPoint: "Anchor-15" 0 0 basechar 0
AnchorPoint: "Anchor-14" 398 0 basechar 0
LayerCount: 2
Fore
SplineSet
716 0 m 1,0,-1
 624 0 l 1,1,-1
 600 311 l 2,2,3
 585 494 585 494 583 592 c 1,4,-1
 434 78 l 1,5,-1
 345 78 l 1,6,-1
 188 593 l 1,7,8
 188 468 188 468 175 304 c 2,9,-1
 152 0 l 1,10,-1
 62 0 l 1,11,-1
 119 689 l 1,12,-1
 247 689 l 1,13,-1
 392 188 l 1,14,-1
 530 689 l 1,15,-1
 659 689 l 1,16,-1
 716 0 l 1,0,-1
EndSplineSet
Substitution2: "'c2sc' Capitals to Small Capitals lookup 26 subtable" m.sc
Substitution2: "'aalt' Access All Alternates lookup 0 subtable" m.sc
Position2: "'cpsp' Capital Spacing lookup 0 subtable" dx=5 dy=0 dh=10 dv=0
EndChar

StartChar: uni019C
Encoding: 412 412 164
Width: 933
GlyphClass: 2
Flags: W
AnchorPoint: "Anchor-18" 0 0 basechar 0
AnchorPoint: "Anchor-17" 0 0 basechar 0
AnchorPoint: "Anchor-16" 467 689 basechar 0
AnchorPoint: "Anchor-15" 0 0 basechar 0
AnchorPoint: "Anchor-14" 467 0 basechar 0
LayerCount: 2
Fore
SplineSet
833 689 m 1,0,-1
 833 0 l 1,1,-1
 751 0 l 1,2,-1
 743 79 l 1,3,4
 710 33 710 33 670.5 10.5 c 128,-1,5
 631 -12 631 -12 582 -12 c 0,6,7
 528 -12 528 -12 490 14 c 128,-1,8
 452 40 452 40 432 87 c 1,9,10
 393 36 393 36 351 12 c 128,-1,11
 309 -12 309 -12 258 -12 c 0,12,13
 179 -12 179 -12 134.5 43.5 c 128,-1,14
 90 99 90 99 90 189 c 2,15,-1
 90 689 l 1,16,-1
 185 689 l 1,17,-1
 185 191 l 2,18,19
 185 131 185 131 208.5 98.5 c 128,-1,20
 232 66 232 66 275 66 c 256,21,22
 318 66 318 66 348.5 87 c 128,-1,23
 379 108 379 108 415 159 c 1,24,25
 414 169 414 169 414 189 c 2,26,-1
 414 689 l 1,27,-1
 509 689 l 1,28,-1
 509 191 l 2,29,30
 509 131 509 131 532.5 98.5 c 128,-1,31
 556 66 556 66 599 66 c 256,32,33
 642 66 642 66 672.5 87 c 128,-1,34
 703 108 703 108 738 159 c 1,35,-1
 738 689 l 1,36,-1
 833 689 l 1,0,-1
EndSplineSet
Substitution2: "'c2sc' Capitals to Small Capitals lookup 26 subtable" uni026F.sc
Substitution2: "'aalt' Access All Alternates lookup 0 subtable" uni026F.sc
Position2: "'cpsp' Capital Spacing lookup 0 subtable" dx=5 dy=0 dh=10 dv=0
EndChar

StartChar: N
Encoding: 78 78 165
Width: 683
GlyphClass: 2
Flags: W
AnchorPoint: "Anchor-18" 0 0 basechar 0
AnchorPoint: "Anchor-17" 0 0 basechar 0
AnchorPoint: "Anchor-16" 353 689 basechar 0
AnchorPoint: "Anchor-15" 0 0 basechar 0
AnchorPoint: "Anchor-14" 343 0 basechar 0
LayerCount: 2
Fore
SplineSet
583 0 m 1,0,-1
 456 0 l 1,1,-1
 176 585 l 1,2,3
 182 516 182 516 185.5 457.5 c 128,-1,4
 189 399 189 399 189 316 c 2,5,-1
 189 0 l 1,6,-1
 100 0 l 1,7,-1
 100 689 l 1,8,-1
 224 689 l 1,9,-1
 507 103 l 1,10,11
 504 129 504 129 499 194 c 128,-1,12
 494 259 494 259 494 313 c 2,13,-1
 494 689 l 1,14,-1
 583 689 l 1,15,-1
 583 0 l 1,0,-1
EndSplineSet
Substitution2: "'c2sc' Capitals to Small Capitals lookup 26 subtable" n.sc
Substitution2: "'aalt' Access All Alternates lookup 0 subtable" n.sc
Position2: "'cpsp' Capital Spacing lookup 0 subtable" dx=5 dy=0 dh=10 dv=0
EndChar

StartChar: Eng
Encoding: 330 330 175
Width: 683
GlyphClass: 2
Flags: W
AnchorPoint: "Anchor-18" 0 0 basechar 0
AnchorPoint: "Anchor-17" 0 0 basechar 0
AnchorPoint: "Anchor-16" 353 689 basechar 0
AnchorPoint: "Anchor-15" 0 0 basechar 0
AnchorPoint: "Anchor-14" 343 0 basechar 0
LayerCount: 2
Fore
SplineSet
583 689 m 1,0,-1
 583 -57 l 2,1,2
 583 -133 583 -133 543 -173 c 128,-1,3
 503 -213 503 -213 432 -213 c 0,4,5
 367 -213 367 -213 317 -175 c 1,6,-1
 354 -115 l 1,7,8
 373 -126 373 -126 388.5 -131.5 c 128,-1,9
 404 -137 404 -137 427 -137 c 0,10,11
 488 -137 488 -137 488 -63 c 2,12,-1
 488 0 l 1,13,-1
 456 0 l 1,14,-1
 176 585 l 1,15,16
 182 516 182 516 185.5 457.5 c 128,-1,17
 189 399 189 399 189 316 c 2,18,-1
 189 0 l 1,19,-1
 100 0 l 1,20,-1
 100 689 l 1,21,-1
 224 689 l 1,22,-1
 507 103 l 1,23,24
 504 129 504 129 499 194 c 128,-1,25
 494 259 494 259 494 313 c 2,26,-1
 494 689 l 1,27,-1
 583 689 l 1,0,-1
EndSplineSet
Substitution2: "'ss01' Style Set 1 lookup 33 subtable" Eng.ss01
Substitution2: "'salt' Stylistic Alternatives lookup 32 subtable" Eng.ss01
Substitution2: "'c2sc' Capitals to Small Capitals lookup 26 subtable" eng.sc
AlternateSubs2: "'aalt' Access All Alternates lookup 1 subtable" eng.sc Eng.ss01
Position2: "'cpsp' Capital Spacing lookup 0 subtable" dx=5 dy=0 dh=10 dv=0
EndChar

StartChar: Eng.ss01
Encoding: 65541 -1 176
Width: 672
GlyphClass: 2
Flags: W
AnchorPoint: "Anchor-18" 0 0 basechar 0
AnchorPoint: "Anchor-17" 0 0 basechar 0
AnchorPoint: "Anchor-16" 336 689 basechar 0
AnchorPoint: "Anchor-15" 0 0 basechar 0
AnchorPoint: "Anchor-14" 336 -202 basechar 0
LayerCount: 2
Fore
SplineSet
532.5 647.5 m 128,-1,1
 579 594 579 594 579 507 c 2,2,-1
 579 -57 l 2,3,4
 579 -133 579 -133 539 -173 c 128,-1,5
 499 -213 499 -213 428 -213 c 0,6,7
 363 -213 363 -213 313 -175 c 1,8,-1
 350 -115 l 1,9,10
 369 -126 369 -126 384.5 -131.5 c 128,-1,11
 400 -137 400 -137 423 -137 c 0,12,13
 484 -137 484 -137 484 -63 c 2,14,-1
 484 488 l 2,15,16
 484 556 484 556 457.5 589.5 c 128,-1,17
 431 623 431 623 374 623 c 0,18,19
 319 623 319 623 280.5 600.5 c 128,-1,20
 242 578 242 578 195 530 c 1,21,-1
 195 0 l 1,22,-1
 100 0 l 1,23,-1
 100 689 l 1,24,-1
 182 689 l 1,25,-1
 190 606 l 1,26,27
 234 652 234 652 283 676.5 c 128,-1,28
 332 701 332 701 394 701 c 0,29,0
 486 701 486 701 532.5 647.5 c 128,-1,1
EndSplineSet
Position2: "'cpsp' Capital Spacing lookup 0 subtable" dx=5 dy=0 dh=10 dv=0
EndChar

StartChar: uni019D
Encoding: 413 413 177
Width: 683
GlyphClass: 2
Flags: W
AnchorPoint: "Anchor-18" 0 0 basechar 0
AnchorPoint: "Anchor-17" 0 0 basechar 0
AnchorPoint: "Anchor-16" 353 689 basechar 0
AnchorPoint: "Anchor-15" 0 0 basechar 0
AnchorPoint: "Anchor-14" 343 0 basechar 0
LayerCount: 2
Fore
SplineSet
583 689 m 1,0,-1
 583 0 l 1,1,-1
 456 0 l 1,2,-1
 176 585 l 1,3,4
 182 516 182 516 185.5 457.5 c 128,-1,5
 189 399 189 399 189 316 c 2,6,-1
 189 -59 l 2,7,8
 189 -134 189 -134 149 -173.5 c 128,-1,9
 109 -213 109 -213 41 -213 c 0,10,11
 -24 -213 -24 -213 -74 -175 c 1,12,-1
 -38 -116 l 1,13,14
 -18 -128 -18 -128 -2.5 -133.5 c 128,-1,15
 13 -139 13 -139 36 -139 c 0,16,17
 100 -139 100 -139 100 -65 c 2,18,-1
 100 689 l 1,19,-1
 224 689 l 1,20,-1
 507 103 l 1,21,22
 504 129 504 129 499 194 c 128,-1,23
 494 259 494 259 494 313 c 2,24,-1
 494 689 l 1,25,-1
 583 689 l 1,0,-1
EndSplineSet
Substitution2: "'ss01' Style Set 1 lookup 33 subtable" uni019D.ss01
Substitution2: "'salt' Stylistic Alternatives lookup 32 subtable" uni019D.ss01
Substitution2: "'c2sc' Capitals to Small Capitals lookup 26 subtable" uni0272.sc
AlternateSubs2: "'aalt' Access All Alternates lookup 1 subtable" uni0272.sc uni019D.ss01
Position2: "'cpsp' Capital Spacing lookup 0 subtable" dx=5 dy=0 dh=10 dv=0
EndChar

StartChar: uni019D.ss01
Encoding: 65542 -1 178
Width: 672
GlyphClass: 2
Flags: W
AnchorPoint: "Anchor-18" 0 0 basechar 0
AnchorPoint: "Anchor-17" 0 0 basechar 0
AnchorPoint: "Anchor-16" 336 689 basechar 0
AnchorPoint: "Anchor-15" 0 0 basechar 0
AnchorPoint: "Anchor-14" 336 -202 basechar 0
LayerCount: 2
Fore
SplineSet
532.5 647.5 m 128,-1,1
 579 594 579 594 579 507 c 2,2,-1
 579 0 l 1,3,-1
 484 0 l 1,4,-1
 484 488 l 2,5,6
 484 556 484 556 457.5 589.5 c 128,-1,7
 431 623 431 623 374 623 c 0,8,9
 319 623 319 623 280.5 600.5 c 128,-1,10
 242 578 242 578 195 530 c 1,11,-1
 195 -57 l 2,12,13
 195 -133 195 -133 155 -173 c 128,-1,14
 115 -213 115 -213 44 -213 c 0,15,16
 -21 -213 -21 -213 -71 -175 c 1,17,-1
 -34 -115 l 1,18,19
 -15 -126 -15 -126 0.5 -131.5 c 128,-1,20
 16 -137 16 -137 39 -137 c 0,21,22
 100 -137 100 -137 100 -63 c 2,23,-1
 100 689 l 1,24,-1
 182 689 l 1,25,-1
 190 606 l 1,26,27
 234 652 234 652 283 676.5 c 128,-1,28
 332 701 332 701 394 701 c 0,29,0
 486 701 486 701 532.5 647.5 c 128,-1,1
EndSplineSet
Position2: "'cpsp' Capital Spacing lookup 0 subtable" dx=5 dy=0 dh=10 dv=0
EndChar

StartChar: uni0220
Encoding: 544 544 180
Width: 672
GlyphClass: 2
Flags: W
AnchorPoint: "Anchor-18" 0 0 basechar 0
AnchorPoint: "Anchor-17" 0 0 basechar 0
AnchorPoint: "Anchor-16" 336 689 basechar 0
AnchorPoint: "Anchor-15" 0 0 basechar 0
AnchorPoint: "Anchor-14" 336 -202 basechar 0
LayerCount: 2
Fore
SplineSet
532.5 647.5 m 128,-1,1
 579 594 579 594 579 507 c 2,2,-1
 579 -202 l 1,3,-1
 484 -202 l 1,4,-1
 484 488 l 2,5,6
 484 556 484 556 457.5 589.5 c 128,-1,7
 431 623 431 623 374 623 c 0,8,9
 319 623 319 623 280.5 600.5 c 128,-1,10
 242 578 242 578 195 530 c 1,11,-1
 195 0 l 1,12,-1
 100 0 l 1,13,-1
 100 689 l 1,14,-1
 182 689 l 1,15,-1
 190 606 l 1,16,17
 234 652 234 652 283 676.5 c 128,-1,18
 332 701 332 701 394 701 c 0,19,0
 486 701 486 701 532.5 647.5 c 128,-1,1
EndSplineSet
Substitution2: "'c2sc' Capitals to Small Capitals lookup 26 subtable" uni0220.sc
Substitution2: "'aalt' Access All Alternates lookup 0 subtable" uni0220.sc
Position2: "'cpsp' Capital Spacing lookup 0 subtable" dx=5 dy=0 dh=10 dv=0
EndChar

StartChar: O
Encoding: 79 79 182
Width: 692
GlyphClass: 2
Flags: W
AnchorPoint: "Anchor-18" 0 0 basechar 0
AnchorPoint: "Anchor-17" 549 689 basechar 0
AnchorPoint: "Anchor-16" 346 689 basechar 0
AnchorPoint: "Anchor-15" 445 0 basechar 0
AnchorPoint: "Anchor-14" 346 0 basechar 0
LayerCount: 2
Fore
SplineSet
498.5 659.5 m 128,-1,1
 564 618 564 618 600.5 538 c 128,-1,2
 637 458 637 458 637 344 c 0,3,4
 637 232 637 232 600.5 152 c 128,-1,5
 564 72 564 72 498.5 30 c 128,-1,6
 433 -12 433 -12 346 -12 c 256,7,8
 259 -12 259 -12 193.5 29 c 128,-1,9
 128 70 128 70 91.5 150 c 128,-1,10
 55 230 55 230 55 343 c 0,11,12
 55 454 55 454 91.5 535 c 128,-1,13
 128 616 128 616 194 658.5 c 128,-1,14
 260 701 260 701 346 701 c 0,15,0
 433 701 433 701 498.5 659.5 c 128,-1,1
206 555 m 128,-1,17
 156 487 156 487 156 343 c 0,18,19
 156 200 156 200 206.5 133 c 128,-1,20
 257 66 257 66 346 66 c 0,21,22
 536 66 536 66 536 344 c 0,23,24
 536 623 536 623 346 623 c 0,25,16
 256 623 256 623 206 555 c 128,-1,17
EndSplineSet
Substitution2: "Single Substitution lookup 45 subtable" ordmasculine
Substitution2: "'c2sc' Capitals to Small Capitals lookup 26 subtable" o.sc
AlternateSubs2: "'aalt' Access All Alternates lookup 1 subtable" ordmasculine o.sc
Position2: "'cpsp' Capital Spacing lookup 0 subtable" dx=5 dy=0 dh=10 dv=0
EndChar

StartChar: uni0222
Encoding: 546 546 183
Width: 652
GlyphClass: 2
Flags: W
AnchorPoint: "Anchor-18" 0 0 basechar 0
AnchorPoint: "Anchor-17" 0 0 basechar 0
AnchorPoint: "Anchor-16" 326 689 basechar 0
AnchorPoint: "Anchor-15" 0 0 basechar 0
AnchorPoint: "Anchor-14" 326 0 basechar 0
LayerCount: 2
Fore
SplineSet
562.5 320 m 128,-1,1
 597 273 597 273 597 209 c 0,2,3
 597 151 597 151 564.5 100.5 c 128,-1,4
 532 50 532 50 470.5 19 c 128,-1,5
 409 -12 409 -12 326 -12 c 256,6,7
 243 -12 243 -12 181.5 18 c 128,-1,8
 120 48 120 48 87.5 98.5 c 128,-1,9
 55 149 55 149 55 208 c 0,10,11
 55 269 55 269 90 316 c 128,-1,12
 125 363 125 363 189 388 c 1,13,14
 144 413 144 413 122 453.5 c 128,-1,15
 100 494 100 494 100 546 c 2,16,-1
 100 689 l 1,17,-1
 195 689 l 1,18,-1
 195 551 l 2,19,20
 195 421 195 421 327 421 c 0,21,22
 396 421 396 421 427.5 458 c 128,-1,23
 459 495 459 495 459 551 c 2,24,-1
 459 689 l 1,25,-1
 555 689 l 1,26,-1
 555 546 l 2,27,28
 555 496 555 496 531 456 c 128,-1,29
 507 416 507 416 462 390 c 1,30,0
 528 367 528 367 562.5 320 c 128,-1,1
454 101.5 m 128,-1,32
 496 137 496 137 496 209 c 0,33,34
 496 274 496 274 454 308.5 c 128,-1,35
 412 343 412 343 326 343 c 0,36,37
 241 343 241 343 198.5 308 c 128,-1,38
 156 273 156 273 156 208 c 0,39,40
 156 138 156 138 199 102 c 128,-1,41
 242 66 242 66 326 66 c 0,42,31
 412 66 412 66 454 101.5 c 128,-1,32
EndSplineSet
Substitution2: "'c2sc' Capitals to Small Capitals lookup 26 subtable" uni0223.sc
Substitution2: "'aalt' Access All Alternates lookup 0 subtable" uni0223.sc
Position2: "'cpsp' Capital Spacing lookup 0 subtable" dx=5 dy=0 dh=10 dv=0
EndChar

StartChar: Ohorn
Encoding: 416 416 203
Width: 703
GlyphClass: 2
Flags: W
AnchorPoint: "Anchor-18" 0 0 basechar 0
AnchorPoint: "Anchor-17" 601 689 basechar 0
AnchorPoint: "Anchor-16" 346 689 basechar 0
AnchorPoint: "Anchor-15" 445 0 basechar 0
AnchorPoint: "Anchor-14" 346 0 basechar 0
LayerCount: 2
Fore
SplineSet
574 587 m 1,1,2
 637 494 637 494 637 344 c 0,3,4
 637 232 637 232 600.5 152 c 128,-1,5
 564 72 564 72 498.5 30 c 128,-1,6
 433 -12 433 -12 346 -12 c 256,7,8
 259 -12 259 -12 193.5 29 c 128,-1,9
 128 70 128 70 91.5 150 c 128,-1,10
 55 230 55 230 55 343 c 0,11,12
 55 454 55 454 91.5 535 c 128,-1,13
 128 616 128 616 194 658.5 c 128,-1,14
 260 701 260 701 346 701 c 0,15,16
 459 701 459 701 531 635 c 1,17,18
 586 642 586 642 586 686 c 0,19,20
 586 709 586 709 582.5 724.5 c 128,-1,21
 579 740 579 740 572 758 c 1,22,-1
 644 773 l 1,23,24
 663 740 663 740 663 691 c 0,25,0
 663 604 663 604 574 587 c 1,1,2
536 344 m 0,27,28
 536 623 536 623 346 623 c 0,29,30
 256 623 256 623 206 555 c 128,-1,31
 156 487 156 487 156 343 c 0,32,33
 156 200 156 200 206.5 133 c 128,-1,34
 257 66 257 66 346 66 c 0,35,26
 536 66 536 66 536 344 c 0,27,28
EndSplineSet
Substitution2: "'c2sc' Capitals to Small Capitals lookup 26 subtable" ohorn.sc
Substitution2: "'aalt' Access All Alternates lookup 0 subtable" ohorn.sc
Position2: "'cpsp' Capital Spacing lookup 0 subtable" dx=5 dy=0 dh=10 dv=0
EndChar

StartChar: uni1EDA
Encoding: 7898 7898 204
Width: 703
GlyphClass: 2
Flags: W
AnchorPoint: "Anchor-18" 0 0 basechar 0
AnchorPoint: "Anchor-17" 601 689 basechar 0
AnchorPoint: "Anchor-16" 348 911 basechar 0
AnchorPoint: "Anchor-15" 445 0 basechar 0
AnchorPoint: "Anchor-14" 346 0 basechar 0
LayerCount: 2
Fore
SplineSet
466 834 m 1,0,-1
 250 755 l 1,1,-1
 226 804 l 1,2,-1
 426 911 l 1,3,-1
 466 834 l 1,0,-1
574 587 m 1,5,6
 637 494 637 494 637 344 c 0,7,8
 637 232 637 232 600.5 152 c 128,-1,9
 564 72 564 72 498.5 30 c 128,-1,10
 433 -12 433 -12 346 -12 c 256,11,12
 259 -12 259 -12 193.5 29 c 128,-1,13
 128 70 128 70 91.5 150 c 128,-1,14
 55 230 55 230 55 343 c 0,15,16
 55 454 55 454 91.5 535 c 128,-1,17
 128 616 128 616 194 658.5 c 128,-1,18
 260 701 260 701 346 701 c 0,19,20
 459 701 459 701 531 635 c 1,21,22
 586 642 586 642 586 686 c 0,23,24
 586 709 586 709 582.5 724.5 c 128,-1,25
 579 740 579 740 572 758 c 1,26,-1
 644 773 l 1,27,28
 663 740 663 740 663 691 c 0,29,4
 663 604 663 604 574 587 c 1,5,6
536 344 m 0,31,32
 536 623 536 623 346 623 c 0,33,34
 256 623 256 623 206 555 c 128,-1,35
 156 487 156 487 156 343 c 0,36,37
 156 200 156 200 206.5 133 c 128,-1,38
 257 66 257 66 346 66 c 0,39,30
 536 66 536 66 536 344 c 0,31,32
EndSplineSet
Substitution2: "'c2sc' Capitals to Small Capitals lookup 26 subtable" uni1EDB.sc
Substitution2: "'aalt' Access All Alternates lookup 0 subtable" uni1EDB.sc
Position2: "'cpsp' Capital Spacing lookup 0 subtable" dx=5 dy=0 dh=10 dv=0
EndChar

StartChar: uni1EE2
Encoding: 7906 7906 205
Width: 703
GlyphClass: 2
Flags: W
AnchorPoint: "Anchor-18" 0 0 basechar 0
AnchorPoint: "Anchor-17" 601 689 basechar 0
AnchorPoint: "Anchor-16" 346 689 basechar 0
AnchorPoint: "Anchor-15" 445 0 basechar 0
AnchorPoint: "Anchor-14" 348 -202 basechar 0
LayerCount: 2
Fore
SplineSet
574 587 m 1,1,2
 637 494 637 494 637 344 c 0,3,4
 637 232 637 232 600.5 152 c 128,-1,5
 564 72 564 72 498.5 30 c 128,-1,6
 433 -12 433 -12 346 -12 c 256,7,8
 259 -12 259 -12 193.5 29 c 128,-1,9
 128 70 128 70 91.5 150 c 128,-1,10
 55 230 55 230 55 343 c 0,11,12
 55 454 55 454 91.5 535 c 128,-1,13
 128 616 128 616 194 658.5 c 128,-1,14
 260 701 260 701 346 701 c 0,15,16
 459 701 459 701 531 635 c 1,17,18
 586 642 586 642 586 686 c 0,19,20
 586 709 586 709 582.5 724.5 c 128,-1,21
 579 740 579 740 572 758 c 1,22,-1
 644 773 l 1,23,24
 663 740 663 740 663 691 c 0,25,0
 663 604 663 604 574 587 c 1,1,2
536 344 m 0,27,28
 536 623 536 623 346 623 c 0,29,30
 256 623 256 623 206 555 c 128,-1,31
 156 487 156 487 156 343 c 0,32,33
 156 200 156 200 206.5 133 c 128,-1,34
 257 66 257 66 346 66 c 0,35,26
 536 66 536 66 536 344 c 0,27,28
392 -91.5 m 128,-1,37
 410 -109 410 -109 410 -136 c 256,38,39
 410 -163 410 -163 392 -181 c 128,-1,40
 374 -199 374 -199 346 -199 c 0,41,42
 317 -199 317 -199 299 -181 c 128,-1,43
 281 -163 281 -163 281 -136 c 256,44,45
 281 -109 281 -109 299 -91.5 c 128,-1,46
 317 -74 317 -74 346 -74 c 0,47,36
 374 -74 374 -74 392 -91.5 c 128,-1,37
EndSplineSet
Substitution2: "'c2sc' Capitals to Small Capitals lookup 26 subtable" uni1EE3.sc
Substitution2: "'aalt' Access All Alternates lookup 0 subtable" uni1EE3.sc
Position2: "'cpsp' Capital Spacing lookup 0 subtable" dx=5 dy=0 dh=10 dv=0
EndChar

StartChar: uni1EDC
Encoding: 7900 7900 206
Width: 703
GlyphClass: 2
Flags: W
AnchorPoint: "Anchor-18" 0 0 basechar 0
AnchorPoint: "Anchor-17" 601 689 basechar 0
AnchorPoint: "Anchor-16" 346 911 basechar 0
AnchorPoint: "Anchor-15" 445 0 basechar 0
AnchorPoint: "Anchor-14" 346 0 basechar 0
LayerCount: 2
Fore
SplineSet
456 804 m 1,0,-1
 432 755 l 1,1,-1
 216 834 l 1,2,-1
 255 911 l 1,3,-1
 456 804 l 1,0,-1
574 587 m 1,5,6
 637 494 637 494 637 344 c 0,7,8
 637 232 637 232 600.5 152 c 128,-1,9
 564 72 564 72 498.5 30 c 128,-1,10
 433 -12 433 -12 346 -12 c 256,11,12
 259 -12 259 -12 193.5 29 c 128,-1,13
 128 70 128 70 91.5 150 c 128,-1,14
 55 230 55 230 55 343 c 0,15,16
 55 454 55 454 91.5 535 c 128,-1,17
 128 616 128 616 194 658.5 c 128,-1,18
 260 701 260 701 346 701 c 0,19,20
 459 701 459 701 531 635 c 1,21,22
 586 642 586 642 586 686 c 0,23,24
 586 709 586 709 582.5 724.5 c 128,-1,25
 579 740 579 740 572 758 c 1,26,-1
 644 773 l 1,27,28
 663 740 663 740 663 691 c 0,29,4
 663 604 663 604 574 587 c 1,5,6
536 344 m 0,31,32
 536 623 536 623 346 623 c 0,33,34
 256 623 256 623 206 555 c 128,-1,35
 156 487 156 487 156 343 c 0,36,37
 156 200 156 200 206.5 133 c 128,-1,38
 257 66 257 66 346 66 c 0,39,30
 536 66 536 66 536 344 c 0,31,32
EndSplineSet
Substitution2: "'c2sc' Capitals to Small Capitals lookup 26 subtable" uni1EDD.sc
Substitution2: "'aalt' Access All Alternates lookup 0 subtable" uni1EDD.sc
Position2: "'cpsp' Capital Spacing lookup 0 subtable" dx=5 dy=0 dh=10 dv=0
EndChar

StartChar: uni1EDE
Encoding: 7902 7902 207
Width: 703
GlyphClass: 2
Flags: W
AnchorPoint: "Anchor-18" 0 0 basechar 0
AnchorPoint: "Anchor-17" 601 689 basechar 0
AnchorPoint: "Anchor-16" 362 987 basechar 0
AnchorPoint: "Anchor-15" 445 0 basechar 0
AnchorPoint: "Anchor-14" 346 0 basechar 0
LayerCount: 2
Fore
SplineSet
281 913 m 1,1,-1
 259 964 l 1,2,3
 300 988 300 988 353 988 c 0,4,5
 404 988 404 988 432.5 963 c 128,-1,6
 461 938 461 938 461 895 c 0,7,8
 461 824 461 824 380 811 c 1,9,-1
 380 763 l 1,10,-1
 311 763 l 1,11,-1
 311 847 l 1,12,13
 350 852 350 852 366 860.5 c 128,-1,14
 382 869 382 869 382 890 c 0,15,16
 382 908 382 908 370 917 c 128,-1,17
 358 926 358 926 338 926 c 0,18,0
 310 926 310 926 281 913 c 1,1,-1
574 587 m 1,20,21
 637 494 637 494 637 344 c 0,22,23
 637 232 637 232 600.5 152 c 128,-1,24
 564 72 564 72 498.5 30 c 128,-1,25
 433 -12 433 -12 346 -12 c 256,26,27
 259 -12 259 -12 193.5 29 c 128,-1,28
 128 70 128 70 91.5 150 c 128,-1,29
 55 230 55 230 55 343 c 0,30,31
 55 454 55 454 91.5 535 c 128,-1,32
 128 616 128 616 194 658.5 c 128,-1,33
 260 701 260 701 346 701 c 0,34,35
 459 701 459 701 531 635 c 1,36,37
 586 642 586 642 586 686 c 0,38,39
 586 709 586 709 582.5 724.5 c 128,-1,40
 579 740 579 740 572 758 c 1,41,-1
 644 773 l 1,42,43
 663 740 663 740 663 691 c 0,44,19
 663 604 663 604 574 587 c 1,20,21
536 344 m 0,46,47
 536 623 536 623 346 623 c 0,48,49
 256 623 256 623 206 555 c 128,-1,50
 156 487 156 487 156 343 c 0,51,52
 156 200 156 200 206.5 133 c 128,-1,53
 257 66 257 66 346 66 c 0,54,45
 536 66 536 66 536 344 c 0,46,47
EndSplineSet
Substitution2: "'c2sc' Capitals to Small Capitals lookup 26 subtable" uni1EDF.sc
Substitution2: "'aalt' Access All Alternates lookup 0 subtable" uni1EDF.sc
Position2: "'cpsp' Capital Spacing lookup 0 subtable" dx=5 dy=0 dh=10 dv=0
EndChar

StartChar: uni1EE0
Encoding: 7904 7904 208
Width: 703
GlyphClass: 2
Flags: W
AnchorPoint: "Anchor-18" 0 0 basechar 0
AnchorPoint: "Anchor-17" 601 689 basechar 0
AnchorPoint: "Anchor-16" 348 900 basechar 0
AnchorPoint: "Anchor-15" 445 0 basechar 0
AnchorPoint: "Anchor-14" 346 0 basechar 0
LayerCount: 2
Fore
SplineSet
260 819 m 128,-1,1
 248 808 248 808 235 784 c 1,2,-1
 179 812 l 1,3,4
 198 852 198 852 225.5 876 c 128,-1,5
 253 900 253 900 288 900 c 0,6,7
 309 900 309 900 324 892.5 c 128,-1,8
 339 885 339 885 358 872 c 0,9,10
 361 870 361 870 370.5 864 c 128,-1,11
 380 858 380 858 388 855 c 128,-1,12
 396 852 396 852 404 852 c 0,13,14
 419 852 419 852 431 862.5 c 128,-1,15
 443 873 443 873 457 896 c 1,16,-1
 513 868 l 1,17,18
 494 826 494 826 466 804 c 128,-1,19
 438 782 438 782 404 782 c 0,20,21
 385 782 385 782 369.5 789 c 128,-1,22
 354 796 354 796 335 809 c 0,23,24
 320 820 320 820 309.5 825 c 128,-1,25
 299 830 299 830 288 830 c 0,26,0
 272 830 272 830 260 819 c 128,-1,1
574 587 m 1,28,29
 637 494 637 494 637 344 c 0,30,31
 637 232 637 232 600.5 152 c 128,-1,32
 564 72 564 72 498.5 30 c 128,-1,33
 433 -12 433 -12 346 -12 c 256,34,35
 259 -12 259 -12 193.5 29 c 128,-1,36
 128 70 128 70 91.5 150 c 128,-1,37
 55 230 55 230 55 343 c 0,38,39
 55 454 55 454 91.5 535 c 128,-1,40
 128 616 128 616 194 658.5 c 128,-1,41
 260 701 260 701 346 701 c 0,42,43
 459 701 459 701 531 635 c 1,44,45
 586 642 586 642 586 686 c 0,46,47
 586 709 586 709 582.5 724.5 c 128,-1,48
 579 740 579 740 572 758 c 1,49,-1
 644 773 l 1,50,51
 663 740 663 740 663 691 c 0,52,27
 663 604 663 604 574 587 c 1,28,29
536 344 m 0,54,55
 536 623 536 623 346 623 c 0,56,57
 256 623 256 623 206 555 c 128,-1,58
 156 487 156 487 156 343 c 0,59,60
 156 200 156 200 206.5 133 c 128,-1,61
 257 66 257 66 346 66 c 0,62,53
 536 66 536 66 536 344 c 0,54,55
EndSplineSet
Substitution2: "'c2sc' Capitals to Small Capitals lookup 26 subtable" uni1EE1.sc
Substitution2: "'aalt' Access All Alternates lookup 0 subtable" uni1EE1.sc
Position2: "'cpsp' Capital Spacing lookup 0 subtable" dx=5 dy=0 dh=10 dv=0
EndChar

StartChar: uni01A2
Encoding: 418 418 210
Width: 926
GlyphClass: 2
Flags: W
AnchorPoint: "Anchor-18" 0 0 basechar 0
AnchorPoint: "Anchor-17" 0 0 basechar 0
AnchorPoint: "Anchor-16" 463 689 basechar 0
AnchorPoint: "Anchor-15" 0 0 basechar 0
AnchorPoint: "Anchor-14" 463 -202 basechar 0
LayerCount: 2
Fore
SplineSet
784.5 662 m 128,-1,1
 826 621 826 621 826 543 c 2,2,-1
 826 -202 l 1,3,-1
 731 -202 l 1,4,-1
 731 546 l 2,5,6
 731 629 731 629 656 629 c 0,7,8
 629 629 629 629 607 623 c 128,-1,9
 585 617 585 617 560 603 c 1,10,11
 597 557 597 557 617 491.5 c 128,-1,12
 637 426 637 426 637 344 c 0,13,14
 637 232 637 232 600.5 152 c 128,-1,15
 564 72 564 72 498.5 30 c 128,-1,16
 433 -12 433 -12 346 -12 c 256,17,18
 259 -12 259 -12 193.5 29 c 128,-1,19
 128 70 128 70 91.5 150 c 128,-1,20
 55 230 55 230 55 343 c 0,21,22
 55 454 55 454 91.5 535 c 128,-1,23
 128 616 128 616 194 658.5 c 128,-1,24
 260 701 260 701 346 701 c 0,25,26
 440 701 440 701 510 651 c 1,27,28
 549 678 549 678 584.5 690.5 c 128,-1,29
 620 703 620 703 663 703 c 0,30,0
 743 703 743 703 784.5 662 c 128,-1,1
536 344 m 0,32,33
 536 623 536 623 346 623 c 0,34,35
 256 623 256 623 206 555 c 128,-1,36
 156 487 156 487 156 343 c 0,37,38
 156 200 156 200 206.5 133 c 128,-1,39
 257 66 257 66 346 66 c 0,40,31
 536 66 536 66 536 344 c 0,32,33
EndSplineSet
Substitution2: "'c2sc' Capitals to Small Capitals lookup 26 subtable" uni01A3.sc
Substitution2: "'aalt' Access All Alternates lookup 0 subtable" uni01A3.sc
Position2: "'cpsp' Capital Spacing lookup 0 subtable" dx=5 dy=0 dh=10 dv=0
EndChar

StartChar: uni1E50
Encoding: 7760 7760 214
Width: 692
GlyphClass: 2
Flags: W
AnchorPoint: "Anchor-18" 0 0 basechar 0
AnchorPoint: "Anchor-17" 549 689 basechar 0
AnchorPoint: "Anchor-16" 354 1030 basechar 0
AnchorPoint: "Anchor-15" 445 0 basechar 0
AnchorPoint: "Anchor-14" 346 0 basechar 0
LayerCount: 2
Fore
SplineSet
263 1030 m 1,0,-1
 464 923 l 1,1,-1
 440 874 l 1,2,-1
 224 953 l 1,3,-1
 263 1030 l 1,0,-1
482 759 m 1,4,-1
 209 759 l 1,5,-1
 209 828 l 1,6,-1
 482 828 l 1,7,-1
 482 759 l 1,4,-1
498.5 659.5 m 128,-1,9
 564 618 564 618 600.5 538 c 128,-1,10
 637 458 637 458 637 344 c 0,11,12
 637 232 637 232 600.5 152 c 128,-1,13
 564 72 564 72 498.5 30 c 128,-1,14
 433 -12 433 -12 346 -12 c 256,15,16
 259 -12 259 -12 193.5 29 c 128,-1,17
 128 70 128 70 91.5 150 c 128,-1,18
 55 230 55 230 55 343 c 0,19,20
 55 454 55 454 91.5 535 c 128,-1,21
 128 616 128 616 194 658.5 c 128,-1,22
 260 701 260 701 346 701 c 0,23,8
 433 701 433 701 498.5 659.5 c 128,-1,9
206 555 m 128,-1,25
 156 487 156 487 156 343 c 0,26,27
 156 200 156 200 206.5 133 c 128,-1,28
 257 66 257 66 346 66 c 0,29,30
 536 66 536 66 536 344 c 0,31,32
 536 623 536 623 346 623 c 0,33,24
 256 623 256 623 206 555 c 128,-1,25
EndSplineSet
Substitution2: "'c2sc' Capitals to Small Capitals lookup 26 subtable" uni1E51.sc
Substitution2: "'aalt' Access All Alternates lookup 0 subtable" uni1E51.sc
Position2: "'cpsp' Capital Spacing lookup 0 subtable" dx=5 dy=0 dh=10 dv=0
EndChar

StartChar: uniA7B6
Encoding: 42934 42934 215
Width: 838
GlyphClass: 2
Flags: W
AnchorPoint: "Anchor-18" 0 0 basechar 0
AnchorPoint: "Anchor-17" 0 0 basechar 0
AnchorPoint: "Anchor-16" 419 689 basechar 0
AnchorPoint: "Anchor-15" 0 0 basechar 0
AnchorPoint: "Anchor-14" 419 0 basechar 0
LayerCount: 2
Fore
SplineSet
756 521.5 m 128,-1,1
 778 428 778 428 778 299 c 0,2,3
 778 -12 778 -12 566 -12 c 0,4,5
 447 -12 447 -12 415 105 c 1,6,7
 399 47 399 47 363 17.5 c 128,-1,8
 327 -12 327 -12 265 -12 c 0,9,10
 167 -12 167 -12 113.5 60.5 c 128,-1,11
 60 133 60 133 60 299 c 0,12,13
 60 427 60 427 82 519.5 c 128,-1,14
 104 612 104 612 137 689 c 1,15,-1
 229 689 l 1,16,17
 191 602 191 602 173 512 c 128,-1,18
 155 422 155 422 155 302 c 0,19,20
 155 214 155 214 167 162.5 c 128,-1,21
 179 111 179 111 204.5 88.5 c 128,-1,22
 230 66 230 66 273 66 c 0,23,24
 319 66 319 66 343.5 92.5 c 128,-1,25
 368 119 368 119 368 181 c 2,26,-1
 368 398 l 1,27,-1
 461 398 l 1,28,-1
 461 181 l 2,29,30
 461 65 461 65 562 65 c 0,31,32
 601 65 601 65 627 84.5 c 128,-1,33
 653 104 653 104 668 155.5 c 128,-1,34
 683 207 683 207 683 300 c 0,35,36
 683 419 683 419 664.5 509 c 128,-1,37
 646 599 646 599 609 689 c 1,38,-1
 701 689 l 1,39,0
 734 615 734 615 756 521.5 c 128,-1,1
EndSplineSet
Substitution2: "'c2sc' Capitals to Small Capitals lookup 26 subtable" uniA7B6.sc
Substitution2: "'aalt' Access All Alternates lookup 0 subtable" uniA7B6.sc
Position2: "'cpsp' Capital Spacing lookup 0 subtable" dx=5 dy=0 dh=10 dv=0
EndChar

StartChar: uni01EA
Encoding: 490 490 216
Width: 692
GlyphClass: 2
Flags: W
AnchorPoint: "Anchor-18" 0 0 basechar 0
AnchorPoint: "Anchor-17" 549 689 basechar 0
AnchorPoint: "Anchor-16" 346 689 basechar 0
AnchorPoint: "Anchor-15" 445 0 basechar 0
AnchorPoint: "Anchor-14" 346 0 basechar 0
LayerCount: 2
Fore
SplineSet
583 118 m 128,-1,1
 529 29 529 29 435 1 c 1,2,-1
 435 0 l 1,3,4
 364 -31 364 -31 338 -57.5 c 128,-1,5
 312 -84 312 -84 312 -114 c 0,6,7
 312 -162 312 -162 368 -162 c 0,8,9
 395 -162 395 -162 429 -155 c 1,10,-1
 420 -225 l 1,11,12
 385 -232 385 -232 357 -232 c 0,13,14
 300 -232 300 -232 266 -203.5 c 128,-1,15
 232 -175 232 -175 232 -131 c 0,16,17
 232 -58 232 -58 314 -10 c 1,18,19
 236 -3 236 -3 177.5 40 c 128,-1,20
 119 83 119 83 87 160 c 128,-1,21
 55 237 55 237 55 343 c 0,22,23
 55 454 55 454 91.5 535 c 128,-1,24
 128 616 128 616 194 658.5 c 128,-1,25
 260 701 260 701 346 701 c 0,26,27
 433 701 433 701 498.5 659.5 c 128,-1,28
 564 618 564 618 600.5 538 c 128,-1,29
 637 458 637 458 637 344 c 0,30,0
 637 207 637 207 583 118 c 128,-1,1
536 344 m 0,32,33
 536 623 536 623 346 623 c 0,34,35
 256 623 256 623 206 555 c 128,-1,36
 156 487 156 487 156 343 c 0,37,38
 156 200 156 200 206.5 133 c 128,-1,39
 257 66 257 66 346 66 c 0,40,31
 536 66 536 66 536 344 c 0,32,33
EndSplineSet
Substitution2: "'c2sc' Capitals to Small Capitals lookup 26 subtable" uni01EB.sc
Substitution2: "'aalt' Access All Alternates lookup 0 subtable" uni01EB.sc
Position2: "'cpsp' Capital Spacing lookup 0 subtable" dx=5 dy=0 dh=10 dv=0
EndChar

StartChar: uni01EC
Encoding: 492 492 217
Width: 692
GlyphClass: 2
Flags: W
AnchorPoint: "Anchor-18" 0 0 basechar 0
AnchorPoint: "Anchor-17" 549 689 basechar 0
AnchorPoint: "Anchor-16" 348 862 basechar 0
AnchorPoint: "Anchor-15" 445 0 basechar 0
AnchorPoint: "Anchor-14" 346 0 basechar 0
LayerCount: 2
Fore
SplineSet
482 862 m 1,0,-1
 482 793 l 1,1,-1
 209 793 l 1,2,-1
 209 862 l 1,3,-1
 482 862 l 1,0,-1
583 118 m 128,-1,5
 529 29 529 29 435 1 c 1,6,-1
 435 0 l 1,7,8
 364 -31 364 -31 338 -57.5 c 128,-1,9
 312 -84 312 -84 312 -114 c 0,10,11
 312 -162 312 -162 368 -162 c 0,12,13
 395 -162 395 -162 429 -155 c 1,14,-1
 420 -225 l 1,15,16
 385 -232 385 -232 357 -232 c 0,17,18
 300 -232 300 -232 266 -203.5 c 128,-1,19
 232 -175 232 -175 232 -131 c 0,20,21
 232 -58 232 -58 314 -10 c 1,22,23
 236 -3 236 -3 177.5 40 c 128,-1,24
 119 83 119 83 87 160 c 128,-1,25
 55 237 55 237 55 343 c 0,26,27
 55 454 55 454 91.5 535 c 128,-1,28
 128 616 128 616 194 658.5 c 128,-1,29
 260 701 260 701 346 701 c 0,30,31
 433 701 433 701 498.5 659.5 c 128,-1,32
 564 618 564 618 600.5 538 c 128,-1,33
 637 458 637 458 637 344 c 0,34,4
 637 207 637 207 583 118 c 128,-1,5
536 344 m 0,36,37
 536 623 536 623 346 623 c 0,38,39
 256 623 256 623 206 555 c 128,-1,40
 156 487 156 487 156 343 c 0,41,42
 156 200 156 200 206.5 133 c 128,-1,43
 257 66 257 66 346 66 c 0,44,35
 536 66 536 66 536 344 c 0,36,37
EndSplineSet
Substitution2: "'c2sc' Capitals to Small Capitals lookup 26 subtable" uni01ED.sc
Substitution2: "'aalt' Access All Alternates lookup 0 subtable" uni01ED.sc
Position2: "'cpsp' Capital Spacing lookup 0 subtable" dx=5 dy=0 dh=10 dv=0
EndChar

StartChar: uni0186
Encoding: 390 390 218
Width: 560
GlyphClass: 2
Flags: W
AnchorPoint: "Anchor-18" 219 346 basechar 0
AnchorPoint: "Anchor-17" 0 0 basechar 0
AnchorPoint: "Anchor-16" 230 689 basechar 0
AnchorPoint: "Anchor-15" 0 0 basechar 0
AnchorPoint: "Anchor-14" 230 0 basechar 0
LayerCount: 2
Fore
SplineSet
434 609 m 128,-1,1
 505 517 505 517 505 346 c 0,2,3
 505 232 505 232 468.5 151.5 c 128,-1,4
 432 71 432 71 366.5 29.5 c 128,-1,5
 301 -12 301 -12 217 -12 c 0,6,7
 103 -12 103 -12 20 65 c 1,8,-1
 69 124 l 1,9,10
 106 97 106 97 138 82.5 c 128,-1,11
 170 68 170 68 214 68 c 0,12,13
 300 68 300 68 352 135.5 c 128,-1,14
 404 203 404 203 404 345 c 0,15,16
 404 491 404 491 357 557 c 128,-1,17
 310 623 310 623 233 623 c 0,18,19
 149 623 149 623 76 573 c 1,20,-1
 28 633 l 1,21,22
 74 667 74 667 124.5 684 c 128,-1,23
 175 701 175 701 239 701 c 0,24,0
 363 701 363 701 434 609 c 128,-1,1
EndSplineSet
Substitution2: "'c2sc' Capitals to Small Capitals lookup 26 subtable" uni0254.sc
Substitution2: "'aalt' Access All Alternates lookup 0 subtable" uni0254.sc
Position2: "'cpsp' Capital Spacing lookup 0 subtable" dx=5 dy=0 dh=10 dv=0
EndChar

StartChar: Oslash
Encoding: 216 216 219
Width: 692
GlyphClass: 2
Flags: W
AnchorPoint: "Anchor-18" 0 0 basechar 0
AnchorPoint: "Anchor-17" 0 0 basechar 0
AnchorPoint: "Anchor-16" 341 704 basechar 0
AnchorPoint: "Anchor-15" 0 0 basechar 0
AnchorPoint: "Anchor-14" 346 0 basechar 0
LayerCount: 2
Fore
SplineSet
597.5 545.5 m 128,-1,1
 637 463 637 463 637 344 c 0,2,3
 637 232 637 232 600.5 152 c 128,-1,4
 564 72 564 72 498.5 30 c 128,-1,5
 433 -12 433 -12 346 -12 c 0,6,7
 310 -12 310 -12 279 -5 c 1,8,-1
 244 -127 l 1,9,-1
 165 -106 l 1,10,-1
 205 22 l 1,11,12
 134 62 134 62 94.5 143.5 c 128,-1,13
 55 225 55 225 55 343 c 0,14,15
 55 454 55 454 91.5 535 c 128,-1,16
 128 616 128 616 194 658.5 c 128,-1,17
 260 701 260 701 346 701 c 0,18,19
 383 701 383 701 412 694 c 1,20,-1
 449 819 l 1,21,-1
 528 798 l 1,22,-1
 486 667 l 1,23,0
 558 628 558 628 597.5 545.5 c 128,-1,1
206 555 m 128,-1,25
 156 487 156 487 156 343 c 0,26,27
 156 158 156 158 238 97 c 1,28,-1
 396 618 l 1,29,30
 369 623 369 623 346 623 c 0,31,24
 256 623 256 623 206 555 c 128,-1,25
536 344 m 0,33,34
 536 443 536 443 515 504 c 128,-1,35
 494 565 494 565 452 594 c 1,36,-1
 296 71 l 1,37,38
 321 66 321 66 346 66 c 0,39,32
 536 66 536 66 536 344 c 0,33,34
EndSplineSet
Substitution2: "'c2sc' Capitals to Small Capitals lookup 26 subtable" oslash.sc
Substitution2: "'aalt' Access All Alternates lookup 0 subtable" oslash.sc
Position2: "'cpsp' Capital Spacing lookup 0 subtable" dx=5 dy=0 dh=10 dv=0
EndChar

StartChar: OE
Encoding: 338 338 224
Width: 897
GlyphClass: 2
Flags: W
AnchorPoint: "Anchor-18" 0 0 basechar 0
AnchorPoint: "Anchor-17" 0 0 basechar 0
AnchorPoint: "Anchor-16" 454 689 basechar 0
AnchorPoint: "Anchor-15" 0 0 basechar 0
AnchorPoint: "Anchor-14" 454 0 basechar 0
LayerCount: 2
Fore
SplineSet
843 0 m 1,0,-1
 406 0 l 1,1,2
 372 -12 372 -12 333 -12 c 0,3,4
 253 -12 253 -12 190 29 c 128,-1,5
 127 70 127 70 91 150 c 128,-1,6
 55 230 55 230 55 343 c 0,7,8
 55 454 55 454 91 535 c 128,-1,9
 127 616 127 616 190 658.5 c 128,-1,10
 253 701 253 701 333 701 c 0,11,12
 373 701 373 701 410 689 c 1,13,-1
 835 689 l 1,14,-1
 824 613 l 1,15,-1
 526 613 l 1,16,17
 564 575 564 575 587 517.5 c 128,-1,18
 610 460 610 460 615 388 c 1,19,-1
 789 388 l 1,20,-1
 789 312 l 1,21,-1
 616 312 l 1,22,23
 611 238 611 238 586.5 177.5 c 128,-1,24
 562 117 562 117 519 76 c 1,25,-1
 843 76 l 1,26,-1
 843 0 l 1,0,-1
205 133.5 m 128,-1,28
 254 66 254 66 336 66 c 0,29,30
 420 66 420 66 468 133 c 128,-1,31
 516 200 516 200 516 344 c 0,32,33
 516 487 516 487 468.5 555 c 128,-1,34
 421 623 421 623 336 623 c 0,35,36
 253 623 253 623 204.5 554.5 c 128,-1,37
 156 486 156 486 156 343 c 0,38,27
 156 201 156 201 205 133.5 c 128,-1,28
EndSplineSet
Substitution2: "'c2sc' Capitals to Small Capitals lookup 26 subtable" oe.sc
Substitution2: "'aalt' Access All Alternates lookup 0 subtable" oe.sc
Position2: "'cpsp' Capital Spacing lookup 0 subtable" dx=5 dy=0 dh=10 dv=0
EndChar

StartChar: P
Encoding: 80 80 225
Width: 581
GlyphClass: 2
Flags: W
AnchorPoint: "Anchor-18" 0 0 basechar 0
AnchorPoint: "Anchor-17" 0 0 basechar 0
AnchorPoint: "Anchor-16" 291 689 basechar 0
AnchorPoint: "Anchor-15" 0 0 basechar 0
AnchorPoint: "Anchor-14" 148 0 basechar 0
LayerCount: 2
Fore
SplineSet
479 635.5 m 128,-1,1
 549 582 549 582 549 476 c 0,2,3
 549 363 549 363 476 308 c 128,-1,4
 403 253 403 253 282 253 c 2,5,-1
 195 253 l 1,6,-1
 195 0 l 1,7,-1
 100 0 l 1,8,-1
 100 689 l 1,9,-1
 281 689 l 2,10,0
 409 689 409 689 479 635.5 c 128,-1,1
404.5 360 m 128,-1,12
 448 392 448 392 448 475 c 0,13,14
 448 549 448 549 404.5 582 c 128,-1,15
 361 615 361 615 280 615 c 2,16,-1
 195 615 l 1,17,-1
 195 328 l 1,18,-1
 278 328 l 2,19,11
 361 328 361 328 404.5 360 c 128,-1,12
EndSplineSet
Substitution2: "'c2sc' Capitals to Small Capitals lookup 26 subtable" p.sc
Substitution2: "'aalt' Access All Alternates lookup 0 subtable" p.sc
Position2: "'cpsp' Capital Spacing lookup 0 subtable" dx=5 dy=0 dh=10 dv=0
EndChar

StartChar: uni01A4
Encoding: 420 420 228
Width: 664
GlyphClass: 2
Flags: W
AnchorPoint: "Anchor-18" 0 0 basechar 0
AnchorPoint: "Anchor-17" 0 0 basechar 0
AnchorPoint: "Anchor-16" 374 689 basechar 0
AnchorPoint: "Anchor-15" 0 0 basechar 0
AnchorPoint: "Anchor-14" 231 0 basechar 0
LayerCount: 2
Fore
SplineSet
562 635.5 m 128,-1,1
 632 582 632 582 632 476 c 0,2,3
 632 363 632 363 559 308 c 128,-1,4
 486 253 486 253 365 253 c 2,5,-1
 278 253 l 1,6,-1
 278 0 l 1,7,-1
 183 0 l 1,8,-1
 183 614 l 1,9,-1
 151 614 l 2,10,11
 97 614 97 614 97 564 c 0,12,13
 97 547 97 547 101.5 530.5 c 128,-1,14
 106 514 106 514 115 491 c 1,15,-1
 51 459 l 1,16,17
 32 487 32 487 21 512 c 128,-1,18
 10 537 10 537 10 567 c 0,19,20
 10 622 10 622 48 655.5 c 128,-1,21
 86 689 86 689 156 689 c 2,22,-1
 364 689 l 2,23,0
 492 689 492 689 562 635.5 c 128,-1,1
487.5 360 m 128,-1,25
 531 392 531 392 531 475 c 0,26,27
 531 549 531 549 487.5 582 c 128,-1,28
 444 615 444 615 363 615 c 2,29,-1
 278 615 l 1,30,-1
 278 328 l 1,31,-1
 361 328 l 2,32,24
 444 328 444 328 487.5 360 c 128,-1,25
EndSplineSet
Substitution2: "'c2sc' Capitals to Small Capitals lookup 26 subtable" uni01A5.sc
Substitution2: "'aalt' Access All Alternates lookup 0 subtable" uni01A5.sc
Position2: "'cpsp' Capital Spacing lookup 0 subtable" dx=5 dy=0 dh=10 dv=0
EndChar

StartChar: Thorn
Encoding: 222 222 229
Width: 581
GlyphClass: 2
Flags: W
AnchorPoint: "Anchor-18" 0 0 basechar 0
AnchorPoint: "Anchor-17" 0 0 basechar 0
AnchorPoint: "Anchor-16" 291 689 basechar 0
AnchorPoint: "Anchor-15" 0 0 basechar 0
AnchorPoint: "Anchor-14" 291 0 basechar 0
LayerCount: 2
Fore
SplineSet
479 517 m 128,-1,1
 549 463 549 463 549 354 c 0,2,3
 549 238 549 238 476 182.5 c 128,-1,4
 403 127 403 127 282 127 c 2,5,-1
 195 127 l 1,6,-1
 195 0 l 1,7,-1
 100 0 l 1,8,-1
 100 689 l 1,9,-1
 195 689 l 1,10,-1
 195 571 l 1,11,-1
 281 571 l 2,12,0
 409 571 409 571 479 517 c 128,-1,1
405 235 m 128,-1,14
 448 268 448 268 448 353 c 0,15,16
 448 430 448 430 404.5 463.5 c 128,-1,17
 361 497 361 497 280 497 c 2,18,-1
 195 497 l 1,19,-1
 195 202 l 1,20,-1
 278 202 l 2,21,13
 362 202 362 202 405 235 c 128,-1,14
EndSplineSet
Substitution2: "'c2sc' Capitals to Small Capitals lookup 26 subtable" thorn.sc
Substitution2: "'aalt' Access All Alternates lookup 0 subtable" thorn.sc
Position2: "'cpsp' Capital Spacing lookup 0 subtable" dx=5 dy=0 dh=10 dv=0
EndChar

StartChar: Q
Encoding: 81 81 230
Width: 691
GlyphClass: 2
Flags: W
AnchorPoint: "Anchor-18" 0 0 basechar 0
AnchorPoint: "Anchor-17" 0 0 basechar 0
AnchorPoint: "Anchor-16" 345 689 basechar 0
AnchorPoint: "Anchor-15" 0 0 basechar 0
AnchorPoint: "Anchor-14" 345 0 basechar 0
LayerCount: 2
Fore
SplineSet
579 22.5 m 128,-1,1
 624 6 624 6 666 -23 c 1,2,-1
 604 -103 l 1,3,4
 544 -50 544 -50 490 -30 c 128,-1,5
 436 -10 436 -10 344 -10 c 0,6,7
 258 -10 258 -10 193 30.5 c 128,-1,8
 128 71 128 71 91.5 150.5 c 128,-1,9
 55 230 55 230 55 343 c 0,10,11
 55 454 55 454 91.5 535 c 128,-1,12
 128 616 128 616 194 658.5 c 128,-1,13
 260 701 260 701 346 701 c 0,14,15
 433 701 433 701 498.5 659.5 c 128,-1,16
 564 618 564 618 600.5 538 c 128,-1,17
 637 458 637 458 637 344 c 0,18,19
 637 223 637 223 597 151.5 c 128,-1,20
 557 80 557 80 479 39 c 1,21,0
 534 39 534 39 579 22.5 c 128,-1,1
206.5 133 m 128,-1,23
 257 66 257 66 346 66 c 0,24,25
 536 66 536 66 536 344 c 0,26,27
 536 623 536 623 346 623 c 0,28,29
 256 623 256 623 206 555 c 128,-1,30
 156 487 156 487 156 343 c 0,31,22
 156 200 156 200 206.5 133 c 128,-1,23
EndSplineSet
Substitution2: "'c2sc' Capitals to Small Capitals lookup 26 subtable" q.sc
Substitution2: "'aalt' Access All Alternates lookup 0 subtable" q.sc
Position2: "'cpsp' Capital Spacing lookup 0 subtable" dx=5 dy=0 dh=10 dv=0
EndChar

StartChar: uni024A
Encoding: 586 586 231
Width: 669
GlyphClass: 2
Flags: W
AnchorPoint: "Anchor-18" 0 0 basechar 0
AnchorPoint: "Anchor-17" 0 0 basechar 0
AnchorPoint: "Anchor-16" 335 689 basechar 0
AnchorPoint: "Anchor-15" 0 0 basechar 0
AnchorPoint: "Anchor-14" 335 -202 basechar 0
LayerCount: 2
Fore
SplineSet
740 -175 m 1,0,1
 690 -213 690 -213 625 -213 c 0,2,3
 554 -213 554 -213 514 -173 c 128,-1,4
 474 -133 474 -133 474 -57 c 2,5,-1
 474 46 l 1,6,7
 411 -12 411 -12 324 -12 c 0,8,9
 248 -12 248 -12 187.5 26 c 128,-1,10
 127 64 127 64 91 140.5 c 128,-1,11
 55 217 55 217 55 328 c 0,12,13
 55 445 55 445 90.5 529 c 128,-1,14
 126 613 126 613 188 657 c 128,-1,15
 250 701 250 701 329 701 c 0,16,17
 415 701 415 701 478 643 c 1,18,-1
 485 689 l 1,19,-1
 569 689 l 1,20,-1
 569 -63 l 2,21,22
 569 -137 569 -137 630 -137 c 0,23,24
 653 -137 653 -137 668.5 -131.5 c 128,-1,25
 684 -126 684 -126 703 -115 c 1,26,-1
 740 -175 l 1,0,1
410.5 81 m 128,-1,28
 444 96 444 96 474 126 c 1,29,-1
 474 568 l 1,30,31
 417 623 417 623 340 623 c 0,32,33
 254 623 254 623 205 551 c 128,-1,34
 156 479 156 479 156 328 c 0,35,36
 156 191 156 191 204.5 128.5 c 128,-1,37
 253 66 253 66 333 66 c 0,38,27
 377 66 377 66 410.5 81 c 128,-1,28
EndSplineSet
Substitution2: "'c2sc' Capitals to Small Capitals lookup 26 subtable" uni024B.sc
Substitution2: "'aalt' Access All Alternates lookup 0 subtable" uni024B.sc
Position2: "'cpsp' Capital Spacing lookup 0 subtable" dx=5 dy=0 dh=10 dv=0
EndChar

StartChar: R
Encoding: 82 82 232
Width: 605
GlyphClass: 2
Flags: W
AnchorPoint: "Anchor-18" 0 0 basechar 0
AnchorPoint: "Anchor-17" 0 0 basechar 0
AnchorPoint: "Anchor-16" 299 689 basechar 0
AnchorPoint: "Anchor-15" 0 0 basechar 0
AnchorPoint: "Anchor-14" 309 0 basechar 0
LayerCount: 2
Fore
SplineSet
302 292 m 1,0,-1
 195 292 l 1,1,-1
 195 0 l 1,2,-1
 100 0 l 1,3,-1
 100 689 l 1,4,-1
 281 689 l 2,5,6
 410 689 410 689 476.5 640 c 128,-1,7
 543 591 543 591 543 494 c 0,8,9
 543 422 543 422 506 377 c 128,-1,10
 469 332 469 332 394 309 c 1,11,-1
 580 0 l 1,12,-1
 467 0 l 1,13,-1
 302 292 l 1,0,-1
291 365 m 2,14,15
 366 365 366 365 404 395.5 c 128,-1,16
 442 426 442 426 442 494 c 0,17,18
 442 558 442 558 403.5 586.5 c 128,-1,19
 365 615 365 615 280 615 c 2,20,-1
 195 615 l 1,21,-1
 195 365 l 1,22,-1
 291 365 l 2,14,15
EndSplineSet
Substitution2: "'c2sc' Capitals to Small Capitals lookup 26 subtable" r.sc
Substitution2: "'aalt' Access All Alternates lookup 0 subtable" r.sc
Position2: "'cpsp' Capital Spacing lookup 0 subtable" dx=5 dy=0 dh=10 dv=0
EndChar

StartChar: uni024C
Encoding: 588 588 239
Width: 616
GlyphClass: 2
Flags: W
AnchorPoint: "Anchor-18" 0 0 basechar 0
AnchorPoint: "Anchor-17" 0 0 basechar 0
AnchorPoint: "Anchor-16" 310 689 basechar 0
AnchorPoint: "Anchor-15" 0 0 basechar 0
AnchorPoint: "Anchor-14" 320 0 basechar 0
LayerCount: 2
Fore
SplineSet
478 0 m 1,0,-1
 313 292 l 1,1,-1
 206 292 l 1,2,-1
 206 0 l 1,3,-1
 111 0 l 1,4,-1
 111 292 l 1,5,-1
 20 292 l 1,6,-1
 20 365 l 1,7,-1
 111 365 l 1,8,-1
 111 689 l 1,9,-1
 292 689 l 2,10,11
 421 689 421 689 487.5 640 c 128,-1,12
 554 591 554 591 554 494 c 0,13,14
 554 422 554 422 517 377 c 128,-1,15
 480 332 480 332 405 309 c 1,16,-1
 591 0 l 1,17,-1
 478 0 l 1,0,-1
415 395.5 m 128,-1,19
 453 426 453 426 453 494 c 0,20,21
 453 558 453 558 414.5 586.5 c 128,-1,22
 376 615 376 615 291 615 c 2,23,-1
 206 615 l 1,24,-1
 206 365 l 1,25,-1
 302 365 l 2,26,18
 377 365 377 365 415 395.5 c 128,-1,19
EndSplineSet
Substitution2: "'c2sc' Capitals to Small Capitals lookup 26 subtable" uni024D.sc
Substitution2: "'aalt' Access All Alternates lookup 0 subtable" uni024D.sc
Position2: "'cpsp' Capital Spacing lookup 0 subtable" dx=5 dy=0 dh=10 dv=0
EndChar

StartChar: uni2C64
Encoding: 11364 11364 240
Width: 605
GlyphClass: 2
Flags: W
AnchorPoint: "Anchor-18" 0 0 basechar 0
AnchorPoint: "Anchor-17" 0 0 basechar 0
AnchorPoint: "Anchor-16" 299 689 basechar 0
AnchorPoint: "Anchor-15" 0 0 basechar 0
AnchorPoint: "Anchor-14" 309 0 basechar 0
LayerCount: 2
Fore
SplineSet
256 -137 m 0,1,2
 279 -137 279 -137 294.5 -131.5 c 128,-1,3
 310 -126 310 -126 329 -115 c 1,4,-1
 366 -175 l 1,5,6
 316 -213 316 -213 251 -213 c 0,7,8
 180 -213 180 -213 140 -173 c 128,-1,9
 100 -133 100 -133 100 -57 c 2,10,-1
 100 689 l 1,11,-1
 281 689 l 2,12,13
 410 689 410 689 476.5 640 c 128,-1,14
 543 591 543 591 543 494 c 0,15,16
 543 422 543 422 506 377 c 128,-1,17
 469 332 469 332 394 309 c 1,18,-1
 580 0 l 1,19,-1
 467 0 l 1,20,-1
 302 292 l 1,21,-1
 195 292 l 1,22,-1
 195 -63 l 2,23,0
 195 -137 195 -137 256 -137 c 0,1,2
195 615 m 1,24,-1
 195 365 l 1,25,-1
 291 365 l 2,26,27
 366 365 366 365 404 395.5 c 128,-1,28
 442 426 442 426 442 494 c 0,29,30
 442 558 442 558 403.5 586.5 c 128,-1,31
 365 615 365 615 280 615 c 2,32,-1
 195 615 l 1,24,-1
EndSplineSet
Substitution2: "'ss01' Style Set 1 lookup 33 subtable" uni2C64.ss01
Substitution2: "'salt' Stylistic Alternatives lookup 32 subtable" uni2C64.ss01
Substitution2: "'c2sc' Capitals to Small Capitals lookup 26 subtable" uni2C64.sc
AlternateSubs2: "'aalt' Access All Alternates lookup 1 subtable" uni2C64.sc uni2C64.ss01
Position2: "'cpsp' Capital Spacing lookup 0 subtable" dx=5 dy=0 dh=10 dv=0
EndChar

StartChar: uni2C64.ss01
Encoding: 65544 -1 241
Width: 420
GlyphClass: 2
Flags: W
AnchorPoint: "Anchor-18" 0 0 basechar 0
AnchorPoint: "Anchor-17" 0 0 basechar 0
AnchorPoint: "Anchor-16" 210 689 basechar 0
AnchorPoint: "Anchor-15" 0 0 basechar 0
AnchorPoint: "Anchor-14" 210 -202 basechar 0
LayerCount: 2
Fore
SplineSet
256 -137 m 0,1,2
 279 -137 279 -137 294.5 -131.5 c 128,-1,3
 310 -126 310 -126 329 -115 c 1,4,-1
 366 -175 l 1,5,6
 316 -213 316 -213 251 -213 c 0,7,8
 180 -213 180 -213 140 -173 c 128,-1,9
 100 -133 100 -133 100 -57 c 2,10,-1
 100 689 l 1,11,-1
 182 689 l 1,12,-1
 190 591 l 1,13,14
 215 647 215 647 254 674 c 128,-1,15
 293 701 293 701 353 701 c 0,16,17
 393 701 393 701 420 691 c 1,18,-1
 398 601 l 1,19,20
 372 608 372 608 344 608 c 0,21,22
 285 608 285 608 248.5 571.5 c 128,-1,23
 212 535 212 535 195 459 c 1,24,-1
 195 -63 l 2,25,0
 195 -137 195 -137 256 -137 c 0,1,2
EndSplineSet
Position2: "'cpsp' Capital Spacing lookup 0 subtable" dx=5 dy=0 dh=10 dv=0
EndChar

StartChar: S
Encoding: 83 83 242
Width: 545
GlyphClass: 2
Flags: W
AnchorPoint: "Anchor-18" 0 0 basechar 0
AnchorPoint: "Anchor-17" 0 0 basechar 0
AnchorPoint: "Anchor-16" 276 689 basechar 0
AnchorPoint: "Anchor-15" 0 0 basechar 0
AnchorPoint: "Anchor-14" 267 0 basechar 0
LayerCount: 2
Fore
SplineSet
388 681.5 m 128,-1,1
 437 662 437 662 483 621 c 1,2,-1
 431 563 l 1,3,4
 392 594 392 594 354.5 608.5 c 128,-1,5
 317 623 317 623 274 623 c 0,6,7
 220 623 220 623 185 598 c 128,-1,8
 150 573 150 573 150 525 c 0,9,10
 150 495 150 495 162 474.5 c 128,-1,11
 174 454 174 454 206.5 437 c 128,-1,12
 239 420 239 420 301 401 c 0,13,14
 366 381 366 381 409 358 c 128,-1,15
 452 335 452 335 478.5 294.5 c 128,-1,16
 505 254 505 254 505 192 c 0,17,18
 505 132 505 132 475.5 86 c 128,-1,19
 446 40 446 40 390.5 14 c 128,-1,20
 335 -12 335 -12 259 -12 c 0,21,22
 116 -12 116 -12 25 77 c 1,23,-1
 77 135 l 1,24,25
 119 101 119 101 162 83.5 c 128,-1,26
 205 66 205 66 258 66 c 0,27,28
 322 66 322 66 364 97.5 c 128,-1,29
 406 129 406 129 406 189 c 0,30,31
 406 223 406 223 393 245.5 c 128,-1,32
 380 268 380 268 348.5 286 c 128,-1,33
 317 304 317 304 257 322 c 0,34,35
 151 354 151 354 102 399 c 128,-1,36
 53 444 53 444 53 521 c 0,37,38
 53 573 53 573 80.5 614 c 128,-1,39
 108 655 108 655 157.5 678 c 128,-1,40
 207 701 207 701 270 701 c 0,41,0
 339 701 339 701 388 681.5 c 128,-1,1
EndSplineSet
Substitution2: "'c2sc' Capitals to Small Capitals lookup 26 subtable" s.sc
Substitution2: "'aalt' Access All Alternates lookup 0 subtable" s.sc
Position2: "'cpsp' Capital Spacing lookup 0 subtable" dx=5 dy=0 dh=10 dv=0
EndChar

StartChar: uniA78B
Encoding: 42891 42891 245
Width: 225
GlyphClass: 2
Flags: W
LayerCount: 2
Fore
SplineSet
74 347 m 1,0,-1
 60 689 l 1,1,-1
 165 689 l 1,2,-1
 150 347 l 1,3,-1
 74 347 l 1,0,-1
EndSplineSet
Position2: "'cpsp' Capital Spacing lookup 0 subtable" dx=5 dy=0 dh=10 dv=0
EndChar

StartChar: Scedilla
Encoding: 350 350 247
Width: 545
GlyphClass: 2
Flags: W
AnchorPoint: "Anchor-18" 0 0 basechar 0
AnchorPoint: "Anchor-17" 0 0 basechar 0
AnchorPoint: "Anchor-16" 276 689 basechar 0
AnchorPoint: "Anchor-15" 0 0 basechar 0
AnchorPoint: "Anchor-14" 285 -241 basechar 0
LayerCount: 2
Fore
SplineSet
450 53.5 m 128,-1,1
 395 -1 395 -1 297 -10 c 1,2,-1
 297 -56 l 1,3,4
 345 -60 345 -60 367.5 -83.5 c 128,-1,5
 390 -107 390 -107 390 -141 c 0,6,7
 390 -189 390 -189 355 -215 c 128,-1,8
 320 -241 320 -241 266 -241 c 0,9,10
 238 -241 238 -241 214 -234.5 c 128,-1,11
 190 -228 190 -228 175 -217 c 1,12,-1
 200 -165 l 1,13,14
 230 -181 230 -181 263 -181 c 0,15,16
 286 -181 286 -181 299.5 -171.5 c 128,-1,17
 313 -162 313 -162 313 -141 c 256,18,19
 313 -120 313 -120 292 -109.5 c 128,-1,20
 271 -99 271 -99 224 -99 c 1,21,-1
 235 -11 l 1,22,23
 107 -4 107 -4 25 77 c 1,24,-1
 77 135 l 1,25,26
 119 101 119 101 162 83.5 c 128,-1,27
 205 66 205 66 258 66 c 0,28,29
 322 66 322 66 364 97.5 c 128,-1,30
 406 129 406 129 406 189 c 0,31,32
 406 223 406 223 393 245.5 c 128,-1,33
 380 268 380 268 348.5 286 c 128,-1,34
 317 304 317 304 257 322 c 0,35,36
 151 354 151 354 102 399 c 128,-1,37
 53 444 53 444 53 521 c 0,38,39
 53 573 53 573 80.5 614 c 128,-1,40
 108 655 108 655 157.5 678 c 128,-1,41
 207 701 207 701 270 701 c 0,42,43
 339 701 339 701 388 681.5 c 128,-1,44
 437 662 437 662 483 621 c 1,45,-1
 431 563 l 1,46,47
 392 594 392 594 354.5 608.5 c 128,-1,48
 317 623 317 623 274 623 c 0,49,50
 220 623 220 623 185 598 c 128,-1,51
 150 573 150 573 150 525 c 0,52,53
 150 495 150 495 162 474.5 c 128,-1,54
 174 454 174 454 206.5 437 c 128,-1,55
 239 420 239 420 301 401 c 0,56,57
 366 381 366 381 409 358 c 128,-1,58
 452 335 452 335 478.5 294.5 c 128,-1,59
 505 254 505 254 505 192 c 0,60,0
 505 108 505 108 450 53.5 c 128,-1,1
EndSplineSet
Substitution2: "'c2sc' Capitals to Small Capitals lookup 26 subtable" scedilla.sc
Substitution2: "'locl' Localized Forms in Latin lookup 5 subtable" Scommaaccent
Substitution2: "'locl' Localized Forms in Latin lookup 4 subtable" Scommaaccent
AlternateSubs2: "'aalt' Access All Alternates lookup 1 subtable" Scommaaccent scedilla.sc
Position2: "'cpsp' Capital Spacing lookup 0 subtable" dx=5 dy=0 dh=10 dv=0
EndChar

StartChar: uni1E9E
Encoding: 7838 7838 252
Width: 657
GlyphClass: 2
Flags: W
LayerCount: 2
Fore
SplineSet
564 630 m 1,1,-1
 564 568 l 1,2,-1
 392 388 l 1,3,4
 500 378 500 378 556 328 c 128,-1,5
 612 278 612 278 612 194 c 0,6,7
 612 98 612 98 550.5 43 c 128,-1,8
 489 -12 489 -12 385 -12 c 0,9,10
 311 -12 311 -12 268 11 c 1,11,-1
 298 80 l 1,12,13
 334 66 334 66 379 66 c 0,14,15
 444 66 444 66 478 98 c 128,-1,16
 512 130 512 130 512 193 c 0,17,18
 512 262 512 262 459 293.5 c 128,-1,19
 406 325 406 325 302 325 c 1,20,-1
 302 400 l 1,21,-1
 478 589 l 1,22,23
 397 623 397 623 317 623 c 0,24,25
 195 623 195 623 195 489 c 2,26,-1
 195 0 l 1,27,-1
 100 0 l 1,28,-1
 100 489 l 2,29,30
 100 590 100 590 156 645.5 c 128,-1,31
 212 701 212 701 315 701 c 0,32,0
 437 701 437 701 564 630 c 1,1,-1
EndSplineSet
Substitution2: "'c2sc' Capitals to Small Capitals lookup 26 subtable" germandbls.sc
Substitution2: "'aalt' Access All Alternates lookup 0 subtable" germandbls.sc
Position2: "'cpsp' Capital Spacing lookup 0 subtable" dx=5 dy=0 dh=10 dv=0
EndChar

StartChar: T
Encoding: 84 84 254
Width: 517
GlyphClass: 2
Flags: W
AnchorPoint: "Anchor-18" 259 345 basechar 0
AnchorPoint: "Anchor-17" 0 0 basechar 0
AnchorPoint: "Anchor-16" 259 689 basechar 0
AnchorPoint: "Anchor-15" 0 0 basechar 0
AnchorPoint: "Anchor-14" 259 0 basechar 0
LayerCount: 2
Fore
SplineSet
507 689 m 1,0,-1
 497 608 l 1,1,-1
 306 608 l 1,2,-1
 306 0 l 1,3,-1
 211 0 l 1,4,-1
 211 608 l 1,5,-1
 15 608 l 1,6,-1
 15 689 l 1,7,-1
 507 689 l 1,0,-1
EndSplineSet
Substitution2: "'c2sc' Capitals to Small Capitals lookup 26 subtable" t.sc
Substitution2: "'aalt' Access All Alternates lookup 0 subtable" t.sc
Position2: "'cpsp' Capital Spacing lookup 0 subtable" dx=5 dy=0 dh=10 dv=0
EndChar

StartChar: Tbar
Encoding: 358 358 255
Width: 517
GlyphClass: 2
Flags: W
AnchorPoint: "Anchor-18" 259 343 basechar 0
AnchorPoint: "Anchor-17" 0 0 basechar 0
AnchorPoint: "Anchor-16" 259 687 basechar 0
AnchorPoint: "Anchor-15" 0 0 basechar 0
AnchorPoint: "Anchor-14" 259 -2 basechar 0
LayerCount: 2
Fore
SplineSet
497 606 m 1,0,-1
 306 606 l 1,1,-1
 306 387 l 1,2,-1
 431 387 l 1,3,-1
 431 317 l 1,4,-1
 306 317 l 1,5,-1
 306 -2 l 1,6,-1
 211 -2 l 1,7,-1
 211 317 l 1,8,-1
 88 317 l 1,9,-1
 88 387 l 1,10,-1
 211 387 l 1,11,-1
 211 606 l 1,12,-1
 15 606 l 1,13,-1
 15 687 l 1,14,-1
 507 687 l 1,15,-1
 497 606 l 1,0,-1
EndSplineSet
Substitution2: "'c2sc' Capitals to Small Capitals lookup 26 subtable" tbar.sc
Substitution2: "'aalt' Access All Alternates lookup 0 subtable" tbar.sc
Position2: "'cpsp' Capital Spacing lookup 0 subtable" dx=5 dy=0 dh=10 dv=0
EndChar

StartChar: uni0162
Encoding: 354 354 257
Width: 517
GlyphClass: 2
Flags: W
AnchorPoint: "Anchor-18" 259 345 basechar 0
AnchorPoint: "Anchor-17" 0 0 basechar 0
AnchorPoint: "Anchor-16" 259 689 basechar 0
AnchorPoint: "Anchor-15" 0 0 basechar 0
AnchorPoint: "Anchor-14" 259 0 basechar 0
LayerCount: 2
Fore
SplineSet
378 -84 m 128,-1,1
 402 -108 402 -108 402 -141 c 0,2,3
 402 -189 402 -189 365.5 -215 c 128,-1,4
 329 -241 329 -241 274 -241 c 256,5,6
 219 -241 219 -241 187 -217 c 1,7,-1
 212 -165 l 1,8,9
 228 -173 228 -173 241 -177 c 128,-1,10
 254 -181 254 -181 271 -181 c 0,11,12
 295 -181 295 -181 310 -171.5 c 128,-1,13
 325 -162 325 -162 325 -141 c 256,14,15
 325 -120 325 -120 304 -109.5 c 128,-1,16
 283 -99 283 -99 236 -99 c 1,17,-1
 248 0 l 1,18,-1
 211 0 l 1,19,-1
 211 608 l 1,20,-1
 15 608 l 1,21,-1
 15 689 l 1,22,-1
 507 689 l 1,23,-1
 497 608 l 1,24,-1
 306 608 l 1,25,-1
 306 -56 l 1,26,0
 354 -60 354 -60 378 -84 c 128,-1,1
EndSplineSet
Substitution2: "'c2sc' Capitals to Small Capitals lookup 26 subtable" uni0163.sc
Substitution2: "'locl' Localized Forms in Latin lookup 5 subtable" uni021A
Substitution2: "'locl' Localized Forms in Latin lookup 4 subtable" uni021A
AlternateSubs2: "'aalt' Access All Alternates lookup 1 subtable" uni021A uni0163.sc
Position2: "'cpsp' Capital Spacing lookup 0 subtable" dx=5 dy=0 dh=10 dv=0
EndChar

StartChar: uni023E
Encoding: 574 574 260
Width: 517
GlyphClass: 2
Flags: W
AnchorPoint: "Anchor-18" 0 0 basechar 0
AnchorPoint: "Anchor-17" 0 0 basechar 0
AnchorPoint: "Anchor-16" 259 689 basechar 0
AnchorPoint: "Anchor-15" 0 0 basechar 0
AnchorPoint: "Anchor-14" 259 0 basechar 0
LayerCount: 2
Fore
SplineSet
497 608 m 1,0,-1
 396 608 l 1,1,-1
 305 373 l 1,2,-1
 305 0 l 1,3,-1
 212 0 l 1,4,-1
 212 134 l 1,5,-1
 133 -70 l 1,6,-1
 89 -53 l 1,7,-1
 212 264 l 1,8,-1
 212 608 l 1,9,-1
 15 608 l 1,10,-1
 15 689 l 1,11,-1
 377 689 l 1,12,-1
 403 756 l 1,13,-1
 447 739 l 1,14,-1
 428 689 l 1,15,-1
 507 689 l 1,16,-1
 497 608 l 1,0,-1
305 504 m 1,17,-1
 346 608 l 1,18,-1
 305 608 l 1,19,-1
 305 504 l 1,17,-1
EndSplineSet
Substitution2: "'c2sc' Capitals to Small Capitals lookup 26 subtable" uni2C66.sc
Substitution2: "'aalt' Access All Alternates lookup 0 subtable" uni2C66.sc
Position2: "'cpsp' Capital Spacing lookup 0 subtable" dx=5 dy=0 dh=10 dv=0
EndChar

StartChar: uni01AC
Encoding: 428 428 263
Width: 555
GlyphClass: 2
Flags: W
AnchorPoint: "Anchor-18" 0 0 basechar 0
AnchorPoint: "Anchor-17" 0 0 basechar 0
AnchorPoint: "Anchor-16" 278 689 basechar 0
AnchorPoint: "Anchor-15" 0 0 basechar 0
AnchorPoint: "Anchor-14" 297 0 basechar 0
LayerCount: 2
Fore
SplineSet
535 608 m 1,0,-1
 344 608 l 1,1,-1
 344 0 l 1,2,-1
 249 0 l 1,3,-1
 249 608 l 1,4,-1
 153 608 l 2,5,6
 126 608 126 608 112.5 595.5 c 128,-1,7
 99 583 99 583 99 562 c 0,8,9
 99 545 99 545 104 530.5 c 128,-1,10
 109 516 109 516 119 494 c 1,11,-1
 48 458 l 1,12,13
 10 516 10 516 10 565 c 0,14,15
 10 621 10 621 49 655 c 128,-1,16
 88 689 88 689 159 689 c 2,17,-1
 545 689 l 1,18,-1
 535 608 l 1,0,-1
EndSplineSet
Substitution2: "'c2sc' Capitals to Small Capitals lookup 26 subtable" uni01AD.sc
Substitution2: "'aalt' Access All Alternates lookup 0 subtable" uni01AD.sc
Position2: "'cpsp' Capital Spacing lookup 0 subtable" dx=5 dy=0 dh=10 dv=0
EndChar

StartChar: uni0184
Encoding: 388 388 266
Width: 573
GlyphClass: 2
Flags: W
AnchorPoint: "Anchor-18" 0 0 basechar 0
AnchorPoint: "Anchor-17" 0 0 basechar 0
AnchorPoint: "Anchor-16" 287 689 basechar 0
AnchorPoint: "Anchor-15" 0 0 basechar 0
AnchorPoint: "Anchor-14" 287 0 basechar 0
LayerCount: 2
Fore
SplineSet
478.5 382.5 m 128,-1,1
 548 329 548 329 548 223 c 0,2,3
 548 107 548 107 476.5 53.5 c 128,-1,4
 405 0 405 0 281 0 c 2,5,-1
 99 0 l 1,6,-1
 99 524 l 1,7,-1
 30 566 l 1,8,9
 76 615 76 615 109 689 c 1,10,-1
 194 689 l 1,11,-1
 194 436 l 1,12,-1
 285 436 l 2,13,0
 409 436 409 436 478.5 382.5 c 128,-1,1
406 107.5 m 128,-1,15
 447 139 447 139 447 221 c 0,16,17
 447 297 447 297 406.5 329.5 c 128,-1,18
 366 362 366 362 286 362 c 2,19,-1
 194 362 l 1,20,-1
 194 76 l 1,21,-1
 289 76 l 2,22,14
 365 76 365 76 406 107.5 c 128,-1,15
EndSplineSet
Substitution2: "'c2sc' Capitals to Small Capitals lookup 26 subtable" uni0185.sc
Substitution2: "'aalt' Access All Alternates lookup 0 subtable" uni0185.sc
Position2: "'cpsp' Capital Spacing lookup 0 subtable" dx=5 dy=0 dh=10 dv=0
EndChar

StartChar: uni01A7
Encoding: 423 423 267
Width: 537
GlyphClass: 2
Flags: W
AnchorPoint: "Anchor-18" 0 0 basechar 0
AnchorPoint: "Anchor-17" 0 0 basechar 0
AnchorPoint: "Anchor-16" 269 689 basechar 0
AnchorPoint: "Anchor-15" 0 0 basechar 0
AnchorPoint: "Anchor-14" 269 0 basechar 0
LayerCount: 2
Fore
SplineSet
433.5 653.5 m 128,-1,1
 492 606 492 606 492 528 c 256,2,3
 492 450 492 450 442.5 405 c 128,-1,4
 393 360 393 360 288 327 c 0,5,6
 203 301 203 301 171 268.5 c 128,-1,7
 139 236 139 236 139 185 c 0,8,9
 139 128 139 128 179 97 c 128,-1,10
 219 66 219 66 279 66 c 0,11,12
 377 66 377 66 460 134 c 1,13,-1
 512 77 l 1,14,15
 420 -12 420 -12 276 -12 c 0,16,17
 205 -12 205 -12 151.5 13.5 c 128,-1,18
 98 39 98 39 69 84 c 128,-1,19
 40 129 40 129 40 185 c 0,20,21
 40 273 40 273 93 319.5 c 128,-1,22
 146 366 146 366 244 396 c 0,23,24
 305 415 305 415 337 433 c 128,-1,25
 369 451 369 451 381 473 c 128,-1,26
 393 495 393 495 393 528 c 0,27,28
 393 577 393 577 361.5 600 c 128,-1,29
 330 623 330 623 276 623 c 0,30,31
 230 623 230 623 191.5 609 c 128,-1,32
 153 595 153 595 114 564 c 1,33,-1
 62 621 l 1,34,35
 110 661 110 661 162 681 c 128,-1,36
 214 701 214 701 280 701 c 0,37,0
 375 701 375 701 433.5 653.5 c 128,-1,1
EndSplineSet
Substitution2: "'c2sc' Capitals to Small Capitals lookup 26 subtable" uni01A8.sc
Substitution2: "'aalt' Access All Alternates lookup 0 subtable" uni01A8.sc
Position2: "'cpsp' Capital Spacing lookup 0 subtable" dx=5 dy=0 dh=10 dv=0
EndChar

StartChar: uni01AE
Encoding: 430 430 268
Width: 517
GlyphClass: 2
Flags: W
AnchorPoint: "Anchor-18" 259 345 basechar 0
AnchorPoint: "Anchor-17" 0 0 basechar 0
AnchorPoint: "Anchor-16" 259 689 basechar 0
AnchorPoint: "Anchor-15" 0 0 basechar 0
AnchorPoint: "Anchor-14" 259 0 basechar 0
LayerCount: 2
Fore
SplineSet
367 -137 m 0,1,2
 390 -137 390 -137 405.5 -131.5 c 128,-1,3
 421 -126 421 -126 440 -115 c 1,4,-1
 477 -175 l 1,5,6
 427 -213 427 -213 362 -213 c 0,7,8
 291 -213 291 -213 251 -173 c 128,-1,9
 211 -133 211 -133 211 -57 c 2,10,-1
 211 608 l 1,11,-1
 15 608 l 1,12,-1
 15 689 l 1,13,-1
 507 689 l 1,14,-1
 497 608 l 1,15,-1
 306 608 l 1,16,-1
 306 -63 l 2,17,0
 306 -137 306 -137 367 -137 c 0,1,2
EndSplineSet
Substitution2: "'c2sc' Capitals to Small Capitals lookup 26 subtable" uni0288.sc
Substitution2: "'aalt' Access All Alternates lookup 0 subtable" uni0288.sc
Position2: "'cpsp' Capital Spacing lookup 0 subtable" dx=5 dy=0 dh=10 dv=0
EndChar

StartChar: U
Encoding: 85 85 269
Width: 662
GlyphClass: 2
Flags: W
AnchorPoint: "Anchor-18" 0 0 basechar 0
AnchorPoint: "Anchor-17" 582 689 basechar 0
AnchorPoint: "Anchor-16" 331 689 basechar 0
AnchorPoint: "Anchor-15" 428 0 basechar 0
AnchorPoint: "Anchor-14" 331 0 basechar 0
LayerCount: 2
Fore
SplineSet
572 221 m 2,0,1
 572 152 572 152 543.5 99.5 c 128,-1,2
 515 47 515 47 460.5 17.5 c 128,-1,3
 406 -12 406 -12 330 -12 c 0,4,5
 215 -12 215 -12 152.5 51.5 c 128,-1,6
 90 115 90 115 90 221 c 2,7,-1
 90 689 l 1,8,-1
 185 689 l 1,9,-1
 185 228 l 2,10,11
 185 148 185 148 221 108 c 128,-1,12
 257 68 257 68 330 68 c 0,13,14
 404 68 404 68 440 107.5 c 128,-1,15
 476 147 476 147 476 228 c 2,16,-1
 476 689 l 1,17,-1
 572 689 l 1,18,-1
 572 221 l 2,0,1
EndSplineSet
Substitution2: "'c2sc' Capitals to Small Capitals lookup 26 subtable" u.sc
Substitution2: "'aalt' Access All Alternates lookup 0 subtable" u.sc
Position2: "'cpsp' Capital Spacing lookup 0 subtable" dx=5 dy=0 dh=10 dv=0
EndChar

StartChar: uni0244
Encoding: 580 580 271
Width: 690
GlyphClass: 2
Flags: W
AnchorPoint: "Anchor-18" 0 0 basechar 0
AnchorPoint: "Anchor-17" 596 689 basechar 0
AnchorPoint: "Anchor-16" 345 689 basechar 0
AnchorPoint: "Anchor-15" 442 0 basechar 0
AnchorPoint: "Anchor-14" 345 0 basechar 0
LayerCount: 2
Fore
SplineSet
655 508 m 1,0,-1
 586 508 l 1,1,-1
 586 221 l 2,2,3
 586 152 586 152 557.5 99.5 c 128,-1,4
 529 47 529 47 474.5 17.5 c 128,-1,5
 420 -12 420 -12 344 -12 c 0,6,7
 229 -12 229 -12 166.5 51.5 c 128,-1,8
 104 115 104 115 104 221 c 2,9,-1
 104 508 l 1,10,-1
 35 508 l 1,11,-1
 35 577 l 1,12,-1
 104 577 l 1,13,-1
 104 689 l 1,14,-1
 199 689 l 1,15,-1
 199 577 l 1,16,-1
 490 577 l 1,17,-1
 490 689 l 1,18,-1
 586 689 l 1,19,-1
 586 577 l 1,20,-1
 655 577 l 1,21,-1
 655 508 l 1,0,-1
490 508 m 1,22,-1
 199 508 l 1,23,-1
 199 228 l 2,24,25
 199 148 199 148 235 108 c 128,-1,26
 271 68 271 68 344 68 c 0,27,28
 418 68 418 68 454 107.5 c 128,-1,29
 490 147 490 147 490 228 c 2,30,-1
 490 508 l 1,22,-1
EndSplineSet
Substitution2: "'c2sc' Capitals to Small Capitals lookup 26 subtable" uni0289.sc
Substitution2: "'aalt' Access All Alternates lookup 0 subtable" uni0289.sc
Position2: "'cpsp' Capital Spacing lookup 0 subtable" dx=5 dy=0 dh=10 dv=0
EndChar

StartChar: Uhorn
Encoding: 431 431 284
Width: 676
GlyphClass: 2
Flags: W
AnchorPoint: "Anchor-18" 0 0 basechar 0
AnchorPoint: "Anchor-17" 634 689 basechar 0
AnchorPoint: "Anchor-16" 331 689 basechar 0
AnchorPoint: "Anchor-15" 428 0 basechar 0
AnchorPoint: "Anchor-14" 331 0 basechar 0
LayerCount: 2
Fore
SplineSet
696 691 m 0,1,2
 696 640 696 640 664.5 612.5 c 128,-1,3
 633 585 633 585 572 583 c 1,4,-1
 572 221 l 2,5,6
 572 152 572 152 543.5 99.5 c 128,-1,7
 515 47 515 47 460.5 17.5 c 128,-1,8
 406 -12 406 -12 330 -12 c 0,9,10
 215 -12 215 -12 152.5 51.5 c 128,-1,11
 90 115 90 115 90 221 c 2,12,-1
 90 689 l 1,13,-1
 185 689 l 1,14,-1
 185 228 l 2,15,16
 185 148 185 148 221 108 c 128,-1,17
 257 68 257 68 330 68 c 0,18,19
 404 68 404 68 440 107.5 c 128,-1,20
 476 147 476 147 476 228 c 2,21,-1
 476 689 l 1,22,-1
 572 689 l 1,23,-1
 572 636 l 1,24,25
 619 645 619 645 619 686 c 0,26,27
 619 709 619 709 615.5 724.5 c 128,-1,28
 612 740 612 740 605 758 c 1,29,-1
 677 773 l 1,30,0
 696 740 696 740 696 691 c 0,1,2
EndSplineSet
Substitution2: "'c2sc' Capitals to Small Capitals lookup 26 subtable" uhorn.sc
Substitution2: "'aalt' Access All Alternates lookup 0 subtable" uhorn.sc
Position2: "'cpsp' Capital Spacing lookup 0 subtable" dx=5 dy=0 dh=10 dv=0
EndChar

StartChar: uni1EE8
Encoding: 7912 7912 285
Width: 676
GlyphClass: 2
Flags: W
AnchorPoint: "Anchor-18" 0 0 basechar 0
AnchorPoint: "Anchor-17" 634 689 basechar 0
AnchorPoint: "Anchor-16" 333 911 basechar 0
AnchorPoint: "Anchor-15" 428 0 basechar 0
AnchorPoint: "Anchor-14" 331 0 basechar 0
LayerCount: 2
Fore
SplineSet
451 834 m 1,0,-1
 235 755 l 1,1,-1
 211 804 l 1,2,-1
 411 911 l 1,3,-1
 451 834 l 1,0,-1
696 691 m 0,5,6
 696 640 696 640 664.5 612.5 c 128,-1,7
 633 585 633 585 572 583 c 1,8,-1
 572 221 l 2,9,10
 572 152 572 152 543.5 99.5 c 128,-1,11
 515 47 515 47 460.5 17.5 c 128,-1,12
 406 -12 406 -12 330 -12 c 0,13,14
 215 -12 215 -12 152.5 51.5 c 128,-1,15
 90 115 90 115 90 221 c 2,16,-1
 90 689 l 1,17,-1
 185 689 l 1,18,-1
 185 228 l 2,19,20
 185 148 185 148 221 108 c 128,-1,21
 257 68 257 68 330 68 c 0,22,23
 404 68 404 68 440 107.5 c 128,-1,24
 476 147 476 147 476 228 c 2,25,-1
 476 689 l 1,26,-1
 572 689 l 1,27,-1
 572 636 l 1,28,29
 619 645 619 645 619 686 c 0,30,31
 619 709 619 709 615.5 724.5 c 128,-1,32
 612 740 612 740 605 758 c 1,33,-1
 677 773 l 1,34,4
 696 740 696 740 696 691 c 0,5,6
EndSplineSet
Substitution2: "'c2sc' Capitals to Small Capitals lookup 26 subtable" uni1EE9.sc
Substitution2: "'aalt' Access All Alternates lookup 0 subtable" uni1EE9.sc
Position2: "'cpsp' Capital Spacing lookup 0 subtable" dx=5 dy=0 dh=10 dv=0
EndChar

StartChar: uni1EF0
Encoding: 7920 7920 286
Width: 676
GlyphClass: 2
Flags: W
AnchorPoint: "Anchor-18" 0 0 basechar 0
AnchorPoint: "Anchor-17" 634 689 basechar 0
AnchorPoint: "Anchor-16" 331 689 basechar 0
AnchorPoint: "Anchor-15" 428 0 basechar 0
AnchorPoint: "Anchor-14" 333 -202 basechar 0
LayerCount: 2
Fore
SplineSet
696 691 m 0,1,2
 696 640 696 640 664.5 612.5 c 128,-1,3
 633 585 633 585 572 583 c 1,4,-1
 572 221 l 2,5,6
 572 152 572 152 543.5 99.5 c 128,-1,7
 515 47 515 47 460.5 17.5 c 128,-1,8
 406 -12 406 -12 330 -12 c 0,9,10
 215 -12 215 -12 152.5 51.5 c 128,-1,11
 90 115 90 115 90 221 c 2,12,-1
 90 689 l 1,13,-1
 185 689 l 1,14,-1
 185 228 l 2,15,16
 185 148 185 148 221 108 c 128,-1,17
 257 68 257 68 330 68 c 0,18,19
 404 68 404 68 440 107.5 c 128,-1,20
 476 147 476 147 476 228 c 2,21,-1
 476 689 l 1,22,-1
 572 689 l 1,23,-1
 572 636 l 1,24,25
 619 645 619 645 619 686 c 0,26,27
 619 709 619 709 615.5 724.5 c 128,-1,28
 612 740 612 740 605 758 c 1,29,-1
 677 773 l 1,30,0
 696 740 696 740 696 691 c 0,1,2
377 -91.5 m 128,-1,32
 395 -109 395 -109 395 -136 c 256,33,34
 395 -163 395 -163 377 -181 c 128,-1,35
 359 -199 359 -199 331 -199 c 0,36,37
 302 -199 302 -199 284 -181 c 128,-1,38
 266 -163 266 -163 266 -136 c 256,39,40
 266 -109 266 -109 284 -91.5 c 128,-1,41
 302 -74 302 -74 331 -74 c 0,42,31
 359 -74 359 -74 377 -91.5 c 128,-1,32
EndSplineSet
Substitution2: "'c2sc' Capitals to Small Capitals lookup 26 subtable" uni1EF1.sc
Substitution2: "'aalt' Access All Alternates lookup 0 subtable" uni1EF1.sc
Position2: "'cpsp' Capital Spacing lookup 0 subtable" dx=5 dy=0 dh=10 dv=0
EndChar

StartChar: uni1EEA
Encoding: 7914 7914 287
Width: 676
GlyphClass: 2
Flags: W
AnchorPoint: "Anchor-18" 0 0 basechar 0
AnchorPoint: "Anchor-17" 634 689 basechar 0
AnchorPoint: "Anchor-16" 331 911 basechar 0
AnchorPoint: "Anchor-15" 428 0 basechar 0
AnchorPoint: "Anchor-14" 331 0 basechar 0
LayerCount: 2
Fore
SplineSet
441 804 m 1,0,-1
 417 755 l 1,1,-1
 201 834 l 1,2,-1
 240 911 l 1,3,-1
 441 804 l 1,0,-1
696 691 m 0,5,6
 696 640 696 640 664.5 612.5 c 128,-1,7
 633 585 633 585 572 583 c 1,8,-1
 572 221 l 2,9,10
 572 152 572 152 543.5 99.5 c 128,-1,11
 515 47 515 47 460.5 17.5 c 128,-1,12
 406 -12 406 -12 330 -12 c 0,13,14
 215 -12 215 -12 152.5 51.5 c 128,-1,15
 90 115 90 115 90 221 c 2,16,-1
 90 689 l 1,17,-1
 185 689 l 1,18,-1
 185 228 l 2,19,20
 185 148 185 148 221 108 c 128,-1,21
 257 68 257 68 330 68 c 0,22,23
 404 68 404 68 440 107.5 c 128,-1,24
 476 147 476 147 476 228 c 2,25,-1
 476 689 l 1,26,-1
 572 689 l 1,27,-1
 572 636 l 1,28,29
 619 645 619 645 619 686 c 0,30,31
 619 709 619 709 615.5 724.5 c 128,-1,32
 612 740 612 740 605 758 c 1,33,-1
 677 773 l 1,34,4
 696 740 696 740 696 691 c 0,5,6
EndSplineSet
Substitution2: "'c2sc' Capitals to Small Capitals lookup 26 subtable" uni1EEB.sc
Substitution2: "'aalt' Access All Alternates lookup 0 subtable" uni1EEB.sc
Position2: "'cpsp' Capital Spacing lookup 0 subtable" dx=5 dy=0 dh=10 dv=0
EndChar

StartChar: uni1EEC
Encoding: 7916 7916 288
Width: 676
GlyphClass: 2
Flags: W
AnchorPoint: "Anchor-18" 0 0 basechar 0
AnchorPoint: "Anchor-17" 634 689 basechar 0
AnchorPoint: "Anchor-16" 347 987 basechar 0
AnchorPoint: "Anchor-15" 428 0 basechar 0
AnchorPoint: "Anchor-14" 331 0 basechar 0
LayerCount: 2
Fore
SplineSet
266 913 m 1,1,-1
 244 964 l 1,2,3
 285 988 285 988 338 988 c 0,4,5
 389 988 389 988 417.5 963 c 128,-1,6
 446 938 446 938 446 895 c 0,7,8
 446 824 446 824 365 811 c 1,9,-1
 365 763 l 1,10,-1
 296 763 l 1,11,-1
 296 847 l 1,12,13
 335 852 335 852 351 860.5 c 128,-1,14
 367 869 367 869 367 890 c 0,15,16
 367 908 367 908 355 917 c 128,-1,17
 343 926 343 926 323 926 c 0,18,0
 295 926 295 926 266 913 c 1,1,-1
696 691 m 0,20,21
 696 640 696 640 664.5 612.5 c 128,-1,22
 633 585 633 585 572 583 c 1,23,-1
 572 221 l 2,24,25
 572 152 572 152 543.5 99.5 c 128,-1,26
 515 47 515 47 460.5 17.5 c 128,-1,27
 406 -12 406 -12 330 -12 c 0,28,29
 215 -12 215 -12 152.5 51.5 c 128,-1,30
 90 115 90 115 90 221 c 2,31,-1
 90 689 l 1,32,-1
 185 689 l 1,33,-1
 185 228 l 2,34,35
 185 148 185 148 221 108 c 128,-1,36
 257 68 257 68 330 68 c 0,37,38
 404 68 404 68 440 107.5 c 128,-1,39
 476 147 476 147 476 228 c 2,40,-1
 476 689 l 1,41,-1
 572 689 l 1,42,-1
 572 636 l 1,43,44
 619 645 619 645 619 686 c 0,45,46
 619 709 619 709 615.5 724.5 c 128,-1,47
 612 740 612 740 605 758 c 1,48,-1
 677 773 l 1,49,19
 696 740 696 740 696 691 c 0,20,21
EndSplineSet
Substitution2: "'c2sc' Capitals to Small Capitals lookup 26 subtable" uni1EED.sc
Substitution2: "'aalt' Access All Alternates lookup 0 subtable" uni1EED.sc
Position2: "'cpsp' Capital Spacing lookup 0 subtable" dx=5 dy=0 dh=10 dv=0
EndChar

StartChar: uni1EEE
Encoding: 7918 7918 289
Width: 676
GlyphClass: 2
Flags: W
AnchorPoint: "Anchor-18" 0 0 basechar 0
AnchorPoint: "Anchor-17" 634 689 basechar 0
AnchorPoint: "Anchor-16" 333 900 basechar 0
AnchorPoint: "Anchor-15" 428 0 basechar 0
AnchorPoint: "Anchor-14" 331 0 basechar 0
LayerCount: 2
Fore
SplineSet
245 819 m 128,-1,1
 233 808 233 808 220 784 c 1,2,-1
 164 812 l 1,3,4
 183 852 183 852 210.5 876 c 128,-1,5
 238 900 238 900 273 900 c 0,6,7
 294 900 294 900 309 892.5 c 128,-1,8
 324 885 324 885 343 872 c 0,9,10
 346 870 346 870 355.5 864 c 128,-1,11
 365 858 365 858 373 855 c 128,-1,12
 381 852 381 852 389 852 c 0,13,14
 404 852 404 852 416 862.5 c 128,-1,15
 428 873 428 873 442 896 c 1,16,-1
 498 868 l 1,17,18
 479 826 479 826 451 804 c 128,-1,19
 423 782 423 782 389 782 c 0,20,21
 370 782 370 782 354.5 789 c 128,-1,22
 339 796 339 796 320 809 c 0,23,24
 305 820 305 820 294.5 825 c 128,-1,25
 284 830 284 830 273 830 c 0,26,0
 257 830 257 830 245 819 c 128,-1,1
696 691 m 0,28,29
 696 640 696 640 664.5 612.5 c 128,-1,30
 633 585 633 585 572 583 c 1,31,-1
 572 221 l 2,32,33
 572 152 572 152 543.5 99.5 c 128,-1,34
 515 47 515 47 460.5 17.5 c 128,-1,35
 406 -12 406 -12 330 -12 c 0,36,37
 215 -12 215 -12 152.5 51.5 c 128,-1,38
 90 115 90 115 90 221 c 2,39,-1
 90 689 l 1,40,-1
 185 689 l 1,41,-1
 185 228 l 2,42,43
 185 148 185 148 221 108 c 128,-1,44
 257 68 257 68 330 68 c 0,45,46
 404 68 404 68 440 107.5 c 128,-1,47
 476 147 476 147 476 228 c 2,48,-1
 476 689 l 1,49,-1
 572 689 l 1,50,-1
 572 636 l 1,51,52
 619 645 619 645 619 686 c 0,53,54
 619 709 619 709 615.5 724.5 c 128,-1,55
 612 740 612 740 605 758 c 1,56,-1
 677 773 l 1,57,27
 696 740 696 740 696 691 c 0,28,29
EndSplineSet
Substitution2: "'c2sc' Capitals to Small Capitals lookup 26 subtable" uni1EEF.sc
Substitution2: "'aalt' Access All Alternates lookup 0 subtable" uni1EEF.sc
Position2: "'cpsp' Capital Spacing lookup 0 subtable" dx=5 dy=0 dh=10 dv=0
EndChar

StartChar: Uogonek
Encoding: 370 370 293
Width: 662
GlyphClass: 2
Flags: W
AnchorPoint: "Anchor-18" 0 0 basechar 0
AnchorPoint: "Anchor-17" 582 689 basechar 0
AnchorPoint: "Anchor-16" 331 689 basechar 0
AnchorPoint: "Anchor-15" 428 0 basechar 0
AnchorPoint: "Anchor-14" 331 0 basechar 0
LayerCount: 2
Fore
SplineSet
572 689 m 1,0,-1
 572 221 l 2,1,2
 572 139 572 139 532 80.5 c 128,-1,3
 492 22 492 22 418 0 c 1,4,5
 347 -31 347 -31 321 -57.5 c 128,-1,6
 295 -84 295 -84 295 -114 c 0,7,8
 295 -162 295 -162 351 -162 c 0,9,10
 378 -162 378 -162 412 -155 c 1,11,-1
 403 -225 l 1,12,13
 368 -232 368 -232 340 -232 c 0,14,15
 283 -232 283 -232 249 -203.5 c 128,-1,16
 215 -175 215 -175 215 -131 c 0,17,18
 215 -54 215 -54 310 -11 c 1,19,20
 204 -6 204 -6 147 57 c 128,-1,21
 90 120 90 120 90 221 c 2,22,-1
 90 689 l 1,23,-1
 185 689 l 1,24,-1
 185 228 l 2,25,26
 185 148 185 148 221 108 c 128,-1,27
 257 68 257 68 330 68 c 0,28,29
 404 68 404 68 440 107.5 c 128,-1,30
 476 147 476 147 476 228 c 2,31,-1
 476 689 l 1,32,-1
 572 689 l 1,0,-1
EndSplineSet
Substitution2: "'c2sc' Capitals to Small Capitals lookup 26 subtable" uogonek.sc
Substitution2: "'aalt' Access All Alternates lookup 0 subtable" uogonek.sc
Position2: "'cpsp' Capital Spacing lookup 0 subtable" dx=5 dy=0 dh=10 dv=0
EndChar

StartChar: uni01B1
Encoding: 433 433 294
Width: 692
GlyphClass: 2
Flags: W
AnchorPoint: "Anchor-18" 0 0 basechar 0
AnchorPoint: "Anchor-17" 0 0 basechar 0
AnchorPoint: "Anchor-16" 346 689 basechar 0
AnchorPoint: "Anchor-15" 0 0 basechar 0
AnchorPoint: "Anchor-14" 346 0 basechar 0
LayerCount: 2
Fore
SplineSet
192 27.5 m 128,-1,1
 126 67 126 67 90.5 141 c 128,-1,2
 55 215 55 215 55 315 c 0,3,4
 55 424 55 424 89 491 c 128,-1,5
 123 558 123 558 184 611 c 1,6,-1
 77 611 l 1,7,-1
 77 689 l 1,8,-1
 279 689 l 1,9,-1
 279 611 l 1,10,11
 215 560 215 560 185.5 492.5 c 128,-1,12
 156 425 156 425 156 315 c 0,13,14
 156 191 156 191 206 128.5 c 128,-1,15
 256 66 256 66 346 66 c 0,16,17
 435 66 435 66 485.5 129 c 128,-1,18
 536 192 536 192 536 316 c 0,19,20
 536 422 536 422 505 490 c 128,-1,21
 474 558 474 558 414 611 c 1,22,-1
 414 689 l 1,23,-1
 616 689 l 1,24,-1
 616 611 l 1,25,-1
 509 611 l 1,26,27
 568 567 568 567 602.5 498.5 c 128,-1,28
 637 430 637 430 637 316 c 0,29,30
 637 219 637 219 600 144.5 c 128,-1,31
 563 70 563 70 497 29 c 128,-1,32
 431 -12 431 -12 346 -12 c 0,33,0
 258 -12 258 -12 192 27.5 c 128,-1,1
EndSplineSet
Substitution2: "'c2sc' Capitals to Small Capitals lookup 26 subtable" uni01B1.sc
Substitution2: "'aalt' Access All Alternates lookup 0 subtable" uni01B1.sc
Position2: "'cpsp' Capital Spacing lookup 0 subtable" dx=5 dy=0 dh=10 dv=0
EndChar

StartChar: V
Encoding: 86 86 298
Width: 556
GlyphClass: 2
Flags: W
AnchorPoint: "Anchor-18" 0 0 basechar 0
AnchorPoint: "Anchor-17" 0 0 basechar 0
AnchorPoint: "Anchor-16" 278 689 basechar 0
AnchorPoint: "Anchor-15" 0 0 basechar 0
AnchorPoint: "Anchor-14" 278 0 basechar 0
LayerCount: 2
Fore
SplineSet
550 689 m 1,0,-1
 330 0 l 1,1,-1
 228 0 l 1,2,-1
 6 689 l 1,3,-1
 108 689 l 1,4,-1
 281 103 l 1,5,-1
 454 689 l 1,6,-1
 550 689 l 1,0,-1
EndSplineSet
Substitution2: "'c2sc' Capitals to Small Capitals lookup 26 subtable" v.sc
Substitution2: "'aalt' Access All Alternates lookup 0 subtable" v.sc
Position2: "'cpsp' Capital Spacing lookup 0 subtable" dx=5 dy=0 dh=10 dv=0
EndChar

StartChar: uni01B2
Encoding: 434 434 299
Width: 662
GlyphClass: 2
Flags: W
AnchorPoint: "Anchor-18" 0 0 basechar 0
AnchorPoint: "Anchor-17" 0 0 basechar 0
AnchorPoint: "Anchor-16" 324 689 basechar 0
AnchorPoint: "Anchor-15" 0 0 basechar 0
AnchorPoint: "Anchor-14" 324 0 basechar 0
LayerCount: 2
Fore
SplineSet
541.5 669.5 m 128,-1,1
 572 638 572 638 572 574 c 2,2,-1
 572 301 l 2,3,4
 572 206 572 206 540 135.5 c 128,-1,5
 508 65 508 65 449 26.5 c 128,-1,6
 390 -12 390 -12 312 -12 c 0,7,8
 244 -12 244 -12 194 17 c 128,-1,9
 144 46 144 46 117 96.5 c 128,-1,10
 90 147 90 147 90 211 c 2,11,-1
 90 689 l 1,12,-1
 185 689 l 1,13,-1
 185 216 l 2,14,15
 185 145 185 145 218 106.5 c 128,-1,16
 251 68 251 68 312 68 c 0,17,18
 392 68 392 68 434 129 c 128,-1,19
 476 190 476 190 476 308 c 2,20,-1
 476 573 l 2,21,22
 476 601 476 601 467.5 612.5 c 128,-1,23
 459 624 459 624 438 624 c 0,24,25
 418 624 418 624 401 617 c 1,26,-1
 377 683 l 1,27,28
 410 701 410 701 453 701 c 0,29,0
 511 701 511 701 541.5 669.5 c 128,-1,1
EndSplineSet
Substitution2: "'c2sc' Capitals to Small Capitals lookup 26 subtable" uni028B.sc
Substitution2: "'aalt' Access All Alternates lookup 0 subtable" uni028B.sc
Position2: "'cpsp' Capital Spacing lookup 0 subtable" dx=5 dy=0 dh=10 dv=0
EndChar

StartChar: W
Encoding: 87 87 301
Width: 826
GlyphClass: 2
Flags: W
AnchorPoint: "Anchor-18" 0 0 basechar 0
AnchorPoint: "Anchor-17" 0 0 basechar 0
AnchorPoint: "Anchor-16" 413 689 basechar 0
AnchorPoint: "Anchor-15" 0 0 basechar 0
AnchorPoint: "Anchor-14" 413 0 basechar 0
LayerCount: 2
Fore
SplineSet
801 689 m 1,0,-1
 661 0 l 1,1,-1
 539 0 l 1,2,-1
 412 577 l 1,3,-1
 284 0 l 1,4,-1
 165 0 l 1,5,-1
 25 689 l 1,6,-1
 118 689 l 1,7,-1
 229 83 l 1,8,-1
 362 689 l 1,9,-1
 463 689 l 1,10,-1
 599 83 l 1,11,-1
 714 689 l 1,12,-1
 801 689 l 1,0,-1
EndSplineSet
Substitution2: "'c2sc' Capitals to Small Capitals lookup 26 subtable" w.sc
Substitution2: "'aalt' Access All Alternates lookup 0 subtable" w.sc
Position2: "'cpsp' Capital Spacing lookup 0 subtable" dx=5 dy=0 dh=10 dv=0
EndChar

StartChar: uni2C72
Encoding: 11378 11378 306
Width: 866
GlyphClass: 2
Flags: W
AnchorPoint: "Anchor-18" 0 0 basechar 0
AnchorPoint: "Anchor-17" 0 0 basechar 0
AnchorPoint: "Anchor-16" 413 689 basechar 0
AnchorPoint: "Anchor-15" 0 0 basechar 0
AnchorPoint: "Anchor-14" 412 0 basechar 0
LayerCount: 2
Fore
SplineSet
165 0 m 1,0,-1
 284 0 l 1,1,-1
 412 577 l 1,2,-1
 539 0 l 1,3,-1
 661 0 l 1,4,-1
 762 561 l 2,5,6
 769 599 769 599 782.5 614 c 128,-1,7
 796 629 796 629 825 629 c 0,8,9
 856 629 856 629 885 607 c 1,10,-1
 921 661 l 1,11,12
 897 680 897 680 872.5 690.5 c 128,-1,13
 848 701 848 701 817 701 c 0,14,15
 761 701 761 701 727 670.5 c 128,-1,16
 693 640 693 640 682 573 c 2,17,-1
 599 83 l 1,18,-1
 463 689 l 1,19,-1
 362 689 l 1,20,-1
 229 83 l 1,21,-1
 118 689 l 1,22,-1
 25 689 l 1,23,-1
 165 0 l 1,0,-1
EndSplineSet
Substitution2: "'c2sc' Capitals to Small Capitals lookup 26 subtable" uni2C73.sc
Substitution2: "'aalt' Access All Alternates lookup 0 subtable" uni2C73.sc
Position2: "'cpsp' Capital Spacing lookup 0 subtable" dx=5 dy=0 dh=10 dv=0
EndChar

StartChar: uni01F7
Encoding: 503 503 307
Width: 581
GlyphClass: 2
Flags: W
AnchorPoint: "Anchor-18" 0 0 basechar 0
AnchorPoint: "Anchor-17" 0 0 basechar 0
AnchorPoint: "Anchor-16" 291 689 basechar 0
AnchorPoint: "Anchor-15" 0 0 basechar 0
AnchorPoint: "Anchor-14" 291 0 basechar 0
LayerCount: 2
Fore
SplineSet
452 678.5 m 128,-1,1
 496 656 496 656 522.5 613 c 128,-1,2
 549 570 549 570 549 510 c 0,3,4
 549 439 549 439 514 387.5 c 128,-1,5
 479 336 479 336 421.5 301.5 c 128,-1,6
 364 267 364 267 282 235 c 2,7,-1
 195 201 l 1,8,-1
 195 0 l 1,9,-1
 100 0 l 1,10,-1
 100 689 l 1,11,-1
 195 689 l 1,12,-1
 195 637 l 1,13,14
 262 701 262 701 355 701 c 0,15,0
 408 701 408 701 452 678.5 c 128,-1,1
448 511 m 0,17,18
 448 566 448 566 419 594.5 c 128,-1,19
 390 623 390 623 337 623 c 0,20,21
 254 623 254 623 195 563 c 1,22,-1
 195 279 l 1,23,-1
 278 313 l 2,24,16
 448 382 448 382 448 511 c 0,17,18
EndSplineSet
Substitution2: "'c2sc' Capitals to Small Capitals lookup 26 subtable" uni01BF.sc
Substitution2: "'aalt' Access All Alternates lookup 0 subtable" uni01BF.sc
Position2: "'cpsp' Capital Spacing lookup 0 subtable" dx=5 dy=0 dh=10 dv=0
EndChar

StartChar: X
Encoding: 88 88 308
Width: 540
GlyphClass: 2
Flags: W
AnchorPoint: "Anchor-18" 0 0 basechar 0
AnchorPoint: "Anchor-17" 0 0 basechar 0
AnchorPoint: "Anchor-16" 270 689 basechar 0
AnchorPoint: "Anchor-15" 0 0 basechar 0
AnchorPoint: "Anchor-14" 270 0 basechar 0
LayerCount: 2
Fore
SplineSet
325 372 m 1,0,-1
 535 0 l 1,1,-1
 427 0 l 1,2,-1
 268 305 l 1,3,-1
 107 0 l 1,4,-1
 5 0 l 1,5,-1
 212 367 l 1,6,-1
 23 689 l 1,7,-1
 131 689 l 1,8,-1
 270 430 l 1,9,-1
 410 689 l 1,10,-1
 512 689 l 1,11,-1
 325 372 l 1,0,-1
EndSplineSet
Substitution2: "'c2sc' Capitals to Small Capitals lookup 26 subtable" x.sc
Substitution2: "'aalt' Access All Alternates lookup 0 subtable" x.sc
Position2: "'cpsp' Capital Spacing lookup 0 subtable" dx=5 dy=0 dh=10 dv=0
EndChar

StartChar: Y
Encoding: 89 89 309
Width: 550
GlyphClass: 2
Flags: W
AnchorPoint: "Anchor-18" 0 0 basechar 0
AnchorPoint: "Anchor-17" 0 0 basechar 0
AnchorPoint: "Anchor-16" 275 689 basechar 0
AnchorPoint: "Anchor-15" 0 0 basechar 0
AnchorPoint: "Anchor-14" 275 0 basechar 0
LayerCount: 2
Fore
SplineSet
545 689 m 1,0,-1
 323 265 l 1,1,-1
 323 0 l 1,2,-1
 227 0 l 1,3,-1
 227 264 l 1,4,-1
 5 689 l 1,5,-1
 110 689 l 1,6,-1
 278 348 l 1,7,-1
 446 689 l 1,8,-1
 545 689 l 1,0,-1
EndSplineSet
Substitution2: "'c2sc' Capitals to Small Capitals lookup 26 subtable" y.sc
Substitution2: "'aalt' Access All Alternates lookup 0 subtable" y.sc
Position2: "'cpsp' Capital Spacing lookup 0 subtable" dx=5 dy=0 dh=10 dv=0
EndChar

StartChar: uni01B3
Encoding: 435 435 315
Width: 586
GlyphClass: 2
Flags: W
AnchorPoint: "Anchor-18" 0 0 basechar 0
AnchorPoint: "Anchor-17" 0 0 basechar 0
AnchorPoint: "Anchor-16" 285 689 basechar 0
AnchorPoint: "Anchor-15" 0 0 basechar 0
AnchorPoint: "Anchor-14" 275 0 basechar 0
LayerCount: 2
Fore
SplineSet
227 264 m 1,0,-1
 5 689 l 1,1,-1
 110 689 l 1,2,-1
 278 348 l 1,3,-1
 388 587 l 2,4,5
 416 648 416 648 449.5 674.5 c 128,-1,6
 483 701 483 701 536 701 c 0,7,8
 567 701 567 701 592 690.5 c 128,-1,9
 617 680 617 680 641 661 c 1,10,-1
 605 607 l 1,11,12
 576 629 576 629 542 629 c 0,13,14
 518 629 518 629 502 614.5 c 128,-1,15
 486 600 486 600 467 561 c 2,16,-1
 323 265 l 1,17,-1
 323 0 l 1,18,-1
 227 0 l 1,19,-1
 227 264 l 1,0,-1
EndSplineSet
Substitution2: "'c2sc' Capitals to Small Capitals lookup 26 subtable" uni01B4.sc
Substitution2: "'aalt' Access All Alternates lookup 0 subtable" uni01B4.sc
Position2: "'cpsp' Capital Spacing lookup 0 subtable" dx=5 dy=0 dh=10 dv=0
EndChar

StartChar: uni01A6
Encoding: 422 422 318
Width: 605
GlyphClass: 2
Flags: W
AnchorPoint: "Anchor-18" 0 0 basechar 0
AnchorPoint: "Anchor-17" 0 0 basechar 0
AnchorPoint: "Anchor-16" 303 689 basechar 0
AnchorPoint: "Anchor-15" 0 0 basechar 0
AnchorPoint: "Anchor-14" 303 -202 basechar 0
LayerCount: 2
Fore
SplineSet
302 170 m 1,0,-1
 195 170 l 1,1,-1
 195 0 l 1,2,-1
 100 0 l 1,3,-1
 100 689 l 1,4,-1
 195 689 l 1,5,-1
 195 567 l 1,6,-1
 281 567 l 2,7,8
 410 567 410 567 476.5 518 c 128,-1,9
 543 469 543 469 543 372 c 0,10,11
 543 300 543 300 506 255 c 128,-1,12
 469 210 469 210 394 187 c 1,13,-1
 580 -122 l 1,14,-1
 467 -122 l 1,15,-1
 302 170 l 1,0,-1
291 243 m 2,16,17
 366 243 366 243 404 273.5 c 128,-1,18
 442 304 442 304 442 372 c 0,19,20
 442 436 442 436 403.5 464.5 c 128,-1,21
 365 493 365 493 280 493 c 2,22,-1
 195 493 l 1,23,-1
 195 243 l 1,24,-1
 291 243 l 2,16,17
EndSplineSet
Substitution2: "'c2sc' Capitals to Small Capitals lookup 26 subtable" uni0280.sc
Substitution2: "'aalt' Access All Alternates lookup 0 subtable" uni0280.sc
Position2: "'cpsp' Capital Spacing lookup 0 subtable" dx=5 dy=0 dh=10 dv=0
EndChar

StartChar: uni024E
Encoding: 590 590 319
Width: 550
GlyphClass: 2
Flags: W
AnchorPoint: "Anchor-18" 0 0 basechar 0
AnchorPoint: "Anchor-17" 0 0 basechar 0
AnchorPoint: "Anchor-16" 275 689 basechar 0
AnchorPoint: "Anchor-15" 0 0 basechar 0
AnchorPoint: "Anchor-14" 275 0 basechar 0
LayerCount: 2
Fore
SplineSet
500 604 m 1,0,-1
 545 604 l 1,1,-1
 545 535 l 1,2,-1
 464 535 l 1,3,-1
 323 265 l 1,4,-1
 323 0 l 1,5,-1
 227 0 l 1,6,-1
 227 264 l 1,7,-1
 85 535 l 1,8,-1
 10 535 l 1,9,-1
 10 604 l 1,10,-1
 49 604 l 1,11,-1
 5 689 l 1,12,-1
 110 689 l 1,13,-1
 152 604 l 1,14,-1
 404 604 l 1,15,-1
 446 689 l 1,16,-1
 545 689 l 1,17,-1
 500 604 l 1,0,-1
278 348 m 1,18,-1
 370 535 l 1,19,-1
 186 535 l 1,20,-1
 278 348 l 1,18,-1
EndSplineSet
Substitution2: "'c2sc' Capitals to Small Capitals lookup 26 subtable" uni024F.sc
Substitution2: "'aalt' Access All Alternates lookup 0 subtable" uni024F.sc
Position2: "'cpsp' Capital Spacing lookup 0 subtable" dx=5 dy=0 dh=10 dv=0
EndChar

StartChar: Z
Encoding: 90 90 321
Width: 522
GlyphClass: 2
Flags: W
AnchorPoint: "Anchor-18" 0 0 basechar 0
AnchorPoint: "Anchor-17" 0 0 basechar 0
AnchorPoint: "Anchor-16" 272 689 basechar 0
AnchorPoint: "Anchor-15" 0 0 basechar 0
AnchorPoint: "Anchor-14" 258 0 basechar 0
LayerCount: 2
Fore
SplineSet
477 689 m 1,0,-1
 477 612 l 1,1,-1
 136 81 l 1,2,-1
 477 81 l 1,3,-1
 466 0 l 1,4,-1
 30 0 l 1,5,-1
 30 76 l 1,6,-1
 374 609 l 1,7,-1
 66 609 l 1,8,-1
 66 689 l 1,9,-1
 477 689 l 1,0,-1
EndSplineSet
Substitution2: "'c2sc' Capitals to Small Capitals lookup 26 subtable" z.sc
Substitution2: "'aalt' Access All Alternates lookup 0 subtable" z.sc
Position2: "'cpsp' Capital Spacing lookup 0 subtable" dx=5 dy=0 dh=10 dv=0
EndChar

StartChar: uni0224
Encoding: 548 548 327
Width: 522
GlyphClass: 2
Flags: W
AnchorPoint: "Anchor-18" 0 0 basechar 0
AnchorPoint: "Anchor-17" 0 0 basechar 0
AnchorPoint: "Anchor-16" 261 689 basechar 0
AnchorPoint: "Anchor-15" 0 0 basechar 0
AnchorPoint: "Anchor-14" 261 -202 basechar 0
LayerCount: 2
Fore
SplineSet
477 612 m 1,0,-1
 136 81 l 1,1,-1
 471 81 l 1,2,-1
 471 -57 l 2,3,4
 471 -133 471 -133 431 -173 c 128,-1,5
 391 -213 391 -213 320 -213 c 0,6,7
 255 -213 255 -213 205 -175 c 1,8,-1
 241 -114 l 1,9,10
 261 -126 261 -126 277 -131.5 c 128,-1,11
 293 -137 293 -137 317 -137 c 0,12,13
 379 -137 379 -137 379 -63 c 2,14,-1
 379 0 l 1,15,-1
 30 0 l 1,16,-1
 30 76 l 1,17,-1
 374 609 l 1,18,-1
 66 609 l 1,19,-1
 66 689 l 1,20,-1
 477 689 l 1,21,-1
 477 612 l 1,0,-1
EndSplineSet
Substitution2: "'c2sc' Capitals to Small Capitals lookup 26 subtable" uni0225.sc
Substitution2: "'aalt' Access All Alternates lookup 0 subtable" uni0225.sc
Position2: "'cpsp' Capital Spacing lookup 0 subtable" dx=5 dy=0 dh=10 dv=0
EndChar

StartChar: uni01B5
Encoding: 437 437 328
Width: 522
GlyphClass: 2
Flags: W
AnchorPoint: "Anchor-18" 0 0 basechar 0
AnchorPoint: "Anchor-17" 0 0 basechar 0
AnchorPoint: "Anchor-16" 261 689 basechar 0
AnchorPoint: "Anchor-15" 0 0 basechar 0
AnchorPoint: "Anchor-14" 261 0 basechar 0
LayerCount: 2
Fore
SplineSet
477 689 m 1,0,-1
 477 612 l 1,1,-1
 329 384 l 1,2,-1
 434 384 l 1,3,-1
 434 310 l 1,4,-1
 281 310 l 1,5,-1
 132 81 l 1,6,-1
 477 81 l 1,7,-1
 466 0 l 1,8,-1
 30 0 l 1,9,-1
 30 76 l 1,10,-1
 183 310 l 1,11,-1
 94 310 l 1,12,-1
 94 384 l 1,13,-1
 231 384 l 1,14,-1
 378 609 l 1,15,-1
 66 609 l 1,16,-1
 66 689 l 1,17,-1
 477 689 l 1,0,-1
EndSplineSet
Substitution2: "'c2sc' Capitals to Small Capitals lookup 26 subtable" uni01B6.sc
Substitution2: "'aalt' Access All Alternates lookup 0 subtable" uni01B6.sc
Position2: "'cpsp' Capital Spacing lookup 0 subtable" dx=5 dy=0 dh=10 dv=0
EndChar

StartChar: uni0262
Encoding: 610 610 330
Width: 560
GlyphClass: 2
Flags: W
AnchorPoint: "Anchor-18" 0 0 basechar 0
AnchorPoint: "Anchor-17" 0 0 basechar 0
AnchorPoint: "Anchor-16" 305 527 basechar 0
AnchorPoint: "Anchor-15" 0 0 basechar 0
AnchorPoint: "Anchor-14" 288 0 basechar 0
LayerCount: 2
Fore
SplineSet
402.5 523 m 128,-1,1
 444 507 444 507 485 475 c 1,2,-1
 434 417 l 1,3,4
 402 441 402 441 372.5 452 c 128,-1,5
 343 463 343 463 305 463 c 0,6,7
 241 463 241 463 198 413.5 c 128,-1,8
 155 364 155 364 155 266 c 0,9,10
 155 159 155 159 190 110.5 c 128,-1,11
 225 62 225 62 292 62 c 0,12,13
 349 62 349 62 396 84 c 1,14,-1
 396 226 l 1,15,-1
 300 226 l 1,16,-1
 290 297 l 1,17,-1
 486 297 l 1,18,-1
 486 42 l 1,19,20
 395 -11 395 -11 291 -11 c 0,21,22
 180 -11 180 -11 118.5 59.5 c 128,-1,23
 57 130 57 130 57 266 c 0,24,25
 57 348 57 348 90.5 410 c 128,-1,26
 124 472 124 472 180.5 505.5 c 128,-1,27
 237 539 237 539 304 539 c 0,28,0
 361 539 361 539 402.5 523 c 128,-1,1
EndSplineSet
EndChar

StartChar: uni029B
Encoding: 667 667 331
Width: 560
GlyphClass: 2
Flags: W
AnchorPoint: "Anchor-18" 0 0 basechar 0
AnchorPoint: "Anchor-17" 0 0 basechar 0
AnchorPoint: "Anchor-16" 280 739 basechar 0
AnchorPoint: "Anchor-15" 0 0 basechar 0
AnchorPoint: "Anchor-14" 291 0 basechar 0
LayerCount: 2
Fore
SplineSet
659 712 m 1,1,-1
 623 653 l 1,2,3
 603 665 603 665 587.5 670.5 c 128,-1,4
 572 676 572 676 549 676 c 0,5,6
 485 676 485 676 485 602 c 2,7,-1
 485 475 l 1,8,-1
 439 423 l 1,9,10
 406 443 406 443 375.5 453 c 128,-1,11
 345 463 345 463 306 463 c 0,12,13
 240 463 240 463 197.5 414 c 128,-1,14
 155 365 155 365 155 266 c 0,15,16
 155 159 155 159 190 110.5 c 128,-1,17
 225 62 225 62 292 62 c 0,18,19
 349 62 349 62 396 84 c 1,20,-1
 396 226 l 1,21,-1
 300 226 l 1,22,-1
 290 297 l 1,23,-1
 486 297 l 1,24,-1
 486 42 l 1,25,26
 395 -11 395 -11 291 -11 c 0,27,28
 180 -11 180 -11 118.5 59.5 c 128,-1,29
 57 130 57 130 57 266 c 0,30,31
 57 348 57 348 90.5 410 c 128,-1,32
 124 472 124 472 180.5 505.5 c 128,-1,33
 237 539 237 539 304 539 c 0,34,35
 352 539 352 539 393 520 c 1,36,-1
 393 594 l 2,37,38
 393 670 393 670 433 710 c 128,-1,39
 473 750 473 750 544 750 c 0,40,0
 609 750 609 750 659 712 c 1,1,-1
EndSplineSet
EndChar

StartChar: uni026A
Encoding: 618 618 333
Width: 333
GlyphClass: 2
Flags: W
AnchorPoint: "Anchor-18" 0 0 basechar 0
AnchorPoint: "Anchor-17" 0 0 basechar 0
AnchorPoint: "Anchor-16" 167 527 basechar 0
AnchorPoint: "Anchor-15" 0 0 basechar 0
AnchorPoint: "Anchor-14" 167 0 basechar 0
LayerCount: 2
Fore
SplineSet
308 455 m 1,0,-1
 212 455 l 1,1,-1
 212 72 l 1,2,-1
 308 72 l 1,3,-1
 308 0 l 1,4,-1
 25 0 l 1,5,-1
 25 72 l 1,6,-1
 120 72 l 1,7,-1
 120 455 l 1,8,-1
 25 455 l 1,9,-1
 25 527 l 1,10,-1
 308 527 l 1,11,-1
 308 455 l 1,0,-1
EndSplineSet
EndChar

StartChar: uni029F
Encoding: 671 671 334
Width: 436
GlyphClass: 2
Flags: W
AnchorPoint: "Anchor-18" 0 0 basechar 0
AnchorPoint: "Anchor-17" 0 0 basechar 0
AnchorPoint: "Anchor-16" 141 527 basechar 0
AnchorPoint: "Anchor-15" 0 0 basechar 0
AnchorPoint: "Anchor-14" 253 0 basechar 0
LayerCount: 2
Fore
SplineSet
187 527 m 1,0,-1
 187 78 l 1,1,-1
 421 78 l 1,2,-1
 410 0 l 1,3,-1
 95 0 l 1,4,-1
 95 527 l 1,5,-1
 187 527 l 1,0,-1
EndSplineSet
EndChar

StartChar: uni0274
Encoding: 628 628 335
Width: 595
GlyphClass: 2
Flags: W
AnchorPoint: "Anchor-18" 0 0 basechar 0
AnchorPoint: "Anchor-17" 0 0 basechar 0
AnchorPoint: "Anchor-16" 298 527 basechar 0
AnchorPoint: "Anchor-15" 0 0 basechar 0
AnchorPoint: "Anchor-14" 298 0 basechar 0
LayerCount: 2
Fore
SplineSet
500 0 m 1,0,-1
 382 0 l 1,1,-1
 169 435 l 1,2,3
 180 331 180 331 180 209 c 2,4,-1
 180 0 l 1,5,-1
 95 0 l 1,6,-1
 95 527 l 1,7,-1
 213 527 l 1,8,-1
 426 90 l 1,9,10
 415 158 415 158 415 240 c 2,11,-1
 415 527 l 1,12,-1
 500 527 l 1,13,-1
 500 0 l 1,0,-1
EndSplineSet
EndChar

StartChar: uni0276
Encoding: 630 630 336
Width: 753
GlyphClass: 2
Flags: W
AnchorPoint: "Anchor-18" 0 0 basechar 0
AnchorPoint: "Anchor-17" 0 0 basechar 0
AnchorPoint: "Anchor-16" 409 527 basechar 0
AnchorPoint: "Anchor-15" 0 0 basechar 0
AnchorPoint: "Anchor-14" 409 0 basechar 0
LayerCount: 2
Fore
SplineSet
723 0 m 1,0,-1
 366 0 l 1,1,2
 327 -12 327 -12 292 -12 c 0,3,4
 181 -12 181 -12 119 62 c 128,-1,5
 57 136 57 136 57 263 c 0,6,7
 57 345 57 345 85 407.5 c 128,-1,8
 113 470 113 470 166 504.5 c 128,-1,9
 219 539 219 539 293 539 c 0,10,11
 319 539 319 539 336 536.5 c 128,-1,12
 353 534 353 534 374 527 c 1,13,-1
 718 527 l 1,14,-1
 708 456 l 1,15,-1
 456 456 l 1,16,17
 484 430 484 430 502 390 c 128,-1,18
 520 350 520 350 526 303 c 1,19,-1
 678 303 l 1,20,-1
 678 232 l 1,21,-1
 527 232 l 1,22,23
 518 129 518 129 451 71 c 1,24,-1
 723 71 l 1,25,-1
 723 0 l 1,0,-1
191 112 m 128,-1,27
 226 62 226 62 293 62 c 0,28,29
 354 62 354 62 392 112.5 c 128,-1,30
 430 163 430 163 430 263 c 0,31,32
 430 364 430 364 392.5 414.5 c 128,-1,33
 355 465 355 465 293 465 c 0,34,35
 156 465 156 465 156 263 c 0,36,26
 156 162 156 162 191 112 c 128,-1,27
EndSplineSet
EndChar

StartChar: uni0280
Encoding: 640 640 337
Width: 527
GlyphClass: 2
Flags: W
AnchorPoint: "Anchor-18" 0 0 basechar 0
AnchorPoint: "Anchor-17" 0 0 basechar 0
AnchorPoint: "Anchor-16" 261 527 basechar 0
AnchorPoint: "Anchor-15" 0 0 basechar 0
AnchorPoint: "Anchor-14" 261 0 basechar 0
LayerCount: 2
Fore
SplineSet
388 0 m 1,0,-1
 260 202 l 1,1,-1
 248 202 l 1,2,-1
 187 202 l 1,3,-1
 187 0 l 1,4,-1
 95 0 l 1,5,-1
 95 527 l 1,6,-1
 238 527 l 2,7,8
 345 527 345 527 401.5 486 c 128,-1,9
 458 445 458 445 458 366 c 0,10,11
 458 314 458 314 429 275 c 128,-1,12
 400 236 400 236 347 217 c 1,13,-1
 492 0 l 1,14,-1
 388 0 l 1,0,-1
187 272 m 1,15,-1
 254 272 l 2,16,17
 308 272 308 272 335 294 c 128,-1,18
 362 316 362 316 362 366 c 0,19,20
 362 413 362 413 331 434.5 c 128,-1,21
 300 456 300 456 237 456 c 2,22,-1
 187 456 l 1,23,-1
 187 272 l 1,15,-1
EndSplineSet
Substitution2: "'smcp' Lowercase to Small Capitals lookup 27 subtable" uni0280.sc
Substitution2: "'aalt' Access All Alternates lookup 0 subtable" uni0280.sc
EndChar

StartChar: uni0281
Encoding: 641 641 338
Width: 527
GlyphClass: 2
Flags: W
AnchorPoint: "Anchor-18" 0 0 basechar 0
AnchorPoint: "Anchor-17" 0 0 basechar 0
AnchorPoint: "Anchor-16" 261 527 basechar 0
AnchorPoint: "Anchor-15" 0 0 basechar 0
AnchorPoint: "Anchor-14" 261 0 basechar 0
LayerCount: 2
Fore
SplineSet
430 257 m 128,-1,1
 458 220 458 220 458 166 c 0,2,3
 458 84 458 84 401.5 42 c 128,-1,4
 345 0 345 0 238 0 c 2,5,-1
 95 0 l 1,6,-1
 95 527 l 1,7,-1
 187 527 l 1,8,-1
 187 325 l 1,9,-1
 248 325 l 1,10,-1
 260 325 l 1,11,-1
 388 527 l 1,12,-1
 492 527 l 1,13,-1
 348 311 l 1,14,0
 402 294 402 294 430 257 c 128,-1,1
331.5 93.5 m 128,-1,16
 362 116 362 116 362 166 c 0,17,18
 362 255 362 255 254 255 c 2,19,-1
 187 255 l 1,20,-1
 187 71 l 1,21,-1
 237 71 l 2,22,15
 301 71 301 71 331.5 93.5 c 128,-1,16
EndSplineSet
EndChar

StartChar: uni028F
Encoding: 655 655 339
Width: 458
GlyphClass: 2
Flags: W
AnchorPoint: "Anchor-18" 0 0 basechar 0
AnchorPoint: "Anchor-17" 0 0 basechar 0
AnchorPoint: "Anchor-16" 229 527 basechar 0
AnchorPoint: "Anchor-15" 0 0 basechar 0
AnchorPoint: "Anchor-14" 229 0 basechar 0
LayerCount: 2
Fore
SplineSet
458 527 m 1,0,-1
 275 198 l 1,1,-1
 275 0 l 1,2,-1
 183 0 l 1,3,-1
 183 197 l 1,4,-1
 0 527 l 1,5,-1
 98 527 l 1,6,-1
 231 264 l 1,7,-1
 363 527 l 1,8,-1
 458 527 l 1,0,-1
EndSplineSet
EndChar

StartChar: a
Encoding: 97 97 340
Width: 544
GlyphClass: 2
Flags: W
AnchorPoint: "Anchor-18" 0 0 basechar 0
AnchorPoint: "Anchor-17" 0 0 basechar 0
AnchorPoint: "Anchor-16" 261 527 basechar 0
AnchorPoint: "Anchor-15" 483 -12 basechar 0
AnchorPoint: "Anchor-14" 261 0 basechar 0
LayerCount: 2
Fore
SplineSet
461 75.5 m 128,-1,1
 472 60 472 60 494 52 c 1,2,-1
 473 -12 l 1,3,4
 432 -7 432 -7 407 11 c 128,-1,5
 382 29 382 29 370 67 c 1,6,7
 317 -12 317 -12 213 -12 c 0,8,9
 135 -12 135 -12 90 32 c 128,-1,10
 45 76 45 76 45 147 c 0,11,12
 45 231 45 231 105.5 276 c 128,-1,13
 166 321 166 321 277 321 c 2,14,-1
 358 321 l 1,15,-1
 358 360 l 2,16,17
 358 416 358 416 331 440 c 128,-1,18
 304 464 304 464 248 464 c 0,19,20
 190 464 190 464 106 436 c 1,21,-1
 83 503 l 1,22,23
 181 539 181 539 265 539 c 0,24,25
 358 539 358 539 404 493.5 c 128,-1,26
 450 448 450 448 450 364 c 2,27,-1
 450 123 l 2,28,0
 450 91 450 91 461 75.5 c 128,-1,1
358 139 m 1,30,-1
 358 260 l 1,31,-1
 289 260 l 2,32,33
 143 260 143 260 143 152 c 0,34,35
 143 105 143 105 166 81 c 128,-1,36
 189 57 189 57 234 57 c 0,37,29
 313 57 313 57 358 139 c 1,30,-1
EndSplineSet
Substitution2: "Single Substitution lookup 45 subtable" ordfeminine
Substitution2: "'ss04' Style Set 4 lookup 36 subtable" a.ss04
Substitution2: "'salt' Stylistic Alternatives lookup 32 subtable" a.ss04
Substitution2: "'smcp' Lowercase to Small Capitals lookup 27 subtable" a.sc
AlternateSubs2: "'aalt' Access All Alternates lookup 1 subtable" ordfeminine a.sc a.ss04
EndChar

StartChar: a.ss04
Encoding: 65547 -1 341
Width: 599
GlyphClass: 2
Flags: W
AnchorPoint: "Anchor-18" 0 0 basechar 0
AnchorPoint: "Anchor-17" 0 0 basechar 0
AnchorPoint: "Anchor-16" 300 527 basechar 0
AnchorPoint: "Anchor-15" 0 0 basechar 0
AnchorPoint: "Anchor-14" 300 0 basechar 0
LayerCount: 2
Fore
SplineSet
508 85.5 m 128,-1,1
 518 69 518 69 544 57 c 1,2,-1
 515 -12 l 1,3,4
 470 -1 470 -1 447 19 c 128,-1,5
 424 39 424 39 414 70 c 1,6,7
 387 31 387 31 346.5 9.5 c 128,-1,8
 306 -12 306 -12 261 -12 c 0,9,10
 166 -12 166 -12 111.5 62.5 c 128,-1,11
 57 137 57 137 57 261 c 0,12,13
 57 342 57 342 82.5 405 c 128,-1,14
 108 468 108 468 156.5 503.5 c 128,-1,15
 205 539 205 539 270 539 c 0,16,17
 318 539 318 539 352 520 c 128,-1,18
 386 501 386 501 413 467 c 1,19,-1
 419 527 l 1,20,-1
 498 527 l 1,21,-1
 498 139 l 2,22,0
 498 102 498 102 508 85.5 c 128,-1,1
348 80.5 m 128,-1,24
 378 100 378 100 406 139 c 1,25,-1
 406 397 l 1,26,27
 380 431 380 431 350.5 448.5 c 128,-1,28
 321 466 321 466 284 466 c 0,29,30
 223 466 223 466 189.5 415 c 128,-1,31
 156 364 156 364 156 263 c 0,32,33
 156 161 156 161 186.5 111 c 128,-1,34
 217 61 217 61 275 61 c 0,35,23
 318 61 318 61 348 80.5 c 128,-1,24
EndSplineSet
EndChar

StartChar: uni0251
Encoding: 593 593 365
Width: 599
GlyphClass: 2
Flags: W
AnchorPoint: "Anchor-18" 0 0 basechar 0
AnchorPoint: "Anchor-17" 0 0 basechar 0
AnchorPoint: "Anchor-16" 300 527 basechar 0
AnchorPoint: "Anchor-15" 0 0 basechar 0
AnchorPoint: "Anchor-14" 300 0 basechar 0
LayerCount: 2
Fore
SplineSet
508 85.5 m 128,-1,1
 518 69 518 69 544 57 c 1,2,-1
 515 -12 l 1,3,4
 470 -1 470 -1 447 19 c 128,-1,5
 424 39 424 39 414 70 c 1,6,7
 387 31 387 31 346.5 9.5 c 128,-1,8
 306 -12 306 -12 261 -12 c 0,9,10
 166 -12 166 -12 111.5 62.5 c 128,-1,11
 57 137 57 137 57 261 c 0,12,13
 57 342 57 342 82.5 405 c 128,-1,14
 108 468 108 468 156.5 503.5 c 128,-1,15
 205 539 205 539 270 539 c 0,16,17
 318 539 318 539 352 520 c 128,-1,18
 386 501 386 501 413 467 c 1,19,-1
 419 527 l 1,20,-1
 498 527 l 1,21,-1
 498 139 l 2,22,0
 498 102 498 102 508 85.5 c 128,-1,1
348 80.5 m 128,-1,24
 378 100 378 100 406 139 c 1,25,-1
 406 397 l 1,26,27
 380 431 380 431 350.5 448.5 c 128,-1,28
 321 466 321 466 284 466 c 0,29,30
 223 466 223 466 189.5 415 c 128,-1,31
 156 364 156 364 156 263 c 0,32,33
 156 161 156 161 186.5 111 c 128,-1,34
 217 61 217 61 275 61 c 0,35,23
 318 61 318 61 348 80.5 c 128,-1,24
EndSplineSet
Substitution2: "'smcp' Lowercase to Small Capitals lookup 27 subtable" uni0251.sc
Substitution2: "'aalt' Access All Alternates lookup 0 subtable" uni0251.sc
EndChar

StartChar: uni0252
Encoding: 594 594 366
Width: 599
GlyphClass: 2
Flags: W
AnchorPoint: "Anchor-18" 0 0 basechar 0
AnchorPoint: "Anchor-17" 0 0 basechar 0
AnchorPoint: "Anchor-16" 300 527 basechar 0
AnchorPoint: "Anchor-15" 0 0 basechar 0
AnchorPoint: "Anchor-14" 300 0 basechar 0
LayerCount: 2
Fore
SplineSet
487.5 464.5 m 128,-1,1
 542 390 542 390 542 266 c 0,2,3
 542 185 542 185 516.5 122 c 128,-1,4
 491 59 491 59 442.5 23.5 c 128,-1,5
 394 -12 394 -12 329 -12 c 0,6,7
 281 -12 281 -12 247 7 c 128,-1,8
 213 26 213 26 186 60 c 1,9,-1
 180 0 l 1,10,-1
 101 0 l 1,11,-1
 101 388 l 2,12,13
 101 425 101 425 91 441.5 c 128,-1,14
 81 458 81 458 55 470 c 1,15,-1
 84 539 l 1,16,17
 129 528 129 528 152 508 c 128,-1,18
 175 488 175 488 185 457 c 1,19,20
 212 496 212 496 252.5 517.5 c 128,-1,21
 293 539 293 539 338 539 c 0,22,0
 433 539 433 539 487.5 464.5 c 128,-1,1
409.5 112 m 128,-1,24
 443 163 443 163 443 264 c 0,25,26
 443 366 443 366 412.5 416 c 128,-1,27
 382 466 382 466 324 466 c 0,28,29
 281 466 281 466 251 446.5 c 128,-1,30
 221 427 221 427 193 388 c 1,31,-1
 193 130 l 1,32,33
 219 96 219 96 248.5 78.5 c 128,-1,34
 278 61 278 61 315 61 c 0,35,23
 376 61 376 61 409.5 112 c 128,-1,24
EndSplineSet
EndChar

StartChar: aogonek
Encoding: 261 261 368
Width: 544
GlyphClass: 2
Flags: W
AnchorPoint: "Anchor-18" 0 0 basechar 0
AnchorPoint: "Anchor-17" 0 0 basechar 0
AnchorPoint: "Anchor-16" 261 527 basechar 0
AnchorPoint: "Anchor-15" 483 -12 basechar 0
AnchorPoint: "Anchor-14" 261 0 basechar 0
LayerCount: 2
Fore
SplineSet
376 -69.5 m 128,-1,1
 350 -96 350 -96 350 -126 c 0,2,3
 350 -174 350 -174 406 -174 c 0,4,5
 433 -174 433 -174 467 -167 c 1,6,-1
 458 -237 l 1,7,8
 423 -244 423 -244 395 -244 c 0,9,10
 338 -244 338 -244 304 -215.5 c 128,-1,11
 270 -187 270 -187 270 -143 c 0,12,13
 270 -94 270 -94 305.5 -57.5 c 128,-1,14
 341 -21 341 -21 414 6 c 1,15,16
 383 25 383 25 370 67 c 1,17,18
 317 -12 317 -12 213 -12 c 0,19,20
 135 -12 135 -12 90 32 c 128,-1,21
 45 76 45 76 45 147 c 0,22,23
 45 231 45 231 105.5 276 c 128,-1,24
 166 321 166 321 277 321 c 2,25,-1
 358 321 l 1,26,-1
 358 360 l 2,27,28
 358 416 358 416 331 440 c 128,-1,29
 304 464 304 464 248 464 c 0,30,31
 190 464 190 464 106 436 c 1,32,-1
 83 503 l 1,33,34
 181 539 181 539 265 539 c 0,35,36
 358 539 358 539 404 493.5 c 128,-1,37
 450 448 450 448 450 364 c 2,38,-1
 450 123 l 2,39,40
 450 91 450 91 461 75.5 c 128,-1,41
 472 60 472 60 494 52 c 1,42,-1
 473 -12 l 1,43,0
 402 -43 402 -43 376 -69.5 c 128,-1,1
358 139 m 1,45,-1
 358 260 l 1,46,-1
 289 260 l 2,47,48
 143 260 143 260 143 152 c 0,49,50
 143 105 143 105 166 81 c 128,-1,51
 189 57 189 57 234 57 c 0,52,44
 313 57 313 57 358 139 c 1,45,-1
EndSplineSet
Substitution2: "'smcp' Lowercase to Small Capitals lookup 27 subtable" aogonek.sc
Substitution2: "'aalt' Access All Alternates lookup 0 subtable" aogonek.sc
EndChar

StartChar: aringacute
Encoding: 507 507 370
Width: 544
GlyphClass: 2
Flags: W
AnchorPoint: "Anchor-18" 0 0 basechar 0
AnchorPoint: "Anchor-17" 0 0 basechar 0
AnchorPoint: "Anchor-16" 263 958 basechar 0
AnchorPoint: "Anchor-15" 483 -12 basechar 0
AnchorPoint: "Anchor-14" 261 0 basechar 0
LayerCount: 2
Fore
SplineSet
381 881 m 1,0,-1
 165 802 l 1,1,-1
 141 851 l 1,2,-1
 341 958 l 1,3,-1
 381 881 l 1,0,-1
179 765.5 m 128,-1,5
 211 796 211 796 261 796 c 256,6,7
 311 796 311 796 343 765.5 c 128,-1,8
 375 735 375 735 375 690 c 256,9,10
 375 645 375 645 343 614.5 c 128,-1,11
 311 584 311 584 261 584 c 256,12,13
 211 584 211 584 179 614.5 c 128,-1,14
 147 645 147 645 147 690 c 256,15,4
 147 735 147 735 179 765.5 c 128,-1,5
300 731 m 128,-1,17
 286 746 286 746 261 746 c 256,18,19
 236 746 236 746 222 731 c 128,-1,20
 208 716 208 716 208 690 c 256,21,22
 208 664 208 664 222 649 c 128,-1,23
 236 634 236 634 261 634 c 0,24,25
 285 634 285 634 299.5 649 c 128,-1,26
 314 664 314 664 314 690 c 256,27,16
 314 716 314 716 300 731 c 128,-1,17
461 75.5 m 128,-1,29
 472 60 472 60 494 52 c 1,30,-1
 473 -12 l 1,31,32
 432 -7 432 -7 407 11 c 128,-1,33
 382 29 382 29 370 67 c 1,34,35
 317 -12 317 -12 213 -12 c 0,36,37
 135 -12 135 -12 90 32 c 128,-1,38
 45 76 45 76 45 147 c 0,39,40
 45 231 45 231 105.5 276 c 128,-1,41
 166 321 166 321 277 321 c 2,42,-1
 358 321 l 1,43,-1
 358 360 l 2,44,45
 358 416 358 416 331 440 c 128,-1,46
 304 464 304 464 248 464 c 0,47,48
 190 464 190 464 106 436 c 1,49,-1
 83 503 l 1,50,51
 181 539 181 539 265 539 c 0,52,53
 358 539 358 539 404 493.5 c 128,-1,54
 450 448 450 448 450 364 c 2,55,-1
 450 123 l 2,56,28
 450 91 450 91 461 75.5 c 128,-1,29
358 139 m 1,58,-1
 358 260 l 1,59,-1
 289 260 l 2,60,61
 143 260 143 260 143 152 c 0,62,63
 143 105 143 105 166 81 c 128,-1,64
 189 57 189 57 234 57 c 0,65,57
 313 57 313 57 358 139 c 1,58,-1
EndSplineSet
Substitution2: "'smcp' Lowercase to Small Capitals lookup 27 subtable" aringacute.sc
Substitution2: "'aalt' Access All Alternates lookup 0 subtable" aringacute.sc
EndChar

StartChar: uni2C65
Encoding: 11365 11365 371
Width: 544
GlyphClass: 2
Flags: W
AnchorPoint: "Anchor-18" 0 0 basechar 0
AnchorPoint: "Anchor-17" 0 0 basechar 0
AnchorPoint: "Anchor-16" 272 527 basechar 0
AnchorPoint: "Anchor-15" 0 0 basechar 0
AnchorPoint: "Anchor-14" 272 0 basechar 0
LayerCount: 2
Fore
SplineSet
461 75.5 m 128,-1,1
 472 60 472 60 494 52 c 1,2,-1
 473 -12 l 1,3,4
 432 -7 432 -7 407 11 c 128,-1,5
 382 29 382 29 370 67 c 1,6,7
 317 -12 317 -12 213 -12 c 1,8,-1
 197 -70 l 1,9,-1
 154 -59 l 1,10,-1
 168 -8 l 1,11,12
 110 4 110 4 77.5 45.5 c 128,-1,13
 45 87 45 87 45 147 c 0,14,15
 45 228 45 228 100.5 272.5 c 128,-1,16
 156 317 156 317 258 321 c 1,17,-1
 296 459 l 1,18,19
 273 464 273 464 248 464 c 0,20,21
 190 464 190 464 106 436 c 1,22,-1
 83 503 l 1,23,24
 181 539 181 539 265 539 c 0,25,26
 296 539 296 539 317 535 c 1,27,-1
 333 595 l 1,28,-1
 376 584 l 1,29,-1
 359 523 l 1,30,31
 450 485 450 485 450 364 c 2,32,-1
 450 123 l 2,33,0
 450 91 450 91 461 75.5 c 128,-1,1
335 436 m 1,35,-1
 304 321 l 1,36,-1
 358 321 l 1,37,-1
 358 360 l 2,38,34
 358 410 358 410 335 436 c 1,35,-1
358 139 m 1,40,-1
 358 260 l 1,41,-1
 289 260 l 1,42,-1
 287 260 l 1,43,-1
 232 57 l 1,44,-1
 234 57 l 2,45,39
 313 57 313 57 358 139 c 1,40,-1
188 66 m 1,47,-1
 240 256 l 1,48,49
 143 241 143 241 143 152 c 0,50,46
 143 86 143 86 188 66 c 1,47,-1
EndSplineSet
Substitution2: "'smcp' Lowercase to Small Capitals lookup 27 subtable" uni2C65.sc
Substitution2: "'aalt' Access All Alternates lookup 0 subtable" uni2C65.sc
EndChar

StartChar: uni0250
Encoding: 592 592 373
Width: 544
GlyphClass: 2
Flags: W
AnchorPoint: "Anchor-18" 0 0 basechar 0
AnchorPoint: "Anchor-17" 0 0 basechar 0
AnchorPoint: "Anchor-16" 272 527 basechar 0
AnchorPoint: "Anchor-15" 61 539 basechar 0
AnchorPoint: "Anchor-14" 272 0 basechar 0
LayerCount: 2
Fore
SplineSet
438 91 m 1,1,-1
 461 24 l 1,2,3
 364 -12 364 -12 279 -12 c 0,4,5
 186 -12 186 -12 140 33.5 c 128,-1,6
 94 79 94 79 94 163 c 2,7,-1
 94 404 l 2,8,9
 94 436 94 436 83 451.5 c 128,-1,10
 72 467 72 467 50 475 c 1,11,-1
 71 539 l 1,12,13
 112 534 112 534 137 516 c 128,-1,14
 162 498 162 498 174 460 c 1,15,16
 227 539 227 539 331 539 c 0,17,18
 409 539 409 539 454 495 c 128,-1,19
 499 451 499 451 499 380 c 0,20,21
 499 296 499 296 438.5 251 c 128,-1,22
 378 206 378 206 267 206 c 2,23,-1
 186 206 l 1,24,-1
 186 167 l 2,25,26
 186 111 186 111 213 87 c 128,-1,27
 240 63 240 63 296 63 c 0,28,0
 354 63 354 63 438 91 c 1,1,-1
186 388 m 1,30,-1
 186 267 l 1,31,-1
 255 267 l 2,32,33
 401 267 401 267 401 375 c 0,34,35
 401 422 401 422 378 446 c 128,-1,36
 355 470 355 470 310 470 c 0,37,29
 231 470 231 470 186 388 c 1,30,-1
EndSplineSet
EndChar

StartChar: ae
Encoding: 230 230 374
Width: 849
GlyphClass: 2
Flags: W
AnchorPoint: "Anchor-18" 0 0 basechar 0
AnchorPoint: "Anchor-17" 0 0 basechar 0
AnchorPoint: "Anchor-16" 427 527 basechar 0
AnchorPoint: "Anchor-15" 0 0 basechar 0
AnchorPoint: "Anchor-14" 417 0 basechar 0
LayerCount: 2
Fore
SplineSet
795 232 m 1,1,-1
 459 232 l 1,2,3
 465 145 465 145 503 104 c 128,-1,4
 541 63 541 63 601 63 c 0,5,6
 639 63 639 63 671 74 c 128,-1,7
 703 85 703 85 738 109 c 1,8,-1
 778 54 l 1,9,10
 694 -12 694 -12 594 -12 c 0,11,12
 531 -12 531 -12 482.5 13 c 128,-1,13
 434 38 434 38 404 85 c 1,14,15
 368 33 368 33 323 10.5 c 128,-1,16
 278 -12 278 -12 216 -12 c 0,17,18
 137 -12 137 -12 91 32 c 128,-1,19
 45 76 45 76 45 147 c 0,20,21
 45 231 45 231 107 276 c 128,-1,22
 169 321 169 321 280 321 c 2,23,-1
 361 321 l 1,24,-1
 361 360 l 2,25,26
 361 416 361 416 334 440 c 128,-1,27
 307 464 307 464 251 464 c 0,28,29
 193 464 193 464 109 436 c 1,30,-1
 86 503 l 1,31,32
 184 539 184 539 268 539 c 0,33,34
 382 539 382 539 425 455 c 1,35,36
 482 539 482 539 584 539 c 256,37,38
 686 539 686 539 741.5 470 c 128,-1,39
 797 401 797 401 797 279 c 0,40,0
 797 256 797 256 795 232 c 1,1,-1
706 306 m 2,41,42
 706 384 706 384 675 425 c 128,-1,43
 644 466 644 466 582 466 c 0,44,45
 469 466 469 466 459 300 c 1,46,-1
 706 300 l 1,47,-1
 706 306 l 2,41,42
312.5 79 m 128,-1,49
 346 101 346 101 376 149 c 1,50,51
 361 197 361 197 361 257 c 2,52,-1
 361 260 l 1,53,-1
 292 260 l 2,54,55
 146 260 146 260 146 152 c 0,56,57
 146 105 146 105 169 81 c 128,-1,58
 192 57 192 57 237 57 c 0,59,48
 279 57 279 57 312.5 79 c 128,-1,49
EndSplineSet
Substitution2: "'smcp' Lowercase to Small Capitals lookup 27 subtable" ae.sc
Substitution2: "'aalt' Access All Alternates lookup 0 subtable" ae.sc
EndChar

StartChar: b
Encoding: 98 98 377
Width: 594
GlyphClass: 2
Flags: W
AnchorPoint: "Anchor-18" 0 0 basechar 0
AnchorPoint: "Anchor-17" 0 0 basechar 0
AnchorPoint: "Anchor-16" 313 739 basechar 0
AnchorPoint: "Anchor-15" 0 0 basechar 0
AnchorPoint: "Anchor-14" 308 0 basechar 0
LayerCount: 2
Fore
SplineSet
479 466.5 m 128,-1,1
 532 394 532 394 532 264 c 0,2,3
 532 182 532 182 507 119.5 c 128,-1,4
 482 57 482 57 435 22.5 c 128,-1,5
 388 -12 388 -12 325 -12 c 0,6,7
 242 -12 242 -12 185 58 c 1,8,-1
 176 0 l 1,9,-1
 95 0 l 1,10,-1
 95 739 l 1,11,-1
 187 750 l 1,12,-1
 187 461 l 1,13,14
 244 539 244 539 336 539 c 0,15,0
 426 539 426 539 479 466.5 c 128,-1,1
398.5 110.5 m 128,-1,17
 433 160 433 160 433 264 c 0,18,19
 433 371 433 371 401 418.5 c 128,-1,20
 369 466 369 466 310 466 c 0,21,22
 240 466 240 466 187 384 c 1,23,-1
 187 132 l 1,24,25
 208 99 208 99 238.5 80 c 128,-1,26
 269 61 269 61 303 61 c 0,27,16
 364 61 364 61 398.5 110.5 c 128,-1,17
EndSplineSet
Substitution2: "'smcp' Lowercase to Small Capitals lookup 27 subtable" b.sc
Substitution2: "'aalt' Access All Alternates lookup 0 subtable" b.sc
EndChar

StartChar: uni0253
Encoding: 595 595 381
Width: 594
GlyphClass: 2
Flags: W
AnchorPoint: "Anchor-18" 0 0 basechar 0
AnchorPoint: "Anchor-17" 0 0 basechar 0
AnchorPoint: "Anchor-16" 297 739 basechar 0
AnchorPoint: "Anchor-15" 0 0 basechar 0
AnchorPoint: "Anchor-14" 297 0 basechar 0
LayerCount: 2
Fore
SplineSet
479 466.5 m 128,-1,1
 532 394 532 394 532 264 c 0,2,3
 532 182 532 182 507 119.5 c 128,-1,4
 482 57 482 57 435 22.5 c 128,-1,5
 388 -12 388 -12 325 -12 c 0,6,7
 242 -12 242 -12 185 58 c 1,8,-1
 176 0 l 1,9,-1
 95 0 l 1,10,-1
 95 599 l 2,11,12
 95 667 95 667 138.5 708.5 c 128,-1,13
 182 750 182 750 260 750 c 0,14,15
 296 750 296 750 324.5 743.5 c 128,-1,16
 353 737 353 737 386 723 c 1,17,-1
 357 656 l 1,18,19
 312 676 312 676 265 676 c 0,20,21
 223 676 223 676 205 657.5 c 128,-1,22
 187 639 187 639 187 600 c 2,23,-1
 187 461 l 1,24,25
 244 539 244 539 336 539 c 0,26,0
 426 539 426 539 479 466.5 c 128,-1,1
398.5 110.5 m 128,-1,28
 433 160 433 160 433 264 c 0,29,30
 433 371 433 371 401 418.5 c 128,-1,31
 369 466 369 466 310 466 c 0,32,33
 240 466 240 466 187 384 c 1,34,-1
 187 132 l 1,35,36
 208 99 208 99 238.5 80 c 128,-1,37
 269 61 269 61 303 61 c 0,38,27
 364 61 364 61 398.5 110.5 c 128,-1,28
EndSplineSet
Substitution2: "'smcp' Lowercase to Small Capitals lookup 27 subtable" uni0253.sc
Substitution2: "'aalt' Access All Alternates lookup 0 subtable" uni0253.sc
EndChar

StartChar: uni02AD
Encoding: 685 685 382
Width: 340
GlyphClass: 2
Flags: W
AnchorPoint: "Anchor-18" 0 0 basechar 0
AnchorPoint: "Anchor-17" 0 0 basechar 0
AnchorPoint: "Anchor-16" 0 0 basechar 0
AnchorPoint: "Anchor-15" 0 0 basechar 0
AnchorPoint: "Anchor-14" 174 160 basechar 0
LayerCount: 2
Fore
SplineSet
30 400 m 1,0,-1
 30 549 l 1,1,-1
 310 549 l 1,2,-1
 310 400 l 1,3,-1
 247 400 l 1,4,-1
 247 490 l 1,5,-1
 93 490 l 1,6,-1
 93 400 l 1,7,-1
 30 400 l 1,0,-1
30 0 m 1,8,-1
 30 149 l 1,9,-1
 310 149 l 1,10,-1
 310 0 l 1,11,-1
 247 0 l 1,12,-1
 247 90 l 1,13,-1
 93 90 l 1,14,-1
 93 0 l 1,15,-1
 30 0 l 1,8,-1
EndSplineSet
EndChar

StartChar: uni0298
Encoding: 664 664 383
Width: 792
GlyphClass: 2
Flags: W
AnchorPoint: "Anchor-18" 0 0 basechar 0
AnchorPoint: "Anchor-17" 0 0 basechar 0
AnchorPoint: "Anchor-16" 396 689 basechar 0
AnchorPoint: "Anchor-15" 0 0 basechar 0
AnchorPoint: "Anchor-14" 396 0 basechar 0
LayerCount: 2
Fore
SplineSet
573 659 m 128,-1,1
 650 617 650 617 693.5 536.5 c 128,-1,2
 737 456 737 456 737 345 c 0,3,4
 737 235 737 235 693.5 154 c 128,-1,5
 650 73 650 73 572.5 30.5 c 128,-1,6
 495 -12 495 -12 396 -12 c 256,7,8
 297 -12 297 -12 219.5 30 c 128,-1,9
 142 72 142 72 98.5 152.5 c 128,-1,10
 55 233 55 233 55 344 c 0,11,12
 55 453 55 453 99 533.5 c 128,-1,13
 143 614 143 614 220 657.5 c 128,-1,14
 297 701 297 701 396 701 c 0,15,0
 496 701 496 701 573 659 c 128,-1,1
212.5 555.5 m 128,-1,17
 144 484 144 484 144 344 c 0,18,19
 144 203 144 203 213 132.5 c 128,-1,20
 282 62 282 62 396 62 c 0,21,22
 512 62 512 62 580 132 c 128,-1,23
 648 202 648 202 648 345 c 0,24,25
 648 485 648 485 580.5 556 c 128,-1,26
 513 627 513 627 396 627 c 0,27,16
 281 627 281 627 212.5 555.5 c 128,-1,17
443 390 m 128,-1,29
 461 372 461 372 461 345 c 256,30,31
 461 318 461 318 443 300.5 c 128,-1,32
 425 283 425 283 396 283 c 0,33,34
 368 283 368 283 350 300.5 c 128,-1,35
 332 318 332 318 332 345 c 256,36,37
 332 372 332 372 350 390 c 128,-1,38
 368 408 368 408 396 408 c 0,39,28
 425 408 425 408 443 390 c 128,-1,29
EndSplineSet
EndChar

StartChar: uni0180
Encoding: 384 384 385
Width: 600
GlyphClass: 2
Flags: W
AnchorPoint: "Anchor-18" 0 0 basechar 0
AnchorPoint: "Anchor-17" 0 0 basechar 0
AnchorPoint: "Anchor-16" 319 739 basechar 0
AnchorPoint: "Anchor-15" 0 0 basechar 0
AnchorPoint: "Anchor-14" 314 0 basechar 0
LayerCount: 2
Fore
SplineSet
485 466.5 m 128,-1,1
 538 394 538 394 538 264 c 0,2,3
 538 182 538 182 513 119.5 c 128,-1,4
 488 57 488 57 441 22.5 c 128,-1,5
 394 -12 394 -12 331 -12 c 0,6,7
 248 -12 248 -12 191 58 c 1,8,-1
 182 0 l 1,9,-1
 101 0 l 1,10,-1
 101 606 l 1,11,-1
 22 606 l 1,12,-1
 22 676 l 1,13,-1
 101 676 l 1,14,-1
 101 739 l 1,15,-1
 193 750 l 1,16,-1
 193 676 l 1,17,-1
 341 676 l 1,18,-1
 341 606 l 1,19,-1
 193 606 l 1,20,-1
 193 461 l 1,21,22
 250 539 250 539 342 539 c 0,23,0
 432 539 432 539 485 466.5 c 128,-1,1
404.5 110.5 m 128,-1,25
 439 160 439 160 439 264 c 0,26,27
 439 371 439 371 407 418.5 c 128,-1,28
 375 466 375 466 316 466 c 0,29,30
 246 466 246 466 193 384 c 1,31,-1
 193 132 l 1,32,33
 214 99 214 99 244.5 80 c 128,-1,34
 275 61 275 61 309 61 c 0,35,24
 370 61 370 61 404.5 110.5 c 128,-1,25
EndSplineSet
Substitution2: "'smcp' Lowercase to Small Capitals lookup 27 subtable" uni0180.sc
Substitution2: "'aalt' Access All Alternates lookup 0 subtable" uni0180.sc
EndChar

StartChar: uni0183
Encoding: 387 387 386
Width: 594
GlyphClass: 2
Flags: W
AnchorPoint: "Anchor-18" 0 0 basechar 0
AnchorPoint: "Anchor-17" 0 0 basechar 0
AnchorPoint: "Anchor-16" 297 739 basechar 0
AnchorPoint: "Anchor-15" 0 0 basechar 0
AnchorPoint: "Anchor-14" 297 0 basechar 0
LayerCount: 2
Fore
SplineSet
479 466.5 m 128,-1,1
 532 394 532 394 532 264 c 0,2,3
 532 182 532 182 507 119.5 c 128,-1,4
 482 57 482 57 435 22.5 c 128,-1,5
 388 -12 388 -12 325 -12 c 0,6,7
 242 -12 242 -12 185 58 c 1,8,-1
 176 0 l 1,9,-1
 95 0 l 1,10,-1
 95 739 l 1,11,-1
 411 739 l 1,12,-1
 399 669 l 1,13,-1
 187 669 l 1,14,-1
 187 461 l 1,15,16
 244 539 244 539 336 539 c 0,17,0
 426 539 426 539 479 466.5 c 128,-1,1
398.5 110.5 m 128,-1,19
 433 160 433 160 433 264 c 0,20,21
 433 371 433 371 401 418.5 c 128,-1,22
 369 466 369 466 310 466 c 0,23,24
 240 466 240 466 187 384 c 1,25,-1
 187 132 l 1,26,27
 208 99 208 99 238.5 80 c 128,-1,28
 269 61 269 61 303 61 c 0,29,18
 364 61 364 61 398.5 110.5 c 128,-1,19
EndSplineSet
Substitution2: "'smcp' Lowercase to Small Capitals lookup 27 subtable" uni0183.sc
Substitution2: "'aalt' Access All Alternates lookup 0 subtable" uni0183.sc
EndChar

StartChar: c
Encoding: 99 99 387
Width: 478
GlyphClass: 2
Flags: W
AnchorPoint: "Anchor-18" 0 0 basechar 0
AnchorPoint: "Anchor-17" 0 0 basechar 0
AnchorPoint: "Anchor-16" 289 527 basechar 0
AnchorPoint: "Anchor-15" 0 0 basechar 0
AnchorPoint: "Anchor-14" 284 0 basechar 0
LayerCount: 2
Fore
SplineSet
373 525.5 m 128,-1,1
 412 512 412 512 448 482 c 1,2,-1
 404 424 l 1,3,4
 376 444 376 444 349.5 453.5 c 128,-1,5
 323 463 323 463 291 463 c 0,6,7
 227 463 227 463 191.5 412 c 128,-1,8
 156 361 156 361 156 261 c 256,9,10
 156 161 156 161 191 113.5 c 128,-1,11
 226 66 226 66 291 66 c 0,12,13
 322 66 322 66 348 75.5 c 128,-1,14
 374 85 374 85 406 106 c 1,15,-1
 448 46 l 1,16,17
 376 -12 376 -12 287 -12 c 0,18,19
 180 -12 180 -12 118.5 60 c 128,-1,20
 57 132 57 132 57 259 c 0,21,22
 57 343 57 343 85 406 c 128,-1,23
 113 469 113 469 164.5 504 c 128,-1,24
 216 539 216 539 287 539 c 0,25,0
 334 539 334 539 373 525.5 c 128,-1,1
EndSplineSet
Substitution2: "'smcp' Lowercase to Small Capitals lookup 27 subtable" c.sc
Substitution2: "'aalt' Access All Alternates lookup 0 subtable" c.sc
EndChar

StartChar: ccedilla
Encoding: 231 231 391
Width: 478
GlyphClass: 2
Flags: W
AnchorPoint: "Anchor-18" 0 0 basechar 0
AnchorPoint: "Anchor-17" 0 0 basechar 0
AnchorPoint: "Anchor-16" 289 527 basechar 0
AnchorPoint: "Anchor-15" 0 0 basechar 0
AnchorPoint: "Anchor-14" 296 -241 basechar 0
LayerCount: 2
Fore
SplineSet
308 -11 m 1,1,-1
 308 -56 l 1,2,3
 356 -60 356 -60 378.5 -83.5 c 128,-1,4
 401 -107 401 -107 401 -141 c 0,5,6
 401 -189 401 -189 366 -215 c 128,-1,7
 331 -241 331 -241 277 -241 c 0,8,9
 249 -241 249 -241 225 -234.5 c 128,-1,10
 201 -228 201 -228 186 -217 c 1,11,-1
 211 -165 l 1,12,13
 241 -181 241 -181 274 -181 c 0,14,15
 297 -181 297 -181 310.5 -171.5 c 128,-1,16
 324 -162 324 -162 324 -141 c 256,17,18
 324 -120 324 -120 303 -109.5 c 128,-1,19
 282 -99 282 -99 235 -99 c 1,20,-1
 246 -9 l 1,21,22
 157 5 157 5 107 75 c 128,-1,23
 57 145 57 145 57 259 c 0,24,25
 57 343 57 343 85 406 c 128,-1,26
 113 469 113 469 164.5 504 c 128,-1,27
 216 539 216 539 287 539 c 0,28,29
 334 539 334 539 373 525.5 c 128,-1,30
 412 512 412 512 448 482 c 1,31,-1
 404 424 l 1,32,33
 376 444 376 444 349.5 453.5 c 128,-1,34
 323 463 323 463 291 463 c 0,35,36
 227 463 227 463 191.5 412 c 128,-1,37
 156 361 156 361 156 261 c 256,38,39
 156 161 156 161 191 113.5 c 128,-1,40
 226 66 226 66 291 66 c 0,41,42
 322 66 322 66 348 75.5 c 128,-1,43
 374 85 374 85 406 106 c 1,44,-1
 448 46 l 1,45,0
 385 -5 385 -5 308 -11 c 1,1,-1
EndSplineSet
Substitution2: "'smcp' Lowercase to Small Capitals lookup 27 subtable" ccedilla.sc
Substitution2: "'aalt' Access All Alternates lookup 0 subtable" ccedilla.sc
EndChar

StartChar: uni0255
Encoding: 597 597 393
Width: 488
GlyphClass: 2
Flags: W
AnchorPoint: "Anchor-18" 0 0 basechar 0
AnchorPoint: "Anchor-17" 0 0 basechar 0
AnchorPoint: "Anchor-16" 284 527 basechar 0
AnchorPoint: "Anchor-15" 0 0 basechar 0
AnchorPoint: "Anchor-14" 284 -20 basechar 0
LayerCount: 2
Fore
SplineSet
430.5 205 m 128,-1,1
 463 176 463 176 463 126 c 0,2,3
 463 62 463 62 414 25 c 128,-1,4
 365 -12 365 -12 287 -12 c 0,5,6
 248 -12 248 -12 216 -2 c 1,7,-1
 183 -75 l 1,8,-1
 124 -50 l 1,9,-1
 157 25 l 1,10,11
 109 58 109 58 83 118 c 128,-1,12
 57 178 57 178 57 259 c 0,13,14
 57 343 57 343 85 406 c 128,-1,15
 113 469 113 469 164.5 504 c 128,-1,16
 216 539 216 539 287 539 c 0,17,18
 334 539 334 539 373 525.5 c 128,-1,19
 412 512 412 512 448 482 c 1,20,-1
 403 422 l 1,21,22
 376 443 376 443 350 453 c 128,-1,23
 324 463 324 463 291 463 c 0,24,25
 227 463 227 463 191.5 412 c 128,-1,26
 156 361 156 361 156 261 c 0,27,28
 156 155 156 155 197 106 c 1,29,-1
 197 107 l 1,30,31
 225 174 225 174 257.5 204 c 128,-1,32
 290 234 290 234 345 234 c 0,33,0
 398 234 398 234 430.5 205 c 128,-1,1
360 81 m 128,-1,35
 382 96 382 96 382 126 c 0,36,37
 382 146 382 146 371.5 156.5 c 128,-1,38
 361 167 361 167 341 167 c 0,39,40
 312 167 312 167 293.5 148 c 128,-1,41
 275 129 275 129 250 74 c 1,42,43
 270 66 270 66 297 66 c 0,44,34
 338 66 338 66 360 81 c 128,-1,35
EndSplineSet
EndChar

StartChar: uni0188
Encoding: 392 392 395
Width: 478
GlyphClass: 2
Flags: W
AnchorPoint: "Anchor-18" 0 0 basechar 0
AnchorPoint: "Anchor-17" 0 0 basechar 0
AnchorPoint: "Anchor-16" 239 739 basechar 0
AnchorPoint: "Anchor-15" 0 0 basechar 0
AnchorPoint: "Anchor-14" 239 0 basechar 0
LayerCount: 2
Fore
SplineSet
622 712 m 1,1,-1
 586 653 l 1,2,3
 566 665 566 665 550.5 670.5 c 128,-1,4
 535 676 535 676 512 676 c 0,5,6
 448 676 448 676 448 602 c 2,7,-1
 448 482 l 1,8,-1
 410 432 l 1,9,10
 383 447 383 447 356 455 c 128,-1,11
 329 463 329 463 291 463 c 0,12,13
 227 463 227 463 191.5 412 c 128,-1,14
 156 361 156 361 156 261 c 256,15,16
 156 161 156 161 191 113.5 c 128,-1,17
 226 66 226 66 291 66 c 0,18,19
 322 66 322 66 348 75.5 c 128,-1,20
 374 85 374 85 406 106 c 1,21,-1
 448 46 l 1,22,23
 376 -12 376 -12 287 -12 c 0,24,25
 180 -12 180 -12 118.5 60 c 128,-1,26
 57 132 57 132 57 259 c 0,27,28
 57 343 57 343 85 406 c 128,-1,29
 113 469 113 469 164.5 504 c 128,-1,30
 216 539 216 539 287 539 c 0,31,32
 326 539 326 539 356 527 c 1,33,-1
 356 594 l 2,34,35
 356 670 356 670 396 710 c 128,-1,36
 436 750 436 750 507 750 c 0,37,0
 572 750 572 750 622 712 c 1,1,-1
EndSplineSet
Substitution2: "'smcp' Lowercase to Small Capitals lookup 27 subtable" uni0188.sc
Substitution2: "'aalt' Access All Alternates lookup 0 subtable" uni0188.sc
EndChar

StartChar: uni0297
Encoding: 663 663 396
Width: 495
GlyphClass: 2
Flags: W
AnchorPoint: "Anchor-18" 0 0 basechar 0
AnchorPoint: "Anchor-17" 0 0 basechar 0
AnchorPoint: "Anchor-16" 311 527 basechar 0
AnchorPoint: "Anchor-15" 0 0 basechar 0
AnchorPoint: "Anchor-14" 309 -202 basechar 0
LayerCount: 2
Fore
SplineSet
392.5 525.5 m 128,-1,1
 429 512 429 512 465 482 c 1,2,-1
 423 424 l 1,3,4
 394 444 394 444 368.5 453.5 c 128,-1,5
 343 463 343 463 312 463 c 0,6,7
 244 463 244 463 208.5 391 c 128,-1,8
 173 319 173 319 173 161 c 0,9,10
 173 4 173 4 208 -64.5 c 128,-1,11
 243 -133 243 -133 311 -133 c 0,12,13
 340 -133 340 -133 365.5 -123 c 128,-1,14
 391 -113 391 -113 422 -92 c 1,15,-1
 465 -153 l 1,16,17
 393 -211 393 -211 309 -211 c 0,18,19
 197 -211 197 -211 135.5 -118 c 128,-1,20
 74 -25 74 -25 74 159 c 0,21,22
 74 344 74 344 136 441.5 c 128,-1,23
 198 539 198 539 313 539 c 0,24,0
 356 539 356 539 392.5 525.5 c 128,-1,1
EndSplineSet
EndChar

StartChar: uni023C
Encoding: 572 572 397
Width: 478
GlyphClass: 2
Flags: W
AnchorPoint: "Anchor-18" 0 0 basechar 0
AnchorPoint: "Anchor-17" 0 0 basechar 0
AnchorPoint: "Anchor-16" 289 527 basechar 0
AnchorPoint: "Anchor-15" 0 0 basechar 0
AnchorPoint: "Anchor-14" 284 0 basechar 0
LayerCount: 2
Fore
SplineSet
348 75.5 m 128,-1,1
 374 85 374 85 406 106 c 1,2,-1
 448 46 l 1,3,4
 376 -12 376 -12 287 -12 c 0,5,6
 252 -12 252 -12 225 -5 c 1,7,-1
 207 -70 l 1,8,-1
 164 -59 l 1,9,-1
 183 10 l 1,10,11
 123 39 123 39 90 103 c 128,-1,12
 57 167 57 167 57 259 c 0,13,14
 57 343 57 343 85 406 c 128,-1,15
 113 469 113 469 164.5 504 c 128,-1,16
 216 539 216 539 287 539 c 0,17,18
 307 539 307 539 327 536 c 1,19,-1
 343 595 l 1,20,-1
 386 584 l 1,21,-1
 370 527 l 1,22,23
 414 511 414 511 448 482 c 1,24,-1
 404 424 l 1,25,26
 375 445 375 445 350 453 c 1,27,-1
 246 73 l 1,28,29
 266 66 266 66 291 66 c 0,30,0
 322 66 322 66 348 75.5 c 128,-1,1
206 96 m 1,32,-1
 307 462 l 1,33,34
 302 463 302 463 291 463 c 0,35,36
 227 463 227 463 191.5 412 c 128,-1,37
 156 361 156 361 156 261 c 0,38,31
 156 143 156 143 206 96 c 1,32,-1
EndSplineSet
Substitution2: "'smcp' Lowercase to Small Capitals lookup 27 subtable" uni023C.sc
Substitution2: "'aalt' Access All Alternates lookup 0 subtable" uni023C.sc
EndChar

StartChar: d
Encoding: 100 100 398
Width: 598
GlyphClass: 2
Flags: W
AnchorPoint: "Anchor-18" 303 264 basechar 0
AnchorPoint: "Anchor-17" 513 739 basechar 0
AnchorPoint: "Anchor-16" 301 739 basechar 0
AnchorPoint: "Anchor-15" 0 0 basechar 0
AnchorPoint: "Anchor-14" 308 0 basechar 0
LayerCount: 2
Fore
SplineSet
503 739 m 1,0,-1
 503 0 l 1,1,-1
 422 0 l 1,2,-1
 413 73 l 1,3,4
 387 33 387 33 348 10.5 c 128,-1,5
 309 -12 309 -12 261 -12 c 0,6,7
 167 -12 167 -12 114.5 62 c 128,-1,8
 62 136 62 136 62 261 c 0,9,10
 62 342 62 342 87 405 c 128,-1,11
 112 468 112 468 159 503.5 c 128,-1,12
 206 539 206 539 269 539 c 0,13,14
 350 539 350 539 411 474 c 1,15,-1
 411 750 l 1,16,-1
 503 739 l 1,0,-1
353 80.5 m 128,-1,18
 383 100 383 100 411 139 c 1,19,-1
 411 397 l 1,20,21
 385 431 385 431 355.5 448.5 c 128,-1,22
 326 466 326 466 289 466 c 0,23,24
 228 466 228 466 194.5 415 c 128,-1,25
 161 364 161 364 161 263 c 0,26,27
 161 161 161 161 192 111 c 128,-1,28
 223 61 223 61 281 61 c 0,29,17
 323 61 323 61 353 80.5 c 128,-1,18
EndSplineSet
Substitution2: "'smcp' Lowercase to Small Capitals lookup 27 subtable" d.sc
Substitution2: "'aalt' Access All Alternates lookup 0 subtable" d.sc
EndChar

StartChar: eth
Encoding: 240 240 399
Width: 570
GlyphClass: 2
Flags: W
AnchorPoint: "Anchor-18" 0 0 basechar 0
AnchorPoint: "Anchor-17" 0 0 basechar 0
AnchorPoint: "Anchor-16" 294 739 basechar 0
AnchorPoint: "Anchor-15" 0 0 basechar 0
AnchorPoint: "Anchor-14" 278 0 basechar 0
LayerCount: 2
Fore
SplineSet
470 500.5 m 128,-1,1
 508 405 508 405 508 265 c 0,2,3
 508 182 508 182 479 119.5 c 128,-1,4
 450 57 450 57 398 22.5 c 128,-1,5
 346 -12 346 -12 278 -12 c 0,6,7
 216 -12 216 -12 165.5 17 c 128,-1,8
 115 46 115 46 86 102 c 128,-1,9
 57 158 57 158 57 235 c 0,10,11
 57 297 57 297 79.5 352 c 128,-1,12
 102 407 102 407 147.5 441 c 128,-1,13
 193 475 193 475 258 475 c 0,14,15
 349 475 349 475 405 408 c 1,16,17
 393 471 393 471 364.5 519.5 c 128,-1,18
 336 568 336 568 286 607 c 1,19,-1
 214 537 l 1,20,-1
 151 569 l 1,21,-1
 225 644 l 1,22,23
 173 668 173 668 112 680 c 1,24,-1
 132 750 l 1,25,26
 217 733 217 733 281 702 c 1,27,-1
 351 776 l 1,28,-1
 405 729 l 1,29,-1
 342 664 l 1,30,0
 432 596 432 596 470 500.5 c 128,-1,1
377.5 114 m 128,-1,32
 415 167 415 167 415 266 c 0,33,34
 415 287 415 287 413 325 c 1,35,36
 387 364 387 364 352.5 383.5 c 128,-1,37
 318 403 318 403 272 403 c 0,38,39
 151 403 151 403 151 239 c 0,40,41
 151 153 151 153 185 107 c 128,-1,42
 219 61 219 61 277 61 c 0,43,31
 340 61 340 61 377.5 114 c 128,-1,32
EndSplineSet
Substitution2: "'smcp' Lowercase to Small Capitals lookup 27 subtable" eth.sc
Substitution2: "'aalt' Access All Alternates lookup 0 subtable" eth.sc
EndChar

StartChar: uni0238
Encoding: 568 568 400
Width: 870
GlyphClass: 2
Flags: W
AnchorPoint: "Anchor-18" 0 0 basechar 0
AnchorPoint: "Anchor-17" 0 0 basechar 0
AnchorPoint: "Anchor-16" 435 739 basechar 0
AnchorPoint: "Anchor-15" 0 0 basechar 0
AnchorPoint: "Anchor-14" 435 0 basechar 0
LayerCount: 2
Fore
SplineSet
720.5 506.5 m 128,-1,1
 762 474 762 474 785 412 c 128,-1,2
 808 350 808 350 808 264 c 0,3,4
 808 182 808 182 783.5 119.5 c 128,-1,5
 759 57 759 57 714 22.5 c 128,-1,6
 669 -12 669 -12 611 -12 c 0,7,8
 531 -12 531 -12 482 71 c 1,9,-1
 472 0 l 1,10,-1
 402 0 l 1,11,-1
 393 73 l 1,12,13
 367 33 367 33 330 10.5 c 128,-1,14
 293 -12 293 -12 251 -12 c 0,15,16
 193 -12 193 -12 150 22 c 128,-1,17
 107 56 107 56 84.5 117.5 c 128,-1,18
 62 179 62 179 62 261 c 0,19,20
 62 341 62 341 86 404.5 c 128,-1,21
 110 468 110 468 154.5 503.5 c 128,-1,22
 199 539 199 539 257 539 c 0,23,24
 296 539 296 539 330 519.5 c 128,-1,25
 364 500 364 500 391 463 c 1,26,-1
 391 739 l 1,27,-1
 483 750 l 1,28,-1
 483 461 l 1,29,30
 511 500 511 500 544.5 519.5 c 128,-1,31
 578 539 578 539 624 539 c 0,32,0
 679 539 679 539 720.5 506.5 c 128,-1,1
334.5 80.5 m 128,-1,34
 363 100 363 100 391 139 c 1,35,-1
 391 389 l 1,36,37
 340 466 340 466 275 466 c 0,38,39
 223 466 223 466 192 414.5 c 128,-1,40
 161 363 161 363 161 263 c 0,41,42
 161 162 161 162 190.5 111.5 c 128,-1,43
 220 61 220 61 271 61 c 0,44,33
 306 61 306 61 334.5 80.5 c 128,-1,34
677 111.5 m 128,-1,46
 709 162 709 162 709 264 c 0,47,48
 709 466 709 466 600 466 c 0,49,50
 561 466 561 466 534.5 445 c 128,-1,51
 508 424 508 424 483 388 c 1,52,-1
 483 147 l 1,53,54
 510 101 510 101 533 81 c 128,-1,55
 556 61 556 61 596 61 c 0,56,45
 645 61 645 61 677 111.5 c 128,-1,46
EndSplineSet
EndChar

StartChar: dcroat
Encoding: 273 273 403
Width: 604
GlyphClass: 2
Flags: W
AnchorPoint: "Anchor-18" 303 264 basechar 0
AnchorPoint: "Anchor-17" 513 739 basechar 0
AnchorPoint: "Anchor-16" 301 739 basechar 0
AnchorPoint: "Anchor-15" 0 0 basechar 0
AnchorPoint: "Anchor-14" 308 0 basechar 0
LayerCount: 2
Fore
SplineSet
582 676 m 1,0,-1
 582 606 l 1,1,-1
 503 606 l 1,2,-1
 503 0 l 1,3,-1
 422 0 l 1,4,-1
 413 73 l 1,5,6
 387 33 387 33 348 10.5 c 128,-1,7
 309 -12 309 -12 261 -12 c 0,8,9
 167 -12 167 -12 114.5 62 c 128,-1,10
 62 136 62 136 62 261 c 0,11,12
 62 342 62 342 87 405 c 128,-1,13
 112 468 112 468 159 503.5 c 128,-1,14
 206 539 206 539 269 539 c 0,15,16
 350 539 350 539 411 474 c 1,17,-1
 411 606 l 1,18,-1
 253 606 l 1,19,-1
 253 676 l 1,20,-1
 411 676 l 1,21,-1
 411 750 l 1,22,-1
 503 739 l 1,23,-1
 503 676 l 1,24,-1
 582 676 l 1,0,-1
353 80.5 m 128,-1,26
 383 100 383 100 411 139 c 1,27,-1
 411 397 l 1,28,29
 385 431 385 431 355.5 448.5 c 128,-1,30
 326 466 326 466 289 466 c 0,31,32
 228 466 228 466 194.5 415 c 128,-1,33
 161 364 161 364 161 263 c 0,34,35
 161 161 161 161 192 111 c 128,-1,36
 223 61 223 61 281 61 c 0,37,25
 323 61 323 61 353 80.5 c 128,-1,26
EndSplineSet
Substitution2: "'smcp' Lowercase to Small Capitals lookup 27 subtable" dcroat.sc
Substitution2: "'aalt' Access All Alternates lookup 0 subtable" dcroat.sc
EndChar

StartChar: uni0221
Encoding: 545 545 404
Width: 738
GlyphClass: 2
Flags: W
AnchorPoint: "Anchor-18" 0 0 basechar 0
AnchorPoint: "Anchor-17" 0 0 basechar 0
AnchorPoint: "Anchor-16" 369 739 basechar 0
AnchorPoint: "Anchor-15" 0 0 basechar 0
AnchorPoint: "Anchor-14" 369 -202 basechar 0
LayerCount: 2
Fore
SplineSet
728 195.5 m 128,-1,1
 758 167 758 167 758 121 c 0,2,3
 758 60 758 60 711 24 c 128,-1,4
 664 -12 664 -12 587 -12 c 0,5,6
 553 -12 553 -12 525 -4 c 1,7,-1
 493 -75 l 1,8,-1
 434 -50 l 1,9,-1
 468 23 l 1,10,11
 435 48 435 48 421 86 c 1,12,13
 396 40 396 40 354.5 14 c 128,-1,14
 313 -12 313 -12 261 -12 c 0,15,16
 167 -12 167 -12 114.5 62 c 128,-1,17
 62 136 62 136 62 261 c 0,18,19
 62 342 62 342 87 405 c 128,-1,20
 112 468 112 468 159 503.5 c 128,-1,21
 206 539 206 539 269 539 c 0,22,23
 350 539 350 539 411 474 c 1,24,-1
 411 750 l 1,25,-1
 503 739 l 1,26,-1
 503 140 l 2,27,28
 503 116 503 116 507 103 c 1,29,-1
 508 106 l 1,30,31
 533 166 533 166 566 195 c 128,-1,32
 599 224 599 224 649 224 c 0,33,0
 698 224 698 224 728 195.5 c 128,-1,1
353 80.5 m 128,-1,35
 383 100 383 100 411 140 c 1,36,-1
 411 150 l 1,37,-1
 411 397 l 1,38,39
 385 431 385 431 355.5 448.5 c 128,-1,40
 326 466 326 466 289 466 c 0,41,42
 228 466 228 466 194.5 415 c 128,-1,43
 161 364 161 364 161 263 c 0,44,45
 161 161 161 161 192 111 c 128,-1,46
 223 61 223 61 281 61 c 0,47,34
 323 61 323 61 353 80.5 c 128,-1,35
655 80 m 128,-1,49
 677 94 677 94 677 121 c 0,50,51
 677 157 677 157 641 157 c 0,52,53
 617 157 617 157 599.5 138 c 128,-1,54
 582 119 582 119 558 67 c 1,55,56
 566 66 566 66 587 66 c 0,57,48
 633 66 633 66 655 80 c 128,-1,49
EndSplineSet
EndChar

StartChar: uni018D
Encoding: 397 397 407
Width: 579
GlyphClass: 2
Flags: W
AnchorPoint: "Anchor-18" 0 0 basechar 0
AnchorPoint: "Anchor-17" 0 0 basechar 0
AnchorPoint: "Anchor-16" 290 527 basechar 0
AnchorPoint: "Anchor-15" 0 0 basechar 0
AnchorPoint: "Anchor-14" 290 -202 basechar 0
LayerCount: 2
Fore
SplineSet
445.5 3.5 m 128,-1,1
 467 -29 467 -29 467 -74 c 0,2,3
 467 -112 467 -112 446.5 -144.5 c 128,-1,4
 426 -177 426 -177 386 -196.5 c 128,-1,5
 346 -216 346 -216 291 -216 c 256,6,7
 236 -216 236 -216 194 -202.5 c 128,-1,8
 152 -189 152 -189 113 -162 c 1,9,-1
 160 -105 l 1,10,11
 191 -126 191 -126 218.5 -135 c 128,-1,12
 246 -144 246 -144 280 -144 c 0,13,14
 327 -144 327 -144 349.5 -124.5 c 128,-1,15
 372 -105 372 -105 372 -74 c 0,16,17
 372 -51 372 -51 362 -35 c 128,-1,18
 352 -19 352 -19 327 -4 c 128,-1,19
 302 11 302 11 251 33 c 0,20,21
 151 76 151 76 104 132.5 c 128,-1,22
 57 189 57 189 57 284 c 0,23,24
 57 353 57 353 85 411.5 c 128,-1,25
 113 470 113 470 165.5 504.5 c 128,-1,26
 218 539 218 539 290 539 c 0,27,28
 359 539 359 539 411.5 509 c 128,-1,29
 464 479 464 479 493 422 c 128,-1,30
 522 365 522 365 522 287 c 256,31,32
 522 209 522 209 482 153.5 c 128,-1,33
 442 98 442 98 371 63 c 1,34,0
 424 36 424 36 445.5 3.5 c 128,-1,1
170.5 198.5 m 128,-1,36
 185 164 185 164 219 138 c 128,-1,37
 253 112 253 112 314 88 c 1,38,39
 368 122 368 122 395.5 169.5 c 128,-1,40
 423 217 423 217 423 287 c 0,41,42
 423 374 423 374 390 419.5 c 128,-1,43
 357 465 357 465 290 465 c 0,44,45
 225 465 225 465 190.5 418.5 c 128,-1,46
 156 372 156 372 156 284 c 0,47,35
 156 233 156 233 170.5 198.5 c 128,-1,36
EndSplineSet
EndChar

StartChar: uni02A4
Encoding: 676 676 408
Width: 952
GlyphClass: 2
Flags: W
AnchorPoint: "Anchor-18" 303 264 basechar 0
AnchorPoint: "Anchor-17" 513 739 basechar 0
AnchorPoint: "Anchor-16" 575 739 basechar 0
AnchorPoint: "Anchor-15" 0 0 basechar 0
AnchorPoint: "Anchor-14" 680 -202 basechar 0
LayerCount: 2
Fore
SplineSet
861.5 155.5 m 128,-1,1
 922 105 922 105 922 7 c 0,2,3
 922 -58 922 -58 892 -108 c 128,-1,4
 862 -158 862 -158 808 -185.5 c 128,-1,5
 754 -213 754 -213 682 -213 c 0,6,7
 613 -213 613 -213 562 -190.5 c 128,-1,8
 511 -168 511 -168 471 -123 c 1,9,-1
 525 -73 l 1,10,11
 560 -107 560 -107 596.5 -122.5 c 128,-1,12
 633 -138 633 -138 680 -138 c 0,13,14
 750 -138 750 -138 786.5 -100.5 c 128,-1,15
 823 -63 823 -63 823 9 c 0,16,17
 823 79 823 79 787 108.5 c 128,-1,18
 751 138 751 138 667 138 c 2,19,-1
 588 138 l 1,20,-1
 588 205 l 1,21,-1
 793 451 l 1,22,-1
 503 451 l 1,23,-1
 503 0 l 1,24,-1
 422 0 l 1,25,-1
 413 73 l 1,26,27
 387 33 387 33 348 10.5 c 128,-1,28
 309 -12 309 -12 261 -12 c 0,29,30
 167 -12 167 -12 114.5 62 c 128,-1,31
 62 136 62 136 62 261 c 0,32,33
 62 342 62 342 87 405 c 128,-1,34
 112 468 112 468 159 503.5 c 128,-1,35
 206 539 206 539 269 539 c 0,36,37
 350 539 350 539 411 474 c 1,38,-1
 411 750 l 1,39,-1
 503 739 l 1,40,-1
 503 527 l 1,41,-1
 898 527 l 1,42,-1
 898 457 l 1,43,-1
 684 206 l 1,44,-1
 687 206 l 2,45,0
 801 206 801 206 861.5 155.5 c 128,-1,1
353 80.5 m 128,-1,47
 383 100 383 100 411 139 c 1,48,-1
 411 397 l 1,49,50
 385 431 385 431 355.5 448.5 c 128,-1,51
 326 466 326 466 289 466 c 0,52,53
 228 466 228 466 194.5 415 c 128,-1,54
 161 364 161 364 161 263 c 0,55,56
 161 161 161 161 192 111 c 128,-1,57
 223 61 223 61 281 61 c 0,58,46
 323 61 323 61 353 80.5 c 128,-1,47
EndSplineSet
EndChar

StartChar: uni0257
Encoding: 599 599 409
Width: 598
GlyphClass: 2
Flags: W
AnchorPoint: "Anchor-18" 0 0 basechar 0
AnchorPoint: "Anchor-17" 0 0 basechar 0
AnchorPoint: "Anchor-16" 319 739 basechar 0
AnchorPoint: "Anchor-15" 0 0 basechar 0
AnchorPoint: "Anchor-14" 299 0 basechar 0
LayerCount: 2
Fore
SplineSet
677 712 m 1,1,-1
 641 653 l 1,2,3
 621 665 621 665 605.5 670.5 c 128,-1,4
 590 676 590 676 567 676 c 0,5,6
 503 676 503 676 503 602 c 2,7,-1
 503 0 l 1,8,-1
 422 0 l 1,9,-1
 413 73 l 1,10,11
 387 33 387 33 348 10.5 c 128,-1,12
 309 -12 309 -12 261 -12 c 0,13,14
 167 -12 167 -12 114.5 62 c 128,-1,15
 62 136 62 136 62 261 c 0,16,17
 62 342 62 342 87 405 c 128,-1,18
 112 468 112 468 159 503.5 c 128,-1,19
 206 539 206 539 269 539 c 0,20,21
 350 539 350 539 411 474 c 1,22,-1
 411 594 l 2,23,24
 411 670 411 670 451 710 c 128,-1,25
 491 750 491 750 562 750 c 0,26,0
 627 750 627 750 677 712 c 1,1,-1
353 80.5 m 128,-1,28
 383 100 383 100 411 139 c 1,29,-1
 411 397 l 1,30,31
 385 431 385 431 355.5 448.5 c 128,-1,32
 326 466 326 466 289 466 c 0,33,34
 228 466 228 466 194.5 415 c 128,-1,35
 161 364 161 364 161 263 c 0,36,37
 161 161 161 161 192 111 c 128,-1,38
 223 61 223 61 281 61 c 0,39,27
 323 61 323 61 353 80.5 c 128,-1,28
EndSplineSet
Substitution2: "'smcp' Lowercase to Small Capitals lookup 27 subtable" uni0257.sc
Substitution2: "'aalt' Access All Alternates lookup 0 subtable" uni0257.sc
EndChar

StartChar: uni0256
Encoding: 598 598 411
Width: 598
GlyphClass: 2
Flags: W
AnchorPoint: "Anchor-18" 0 0 basechar 0
AnchorPoint: "Anchor-17" 0 0 basechar 0
AnchorPoint: "Anchor-16" 455 739 basechar 0
AnchorPoint: "Anchor-15" 0 0 basechar 0
AnchorPoint: "Anchor-14" 299 -202 basechar 0
LayerCount: 2
Fore
SplineSet
677 -175 m 1,0,1
 627 -213 627 -213 562 -213 c 0,2,3
 492 -213 492 -213 451.5 -173 c 128,-1,4
 411 -133 411 -133 411 -57 c 2,5,-1
 411 70 l 1,6,7
 385 31 385 31 346.5 9.5 c 128,-1,8
 308 -12 308 -12 261 -12 c 0,9,10
 167 -12 167 -12 114.5 62 c 128,-1,11
 62 136 62 136 62 261 c 0,12,13
 62 342 62 342 87 405 c 128,-1,14
 112 468 112 468 159 503.5 c 128,-1,15
 206 539 206 539 269 539 c 0,16,17
 350 539 350 539 411 474 c 1,18,-1
 411 750 l 1,19,-1
 503 739 l 1,20,-1
 503 -65 l 2,21,22
 503 -139 503 -139 567 -139 c 0,23,24
 590 -139 590 -139 605.5 -134 c 128,-1,25
 621 -129 621 -129 641 -117 c 1,26,-1
 677 -175 l 1,0,1
353 80.5 m 128,-1,28
 383 100 383 100 411 139 c 1,29,-1
 411 397 l 1,30,31
 385 431 385 431 355.5 448.5 c 128,-1,32
 326 466 326 466 289 466 c 0,33,34
 228 466 228 466 194.5 415 c 128,-1,35
 161 364 161 364 161 263 c 0,36,37
 161 161 161 161 192 111 c 128,-1,38
 223 61 223 61 281 61 c 0,39,27
 323 61 323 61 353 80.5 c 128,-1,28
EndSplineSet
Substitution2: "'smcp' Lowercase to Small Capitals lookup 27 subtable" uni0256.sc
Substitution2: "'aalt' Access All Alternates lookup 0 subtable" uni0256.sc
EndChar

StartChar: uni018C
Encoding: 396 396 412
Width: 598
GlyphClass: 2
Flags: W
AnchorPoint: "Anchor-18" 0 0 basechar 0
AnchorPoint: "Anchor-17" 0 0 basechar 0
AnchorPoint: "Anchor-16" 299 739 basechar 0
AnchorPoint: "Anchor-15" 0 0 basechar 0
AnchorPoint: "Anchor-14" 299 0 basechar 0
LayerCount: 2
Fore
SplineSet
503 0 m 1,0,-1
 422 0 l 1,1,-1
 413 73 l 1,2,3
 387 33 387 33 348 10.5 c 128,-1,4
 309 -12 309 -12 261 -12 c 0,5,6
 167 -12 167 -12 114.5 62 c 128,-1,7
 62 136 62 136 62 261 c 0,8,9
 62 342 62 342 87 405 c 128,-1,10
 112 468 112 468 159 503.5 c 128,-1,11
 206 539 206 539 269 539 c 0,12,13
 350 539 350 539 411 474 c 1,14,-1
 411 669 l 1,15,-1
 193 669 l 1,16,-1
 193 739 l 1,17,-1
 503 739 l 1,18,-1
 503 0 l 1,0,-1
353 80.5 m 128,-1,20
 383 100 383 100 411 139 c 1,21,-1
 411 397 l 1,22,23
 385 431 385 431 355.5 448.5 c 128,-1,24
 326 466 326 466 289 466 c 0,25,26
 228 466 228 466 194.5 415 c 128,-1,27
 161 364 161 364 161 263 c 0,28,29
 161 161 161 161 192 111 c 128,-1,30
 223 61 223 61 281 61 c 0,31,19
 323 61 323 61 353 80.5 c 128,-1,20
EndSplineSet
Substitution2: "'smcp' Lowercase to Small Capitals lookup 27 subtable" uni018C.sc
Substitution2: "'aalt' Access All Alternates lookup 0 subtable" uni018C.sc
EndChar

StartChar: uni02A3
Encoding: 675 675 414
Width: 915
GlyphClass: 2
Flags: W
AnchorPoint: "Anchor-18" 303 264 basechar 0
AnchorPoint: "Anchor-17" 513 739 basechar 0
AnchorPoint: "Anchor-16" 458 739 basechar 0
AnchorPoint: "Anchor-15" 0 0 basechar 0
AnchorPoint: "Anchor-14" 458 0 basechar 0
LayerCount: 2
Fore
SplineSet
885 77 m 1,0,-1
 874 0 l 1,1,-1
 422 0 l 1,2,-1
 413 73 l 1,3,4
 387 33 387 33 348 10.5 c 128,-1,5
 309 -12 309 -12 261 -12 c 0,6,7
 167 -12 167 -12 114.5 62 c 128,-1,8
 62 136 62 136 62 261 c 0,9,10
 62 342 62 342 87 405 c 128,-1,11
 112 468 112 468 159 503.5 c 128,-1,12
 206 539 206 539 269 539 c 0,13,14
 350 539 350 539 411 474 c 1,15,-1
 411 750 l 1,16,-1
 503 739 l 1,17,-1
 503 527 l 1,18,-1
 882 527 l 1,19,-1
 882 457 l 1,20,-1
 602 77 l 1,21,-1
 885 77 l 1,0,-1
353 80.5 m 128,-1,23
 383 100 383 100 411 139 c 1,24,-1
 411 397 l 1,25,26
 385 431 385 431 355.5 448.5 c 128,-1,27
 326 466 326 466 289 466 c 0,28,29
 228 466 228 466 194.5 415 c 128,-1,30
 161 364 161 364 161 263 c 0,31,32
 161 161 161 161 192 111 c 128,-1,33
 223 61 223 61 281 61 c 0,34,22
 323 61 323 61 353 80.5 c 128,-1,23
503 449 m 1,35,-1
 503 69 l 1,36,-1
 782 449 l 1,37,-1
 503 449 l 1,35,-1
EndSplineSet
EndChar

StartChar: uni02A5
Encoding: 677 677 416
Width: 929
GlyphClass: 2
Flags: W
AnchorPoint: "Anchor-18" 303 264 basechar 0
AnchorPoint: "Anchor-17" 513 739 basechar 0
AnchorPoint: "Anchor-16" 465 739 basechar 0
AnchorPoint: "Anchor-15" 0 0 basechar 0
AnchorPoint: "Anchor-14" 465 -202 basechar 0
LayerCount: 2
Fore
SplineSet
765 0 m 1,1,2
 760 -41 760 -41 760 -122 c 1,3,-1
 692 -122 l 1,4,5
 692 -51 692 -51 697 0 c 1,6,-1
 422 0 l 1,7,-1
 413 73 l 1,8,9
 387 33 387 33 348 10.5 c 128,-1,10
 309 -12 309 -12 261 -12 c 0,11,12
 167 -12 167 -12 114.5 62 c 128,-1,13
 62 136 62 136 62 261 c 0,14,15
 62 342 62 342 87 405 c 128,-1,16
 112 468 112 468 159 503.5 c 128,-1,17
 206 539 206 539 269 539 c 0,18,19
 350 539 350 539 411 474 c 1,20,-1
 411 750 l 1,21,-1
 503 739 l 1,22,-1
 503 527 l 1,23,-1
 881 527 l 1,24,-1
 881 457 l 1,25,-1
 606 77 l 1,26,-1
 709 77 l 1,27,28
 722 147 722 147 757.5 180.5 c 128,-1,29
 793 214 793 214 846 214 c 0,30,31
 891 214 891 214 920 188.5 c 128,-1,32
 949 163 949 163 949 119 c 0,33,0
 949 2 949 2 765 0 c 1,1,2
353 80.5 m 128,-1,35
 383 100 383 100 411 139 c 1,36,-1
 411 397 l 1,37,38
 385 431 385 431 355.5 448.5 c 128,-1,39
 326 466 326 466 289 466 c 0,40,41
 228 466 228 466 194.5 415 c 128,-1,42
 161 364 161 364 161 263 c 0,43,44
 161 161 161 161 192 111 c 128,-1,45
 223 61 223 61 281 61 c 0,46,34
 323 61 323 61 353 80.5 c 128,-1,35
503 449 m 1,47,-1
 503 70 l 1,48,-1
 776 449 l 1,49,-1
 503 449 l 1,47,-1
851.5 87.5 m 128,-1,51
 872 96 872 96 872 120 c 0,52,53
 872 153 872 153 840 153 c 0,54,55
 819 153 819 153 803 136.5 c 128,-1,56
 787 120 787 120 779 77 c 1,57,50
 831 79 831 79 851.5 87.5 c 128,-1,51
EndSplineSet
EndChar

StartChar: e
Encoding: 101 101 417
Width: 545
GlyphClass: 2
Flags: W
AnchorPoint: "Anchor-18" 0 0 basechar 0
AnchorPoint: "Anchor-17" 0 0 basechar 0
AnchorPoint: "Anchor-16" 279 527 basechar 0
AnchorPoint: "Anchor-15" 399 6 basechar 0
AnchorPoint: "Anchor-14" 293 0 basechar 0
LayerCount: 2
Fore
SplineSet
491 232 m 1,1,-1
 155 232 l 1,2,3
 161 145 161 145 199 104 c 128,-1,4
 237 63 237 63 297 63 c 0,5,6
 335 63 335 63 367 74 c 128,-1,7
 399 85 399 85 434 109 c 1,8,-1
 474 54 l 1,9,10
 390 -12 390 -12 290 -12 c 0,11,12
 180 -12 180 -12 118.5 60 c 128,-1,13
 57 132 57 132 57 258 c 0,14,15
 57 340 57 340 83.5 403.5 c 128,-1,16
 110 467 110 467 159.5 503 c 128,-1,17
 209 539 209 539 276 539 c 0,18,19
 381 539 381 539 437 470 c 128,-1,20
 493 401 493 401 493 279 c 0,21,0
 493 256 493 256 491 232 c 1,1,-1
402 306 m 2,22,23
 402 384 402 384 371 425 c 128,-1,24
 340 466 340 466 278 466 c 0,25,26
 165 466 165 466 155 300 c 1,27,-1
 402 300 l 1,28,-1
 402 306 l 2,22,23
EndSplineSet
Substitution2: "'smcp' Lowercase to Small Capitals lookup 27 subtable" e.sc
Substitution2: "'aalt' Access All Alternates lookup 0 subtable" e.sc
EndChar

